<svg xmlns="http://www.w3.org/2000/svg" width="220" height="106" viewBox="0 0 220 106" fill="none">
  <g filter="url(#filter0_d_1_1335)">
    <path d="M116.343 40.2785C116.343 40.4789 116.301 40.7128 116.217 40.98C116.134 41.2473 116.042 41.3809 115.942 41.3809C114.906 41.3809 113.612 41.3308 112.058 41.2306C110.505 41.1303 109.144 41.0802 107.975 41.0802C106.839 41.0802 105.586 41.1303 104.216 41.2306C102.847 41.3308 101.661 41.3809 100.659 41.3809C100.559 41.3809 100.467 41.2473 100.383 40.98C100.3 40.7128 100.258 40.4789 100.258 40.2785C100.258 40.1115 100.3 39.8943 100.383 39.6271C100.467 39.3599 100.559 39.2095 100.659 39.1761C101.895 39.0425 102.772 38.7085 103.289 38.174C103.807 37.6395 104.066 36.5705 104.066 34.9671V14.2725C104.066 12.9363 103.816 12.0594 103.315 11.6418C102.813 11.2242 101.928 10.9486 100.659 10.815C100.559 10.7816 100.467 10.6396 100.383 10.3891C100.3 10.1386 100.258 9.92978 100.258 9.76276C100.258 9.59573 100.3 9.38695 100.383 9.1364C100.467 8.88586 100.559 8.76059 100.659 8.76059C102.262 8.39314 104.024 7.8503 105.945 7.13208C107.866 6.41386 109.461 5.75412 110.731 5.15282C110.831 5.08601 110.998 5.00249 111.232 4.90228C111.465 4.80206 111.666 4.75195 111.833 4.75195C112.234 4.75195 112.526 4.82712 112.71 4.97743C112.893 5.12776 112.969 5.26973 112.935 5.40337C112.868 6.57254 112.785 8.00897 112.685 9.71265C112.584 11.4163 112.534 12.8026 112.534 13.8716V34.9671C112.534 36.5371 112.802 37.6061 113.336 38.174C113.871 38.7419 114.739 39.0759 115.942 39.1761C116.042 39.1761 116.134 39.3181 116.217 39.6021C116.301 39.886 116.343 40.1115 116.343 40.2785ZM143.401 38.9757C143.367 39.0759 143.351 39.1594 143.351 39.2262C143.351 39.293 143.301 39.3599 143.2 39.4267C142.566 40.1616 141.58 40.7629 140.244 41.2306C138.908 41.6982 137.538 41.9321 136.135 41.9321C134.766 41.9321 133.655 41.6231 132.803 41.0051C131.951 40.3871 131.392 39.5603 131.124 38.5247C130.356 39.6939 129.379 40.5541 128.193 41.1053C127.007 41.6565 125.546 41.9321 123.809 41.9321C121.905 41.9321 120.293 41.4978 118.973 40.6293C117.654 39.7607 116.994 38.4412 116.994 36.6707C116.994 34.6998 118.08 33.0964 120.251 31.8604C122.422 30.6244 126.064 29.4385 131.175 28.3027L131.325 23.3921C131.325 22.3566 131.175 21.6718 130.874 21.3377C130.573 21.0036 130.072 20.8366 129.371 20.8366C128.669 20.8366 128.026 20.9702 127.442 21.2375C126.857 21.5047 126.531 22.0559 126.464 22.891C126.297 24.9622 125.863 26.3986 125.162 27.2003C124.46 28.0021 123.425 28.4029 122.055 28.4029C120.819 28.4029 119.875 28.0438 119.224 27.3256C118.572 26.6074 118.247 25.7472 118.247 24.745C118.247 23.0748 119.608 21.5381 122.33 20.1351C125.053 18.7321 128.101 18.0306 131.475 18.0306C134.548 18.0306 136.645 18.7989 137.764 20.3355C138.883 21.8722 139.392 23.96 139.292 26.599L139.042 35.3178C138.975 36.487 139.142 37.247 139.543 37.5977C139.943 37.9485 140.328 38.1239 140.695 38.1239C140.996 38.1239 141.28 38.0738 141.547 37.9735C141.814 37.8733 142.048 37.7397 142.248 37.5727C142.382 37.4725 142.608 37.5977 142.925 37.9485C143.242 38.2992 143.401 38.6416 143.401 38.9757ZM131.074 30.1567C129.103 30.6244 127.684 31.2591 126.815 32.0608C125.947 32.8625 125.512 34.015 125.512 35.5182C125.512 36.3534 125.738 37.0215 126.189 37.5226C126.64 38.0236 127.266 38.2742 128.068 38.2742C128.736 38.2742 129.346 38.0654 129.897 37.6478C130.448 37.2303 130.79 36.4369 130.924 35.2677L131.074 30.1567ZM158.734 27.501C160.137 28.1023 161.465 28.8956 162.718 29.8811C163.97 30.8666 164.597 32.2445 164.597 34.015C164.597 36.3868 163.653 38.3243 161.765 39.8275C159.878 41.3308 157.431 42.0824 154.425 42.0824C152.287 42.0824 150.75 41.8486 149.815 41.3809C148.879 40.9132 147.543 40.6794 145.806 40.6794C145.706 39.8442 145.572 38.65 145.405 37.0966C145.238 35.5433 145.088 34.4326 144.954 33.7645C144.921 33.6643 145.046 33.5724 145.33 33.4889C145.614 33.4054 145.839 33.3636 146.007 33.3636C146.24 33.3636 146.483 33.4054 146.733 33.4889C146.984 33.5724 147.126 33.6643 147.159 33.7645C147.861 35.535 148.846 36.963 150.115 38.0487C151.385 39.1344 152.671 39.6772 153.974 39.6772C154.976 39.6772 155.727 39.41 156.229 38.8755C156.73 38.341 156.98 37.6061 156.98 36.6707C156.98 35.5684 156.345 34.7082 155.076 34.0902C153.807 33.4722 152.521 32.8625 151.218 32.2612C149.781 31.6265 148.453 30.7914 147.234 29.7558C146.015 28.7203 145.405 27.3005 145.405 25.4967C145.405 23.4255 146.449 21.6884 148.537 20.2854C150.625 18.8824 152.905 18.1809 155.377 18.1809C156.98 18.1809 158.358 18.3813 159.511 18.7822C160.663 19.183 161.807 19.3835 162.943 19.3835C162.943 20.1184 162.976 21.1206 163.043 22.39C163.11 23.6594 163.177 24.7116 163.244 25.5468C163.244 25.647 163.102 25.7388 162.818 25.8224C162.534 25.9059 162.308 25.9476 162.141 25.9476C161.907 25.9476 161.674 25.9142 161.44 25.8474C161.206 25.7806 161.072 25.6804 161.039 25.5468C160.671 24.0101 159.995 22.7992 159.01 21.9139C158.024 21.0287 156.997 20.5861 155.928 20.5861C154.926 20.5861 154.157 20.7865 153.623 21.1874C153.088 21.5882 152.821 22.2229 152.821 23.0915C152.821 24.2272 153.489 25.1125 154.826 25.7472C156.162 26.3819 157.465 26.9665 158.734 27.501ZM182.535 27.501C183.938 28.1023 185.266 28.8956 186.519 29.8811C187.772 30.8666 188.398 32.2445 188.398 34.015C188.398 36.3868 187.454 38.3243 185.567 39.8275C183.679 41.3308 181.232 42.0824 178.226 42.0824C176.088 42.0824 174.551 41.8486 173.616 41.3809C172.681 40.9132 171.344 40.6794 169.607 40.6794C169.507 39.8442 169.374 38.65 169.207 37.0966C169.039 35.5433 168.889 34.4326 168.756 33.7645C168.722 33.6643 168.847 33.5724 169.131 33.4889C169.415 33.4054 169.641 33.3636 169.808 33.3636C170.042 33.3636 170.284 33.4054 170.534 33.4889C170.785 33.5724 170.927 33.6643 170.96 33.7645C171.662 35.535 172.647 36.963 173.917 38.0487C175.186 39.1344 176.472 39.6772 177.775 39.6772C178.777 39.6772 179.529 39.41 180.03 38.8755C180.531 38.341 180.781 37.6061 180.781 36.6707C180.781 35.5684 180.147 34.7082 178.877 34.0902C177.608 33.4722 176.322 32.8625 175.019 32.2612C173.583 31.6265 172.255 30.7914 171.035 29.7558C169.816 28.7203 169.207 27.3005 169.207 25.4967C169.207 23.4255 170.25 21.6884 172.338 20.2854C174.426 18.8824 176.706 18.1809 179.178 18.1809C180.781 18.1809 182.159 18.3813 183.312 18.7822C184.464 19.183 185.609 19.3835 186.744 19.3835C186.744 20.1184 186.778 21.1206 186.845 22.39C186.911 23.6594 186.978 24.7116 187.045 25.5468C187.045 25.647 186.903 25.7388 186.619 25.8224C186.335 25.9059 186.11 25.9476 185.943 25.9476C185.709 25.9476 185.475 25.9142 185.241 25.8474C185.007 25.7806 184.874 25.6804 184.84 25.5468C184.473 24.0101 183.796 22.7992 182.811 21.9139C181.825 21.0287 180.798 20.5861 179.729 20.5861C178.727 20.5861 177.959 20.7865 177.424 21.1874C176.89 21.5882 176.622 22.2229 176.622 23.0915C176.622 24.2272 177.291 25.1125 178.627 25.7472C179.963 26.3819 181.266 26.9665 182.535 27.501ZM218.362 20.085C218.362 20.3188 218.321 20.561 218.237 20.8116C218.154 21.0621 218.062 21.1874 217.962 21.1874C216.826 21.2876 215.89 21.63 215.156 22.2146C214.421 22.7992 213.819 23.6093 213.352 24.6448L203.931 44.8884C202.127 48.6966 200.658 51.344 199.522 52.8306C198.386 54.3171 196.883 55.0604 195.012 55.0604C193.709 55.0604 192.69 54.743 191.956 54.1083C191.221 53.4736 190.853 52.6218 190.853 51.5528C190.853 50.5172 191.221 49.6403 191.956 48.9221C192.69 48.2039 193.609 47.8448 194.711 47.8448C195.58 47.8448 196.273 48.0035 196.791 48.3208C197.309 48.6382 197.785 48.7969 198.219 48.7969C198.62 48.7969 199.079 48.4879 199.597 47.8699C200.115 47.2519 200.858 45.8071 201.827 43.5355L202.528 41.9321L193.81 24.6448C193.275 23.5424 192.732 22.7324 192.181 22.2146C191.63 21.6968 190.703 21.3544 189.4 21.1874C189.3 21.154 189.208 21.0203 189.124 20.7865C189.041 20.5527 188.999 20.3188 188.999 20.085C188.999 19.8512 189.041 19.609 189.124 19.3584C189.208 19.1079 189.3 18.9826 189.4 18.9826C190.436 18.9826 191.638 19.0327 193.008 19.1329C194.377 19.2332 195.647 19.2833 196.816 19.2833C197.985 19.2833 199.296 19.2332 200.749 19.1329C202.203 19.0327 203.447 18.9826 204.483 18.9826C204.583 18.9826 204.675 19.1162 204.758 19.3835C204.842 19.6507 204.883 19.8846 204.883 20.085C204.883 20.252 204.842 20.4775 204.758 20.7615C204.675 21.0454 204.583 21.1874 204.483 21.1874C203.714 21.2542 203.105 21.4045 202.654 21.6383C202.203 21.8722 201.977 22.2396 201.977 22.7407C201.977 23.1082 202.036 23.4422 202.152 23.7429C202.269 24.0435 202.395 24.3442 202.528 24.6448L206.537 33.1131L210.295 24.6448C210.429 24.3108 210.521 24.0602 210.571 23.8932C210.621 23.7262 210.646 23.4923 210.646 23.1917C210.646 22.6572 210.462 22.2229 210.095 21.8889C209.727 21.5548 209.059 21.321 208.09 21.1874C207.99 21.154 207.898 21.0203 207.815 20.7865C207.731 20.5527 207.689 20.3188 207.689 20.085C207.689 19.8512 207.731 19.609 207.815 19.3584C207.898 19.1079 207.99 18.9826 208.09 18.9826C209.126 18.9826 210.036 19.0327 210.821 19.1329C211.606 19.2332 212.483 19.2833 213.452 19.2833C214.02 19.2833 214.705 19.2332 215.506 19.1329C216.308 19.0327 217.126 18.9826 217.962 18.9826C218.062 18.9826 218.154 19.1079 218.237 19.3584C218.321 19.609 218.362 19.8512 218.362 20.085ZM116.343 92.9027C116.343 93.1031 116.301 93.3369 116.217 93.6042C116.134 93.8714 116.042 94.005 115.942 94.005C114.906 94.005 113.612 93.9549 112.058 93.8547C110.505 93.7545 109.144 93.7044 107.975 93.7044C106.839 93.7044 105.586 93.7545 104.216 93.8547C102.847 93.9549 101.661 94.005 100.659 94.005C100.559 94.005 100.467 93.8714 100.383 93.6042C100.3 93.3369 100.258 93.1031 100.258 92.9027C100.258 92.7356 100.3 92.5185 100.383 92.2513C100.467 91.984 100.559 91.8337 100.659 91.8003C101.895 91.6667 102.772 91.3326 103.289 90.7981C103.807 90.2636 104.066 89.1947 104.066 87.5912V66.8966C104.066 65.5604 103.816 64.6835 103.315 64.266C102.813 63.8484 101.928 63.5728 100.659 63.4392C100.559 63.4058 100.467 63.2638 100.383 63.0133C100.3 62.7627 100.258 62.5539 100.258 62.3869C100.258 62.2199 100.3 62.0111 100.383 61.7606C100.467 61.51 100.559 61.3848 100.659 61.3848C102.262 61.0173 104.024 60.4745 105.945 59.7562C107.866 59.038 109.461 58.3783 110.731 57.777C110.831 57.7102 110.998 57.6267 111.232 57.5264C111.465 57.4262 111.666 57.3761 111.833 57.3761C112.234 57.3761 112.526 57.4513 112.71 57.6016C112.893 57.7519 112.969 57.8939 112.935 58.0275C112.868 59.1967 112.785 60.6331 112.685 62.3368C112.584 64.0405 112.534 65.4268 112.534 66.4958V87.5912C112.534 89.1613 112.802 90.2302 113.336 90.7981C113.871 91.366 114.739 91.7001 115.942 91.8003C116.042 91.8003 116.134 91.9423 116.217 92.2262C116.301 92.5102 116.343 92.7356 116.343 92.9027ZM144.203 82.9813C144.203 86.1548 143.075 88.9191 140.82 91.2742C138.565 93.6292 135.267 94.8068 130.924 94.8068C126.615 94.8068 123.316 93.6376 121.028 91.2992C118.739 88.9608 117.595 86.1882 117.595 82.9813C117.595 79.8078 118.731 76.9934 121.003 74.5381C123.274 72.0828 126.581 70.8552 130.924 70.8552C135.166 70.8552 138.44 72.0661 140.745 74.488C143.05 76.9099 144.203 79.741 144.203 82.9813ZM135.083 82.9312C135.083 79.7243 134.816 77.3107 134.281 75.6906C133.747 74.0704 132.628 73.2603 130.924 73.2603C129.22 73.2603 128.093 74.0871 127.542 75.7407C126.991 77.3943 126.715 79.7911 126.715 82.9312C126.715 86.1715 126.991 88.56 127.542 90.0966C128.093 91.6333 129.22 92.4016 130.924 92.4016C132.594 92.4016 133.705 91.6249 134.256 90.0716C134.807 88.5182 135.083 86.1381 135.083 82.9312ZM166.651 73.6111C166.651 73.9786 166.593 74.3711 166.476 74.7886C166.359 75.2062 166.2 75.415 166 75.415L158.534 75.2146V88.1925C158.534 89.1279 158.726 89.821 159.11 90.272C159.494 90.723 160.154 90.9485 161.089 90.9485C161.824 90.9485 162.517 90.7564 163.168 90.3722C163.82 89.9881 164.379 89.512 164.847 88.9441C164.981 88.7437 165.148 88.6769 165.348 88.7437C165.549 88.8105 165.732 88.9274 165.899 89.0945C166.033 89.2615 166.158 89.4703 166.275 89.7208C166.392 89.9714 166.451 90.1801 166.451 90.3472C166.451 90.414 166.451 90.4808 166.451 90.5476C166.451 90.6144 166.417 90.6645 166.35 90.6979C165.649 91.5999 164.58 92.46 163.143 93.2785C161.707 94.0969 160.02 94.5061 158.083 94.5061C155.343 94.5061 153.272 93.7796 151.869 92.3264C150.466 90.8733 149.781 88.5099 149.815 85.2361L149.915 75.8158C149.915 75.6154 149.865 75.4484 149.765 75.3148C149.664 75.1812 149.514 75.1143 149.314 75.1143H146.207C146.073 75.1143 145.956 74.964 145.856 74.6634C145.756 74.3627 145.706 74.1456 145.706 74.012C145.706 73.8783 145.756 73.6696 145.856 73.3856C145.956 73.1017 146.057 72.9263 146.157 72.8595C148.028 71.8573 149.907 70.6798 151.794 69.3269C153.681 67.974 155.276 66.6294 156.579 65.2932C156.646 65.193 156.805 65.1011 157.055 65.0176C157.306 64.9341 157.515 64.8923 157.682 64.8923C157.916 64.8923 158.158 64.9341 158.408 65.0176C158.659 65.1011 158.784 65.193 158.784 65.2932L158.584 71.8573H166C166.2 71.8573 166.359 72.0745 166.476 72.5087C166.593 72.943 166.651 73.3105 166.651 73.6111ZM183.187 80.1251C184.59 80.7264 185.918 81.5198 187.17 82.5053C188.423 83.4907 189.049 84.8687 189.049 86.6392C189.049 89.0109 188.106 90.9485 186.218 92.4517C184.331 93.9549 181.884 94.7066 178.877 94.7066C176.739 94.7066 175.203 94.4727 174.267 94.005C173.332 93.5374 171.996 93.3035 170.259 93.3035C170.159 92.4684 170.025 91.2742 169.858 89.7208C169.691 88.1675 169.541 87.0567 169.407 86.3886C169.374 86.2884 169.499 86.1965 169.783 86.113C170.067 86.0295 170.292 85.9878 170.459 85.9878C170.693 85.9878 170.935 86.0295 171.186 86.113C171.436 86.1965 171.578 86.2884 171.612 86.3886C172.313 88.1591 173.299 89.5872 174.568 90.6729C175.837 91.7585 177.124 92.3014 178.426 92.3014C179.429 92.3014 180.18 92.0341 180.681 91.4996C181.182 90.9652 181.433 90.2302 181.433 89.2949C181.433 88.1925 180.798 87.3323 179.529 86.7143C178.259 86.0963 176.973 85.4867 175.67 84.8854C174.234 84.2507 172.906 83.4156 171.687 82.38C170.468 81.3444 169.858 79.9247 169.858 78.1208C169.858 76.0497 170.902 74.3126 172.99 72.9096C175.077 71.5066 177.357 70.8051 179.829 70.8051C181.433 70.8051 182.811 71.0055 183.963 71.4063C185.116 71.8072 186.26 72.0076 187.396 72.0076C187.396 72.7426 187.429 73.7447 187.496 75.0141C187.563 76.2835 187.63 77.3358 187.696 78.1709C187.696 78.2711 187.554 78.363 187.27 78.4465C186.986 78.53 186.761 78.5718 186.594 78.5718C186.36 78.5718 186.126 78.5384 185.892 78.4716C185.659 78.4048 185.525 78.3046 185.492 78.1709C185.124 76.6343 184.448 75.4233 183.462 74.5381C182.477 73.6529 181.45 73.2102 180.381 73.2102C179.378 73.2102 178.61 73.4107 178.076 73.8115C177.541 74.2124 177.274 74.8471 177.274 75.7156C177.274 76.8514 177.942 77.7367 179.278 78.3714C180.614 79.0061 181.917 79.5907 183.187 80.1251Z" fill="url(#paint0_linear_1_1335)"/>
  </g>
  <g style="mix-blend-mode:overlay">
    <path d="M110.822 7.31244C109.647 7.83897 108.247 8.40677 106.646 9.00542C105.82 9.31403 105.017 9.59309 104.24 9.84158C104.365 9.92442 104.483 10.0123 104.595 10.1053C105.585 10.9303 106.066 12.2934 106.066 14.2725V34.9671C106.066 36.8755 105.744 38.2297 105.058 39.171C106.097 39.1107 107.075 39.0802 107.975 39.0802C109.028 39.0802 110.242 39.1199 111.591 39.1981C110.881 38.2367 110.534 36.8462 110.534 34.9671V13.8716C110.534 12.7685 110.586 11.3298 110.688 9.5952C110.736 8.77519 110.781 8.0128 110.822 7.31244ZM132.414 20.0607C133.035 20.7903 133.325 21.8522 133.325 23.3921L133.324 23.4533L133.126 29.9178L133.082 29.9276L132.921 35.4109L132.911 35.4948C132.865 35.9022 132.795 36.2836 132.703 36.6386L133.061 38.0249C133.212 38.6095 133.503 39.042 133.978 39.3862C134.477 39.7484 135.203 39.9321 136.135 39.9321C137.052 39.9321 137.963 39.8105 138.851 39.5699C138.639 39.4377 138.43 39.282 138.226 39.1029C136.907 37.9489 137.003 35.9338 137.043 35.2316L137.293 26.5231C137.376 24.3562 136.99 22.6705 136.147 21.5129C135.418 20.5118 133.855 20.157 132.414 20.0607ZM175.035 21.0588C174.497 21.3026 173.971 21.5979 173.454 21.9454C171.439 23.299 171.206 24.6205 171.206 25.4967C171.206 26.7114 171.564 27.5804 172.33 28.2314C173.397 29.1376 174.574 29.8779 175.827 30.4319L175.857 30.4453C177.166 31.0495 178.477 31.6708 179.753 32.2919C180.884 32.8426 182.781 34.1437 182.781 36.6707C182.781 37.7627 182.537 38.7119 182.052 39.5042C182.901 39.2071 183.654 38.7943 184.321 38.2631C185.738 37.1344 186.398 35.7846 186.398 34.015C186.398 33.2919 186.282 32.2397 185.282 31.453C184.174 30.5811 182.986 29.8705 181.751 29.341C180.463 28.7984 179.123 28.1971 177.769 27.5537C176.594 26.9956 174.622 25.6737 174.622 23.0915C174.622 22.2618 174.788 21.5938 175.035 21.0588ZM151.234 21.0588C150.696 21.3026 150.17 21.5979 149.652 21.9454C147.638 23.2991 147.405 24.6205 147.405 25.4967C147.405 26.7114 147.762 27.5804 148.529 28.2314C149.596 29.1376 150.772 29.8779 152.026 30.4319L152.056 30.4453C153.365 31.0495 154.676 31.6708 155.951 32.2919C157.083 32.8426 158.98 34.1437 158.98 36.6707C158.98 37.7627 158.735 38.7119 158.251 39.5042C159.1 39.2071 159.852 38.7943 160.519 38.2631C161.937 37.1344 162.597 35.7846 162.597 34.015C162.597 33.2919 162.481 32.2397 161.481 31.453C160.373 30.5811 159.185 29.8705 157.95 29.341C156.662 28.7983 155.322 28.197 153.967 27.5537C152.792 26.9956 150.821 25.6737 150.821 23.0915C150.821 22.2618 150.987 21.5939 151.234 21.0588ZM200.371 21.1621C199.078 21.2425 197.885 21.2833 196.816 21.2833C195.929 21.2833 194.978 21.2552 193.978 21.1996C194.549 21.8479 195.084 22.6912 195.602 23.7583L203.901 40.2128L205.777 36.182L200.701 25.4571C200.555 25.129 200.416 24.7961 200.288 24.4678C200.082 23.9365 199.977 23.3554 199.977 22.7407C199.977 22.1626 200.114 21.6275 200.371 21.1621ZM124.848 21.1963C124.299 21.4069 123.765 21.6459 123.247 21.9129C121.34 22.8954 120.247 23.9277 120.247 24.745C120.247 25.2508 120.388 25.6323 120.705 25.982C120.8 26.0861 121.087 26.4029 122.055 26.4029C123.202 26.4029 123.544 26.0118 123.656 25.8833C123.801 25.7179 124.288 25.0016 124.471 22.7315C124.52 22.1221 124.658 21.616 124.848 21.1963ZM212.132 21.2517C212.294 21.5244 212.419 21.8172 212.505 22.1272C212.726 21.8239 212.963 21.542 213.214 21.2823C212.843 21.2793 212.482 21.269 212.132 21.2517ZM124.187 32.3003C122.987 32.7309 122.003 33.1642 121.24 33.5985C119.227 34.7447 118.994 35.9008 118.994 36.6707C118.994 38.0692 119.571 38.628 120.073 38.9587C121.068 39.6137 122.29 39.9321 123.809 39.9321C124.558 39.9321 125.24 39.8734 125.852 39.757C125.351 39.4922 124.974 39.1627 124.702 38.8605C123.913 37.9832 123.512 36.8587 123.512 35.5182C123.512 34.2977 123.738 33.2218 124.187 32.3003ZM171.349 38.2991C171.367 38.4601 171.384 38.6156 171.401 38.7659C171.543 38.7807 171.682 38.7974 171.818 38.816C171.657 38.6491 171.501 38.4767 171.349 38.2991ZM147.548 38.2992C147.565 38.4601 147.583 38.6157 147.599 38.7659C147.741 38.7807 147.88 38.7974 148.017 38.816C147.856 38.6491 147.7 38.4768 147.548 38.2992ZM194.711 49.8448C194.132 49.8448 193.713 50.0014 193.353 50.3525C193.003 50.6952 192.853 51.0541 192.853 51.5528C192.853 52.1575 193.05 52.4109 193.263 52.5947C193.621 52.9037 194.209 53.0603 195.012 53.0603C196.252 53.0603 197.18 52.6015 197.933 51.6163C198.117 51.3746 198.313 51.096 198.521 50.7809C198.422 50.7913 198.322 50.7969 198.219 50.7969C197.412 50.7969 196.58 50.5375 195.746 50.026C195.676 49.9835 195.397 49.8448 194.711 49.8448ZM110.822 59.9366C109.647 60.4631 108.247 61.0309 106.646 61.6296C105.82 61.9382 105.017 62.2173 104.24 62.4658C104.365 62.5486 104.483 62.6365 104.595 62.7295C105.585 63.5545 106.066 64.9176 106.066 66.8966V87.5912C106.066 89.4997 105.744 90.8539 105.058 91.7952C106.098 91.7348 107.075 91.7044 107.975 91.7044C109.028 91.7044 110.242 91.744 111.591 91.8223C110.881 90.8608 110.534 89.4703 110.534 87.5912V66.4958C110.534 65.3927 110.586 63.9539 110.688 62.2193C110.736 61.3993 110.781 60.6368 110.822 59.9366ZM156.702 67.951C155.601 68.9518 154.348 69.9569 152.959 70.9524C151.869 71.7338 150.772 72.4644 149.678 73.1384C150.357 73.2292 150.959 73.5739 151.365 74.1148C151.725 74.5949 151.915 75.1831 151.915 75.8158L151.915 75.8371L151.815 85.2565C151.787 87.971 152.289 89.8822 153.308 90.9372C154.327 91.9929 155.889 92.5061 158.083 92.5061C158.32 92.5061 158.553 92.4987 158.781 92.484C158.314 92.2596 157.915 91.9542 157.587 91.5689C156.888 90.7481 156.533 89.6121 156.533 88.1925V73.8573H156.522L156.533 73.4676V73.1601L156.543 73.1604L156.702 67.951ZM126.461 73.455C126.264 73.5158 126.071 73.581 125.883 73.6509C124.515 74.1586 123.399 74.8931 122.471 75.8963C120.536 77.9877 119.595 80.3052 119.595 82.9813C119.595 85.6693 120.531 87.9325 122.457 89.9004C123.394 90.8575 124.515 91.559 125.886 92.0448C126.052 92.1034 126.221 92.1587 126.393 92.2106C126.097 91.788 125.851 91.3075 125.659 90.7719C125.024 89.0006 124.715 86.4359 124.715 82.9312C124.715 79.5433 125.019 76.9844 125.644 75.1082C125.851 74.4869 126.125 73.9347 126.461 73.455ZM135.407 73.4757C135.726 73.9392 135.984 74.4697 136.181 75.064C136.788 76.9046 137.083 79.478 137.083 82.9312C137.083 86.3997 136.775 88.9541 136.141 90.7404C135.943 91.2992 135.688 91.7986 135.38 92.2354C135.586 92.175 135.787 92.1099 135.983 92.04C137.348 91.5527 138.458 90.8498 139.376 89.891C141.278 87.9043 142.203 85.6441 142.203 82.9813C142.203 80.2487 141.252 77.9216 139.296 75.8668C138.248 74.7649 136.96 73.9709 135.407 73.4757ZM175.687 73.6829C175.149 73.9267 174.622 74.222 174.105 74.5696C172.091 75.9232 171.858 77.2446 171.858 78.1208C171.858 79.3355 172.215 80.2045 172.982 80.8556C174.048 81.7617 175.225 82.502 176.479 83.056L176.509 83.0695C177.818 83.674 179.129 84.2953 180.404 84.9161C181.535 85.4668 183.433 86.7679 183.433 89.2949C183.433 90.3868 183.188 91.336 182.704 92.1283C183.552 91.8313 184.305 91.4185 184.972 90.8873C186.389 89.7586 187.049 88.4087 187.049 86.6392C187.049 85.9161 186.934 84.8638 185.934 84.0772C184.826 83.2055 183.638 82.4951 182.404 81.9656C181.115 81.4229 179.775 80.8214 178.42 80.1779C177.245 79.6198 175.274 78.2979 175.274 75.7156C175.274 74.8861 175.439 74.218 175.687 73.6829ZM172 90.9233C172.018 91.0842 172.035 91.2398 172.052 91.39C172.194 91.4048 172.333 91.4215 172.47 91.4402C172.309 91.2732 172.152 91.1009 172 90.9233ZM111.833 4.75195C112.234 4.75195 112.526 4.82712 112.71 4.97743C112.893 5.12776 112.969 5.26973 112.935 5.40337C112.868 6.57253 112.785 8.00896 112.685 9.71265C112.584 11.4163 112.534 12.8027 112.534 13.8716V34.9671C112.534 36.5371 112.802 37.6061 113.336 38.174C113.871 38.7419 114.739 39.0759 115.942 39.1761C116.042 39.1761 116.134 39.3181 116.217 39.6021C116.301 39.886 116.343 40.1115 116.343 40.2785C116.343 40.4789 116.301 40.7128 116.217 40.98C116.134 41.2473 116.042 41.3809 115.942 41.3809C114.906 41.3809 113.612 41.3308 112.058 41.2306C110.505 41.1303 109.144 41.0802 107.975 41.0802C106.839 41.0802 105.586 41.1303 104.216 41.2306C102.847 41.3308 101.661 41.3809 100.659 41.3809C100.559 41.3809 100.467 41.2473 100.383 40.98C100.3 40.7128 100.258 40.4789 100.258 40.2785C100.258 40.1115 100.3 39.8943 100.383 39.6271C100.467 39.3598 100.559 39.2095 100.659 39.1761C101.895 39.0425 102.772 38.7085 103.289 38.174C103.807 37.6395 104.066 36.5705 104.066 34.9671V14.2725C104.066 12.9363 103.816 12.0594 103.315 11.6418C102.813 11.2242 101.928 10.9486 100.659 10.815C100.559 10.7816 100.467 10.6396 100.383 10.3891C100.3 10.1386 100.258 9.92978 100.258 9.76274C100.258 9.59573 100.3 9.38695 100.383 9.1364C100.467 8.88586 100.559 8.76057 100.659 8.76057C102.262 8.39314 104.024 7.8503 105.945 7.13208C107.866 6.41386 109.461 5.75412 110.73 5.15282C110.831 5.08601 110.998 5.00249 111.232 4.90228C111.465 4.80206 111.666 4.75195 111.833 4.75195ZM131.475 18.0306C134.548 18.0306 136.645 18.7989 137.764 20.3355C138.883 21.8722 139.392 23.96 139.292 26.599L139.041 35.3178C138.975 36.487 139.142 37.247 139.543 37.5977C139.943 37.9485 140.328 38.1239 140.695 38.1239C140.996 38.1239 141.28 38.0737 141.547 37.9735C141.814 37.8733 142.048 37.7397 142.248 37.5727C142.382 37.4724 142.608 37.5977 142.925 37.9485C143.242 38.2992 143.401 38.6416 143.401 38.9757C143.367 39.0759 143.351 39.1594 143.351 39.2262C143.351 39.2931 143.301 39.3598 143.2 39.4267C142.566 40.1616 141.58 40.7629 140.244 41.2306C138.908 41.6982 137.538 41.9321 136.135 41.9321C134.766 41.9321 133.655 41.6231 132.803 41.0051C131.951 40.3871 131.392 39.5603 131.124 38.5247C130.356 39.6939 129.379 40.5541 128.193 41.1053C127.007 41.6565 125.546 41.9321 123.809 41.9321C121.905 41.9321 120.293 41.4978 118.973 40.6292C117.654 39.7607 116.994 38.4412 116.994 36.6707C116.994 34.6998 118.08 33.0964 120.251 31.8604C122.422 30.6244 126.064 29.4385 131.175 28.3027L131.325 23.3921C131.325 22.3566 131.175 21.6717 130.874 21.3377C130.573 21.0036 130.072 20.8366 129.371 20.8366C128.669 20.8366 128.026 20.9702 127.441 21.2375C126.857 21.5047 126.531 22.0559 126.464 22.891C126.297 24.9622 125.863 26.3986 125.162 27.2003C124.46 28.0021 123.425 28.4029 122.055 28.4029C120.819 28.4029 119.875 28.0438 119.224 27.3256C118.572 26.6074 118.247 25.7472 118.247 24.745C118.247 23.0748 119.608 21.5381 122.33 20.1351C125.053 18.7321 128.101 18.0306 131.475 18.0306ZM128.068 38.2742C128.736 38.2742 129.346 38.0654 129.897 37.6478C130.448 37.2303 130.79 36.4369 130.924 35.2677L131.074 30.1567C129.103 30.6244 127.684 31.2591 126.815 32.0608C125.947 32.8625 125.512 34.015 125.512 35.5182C125.512 36.3534 125.738 37.0215 126.189 37.5226C126.64 38.0237 127.266 38.2742 128.068 38.2742ZM155.377 18.1809C156.98 18.1809 158.358 18.3813 159.511 18.7822C160.663 19.1831 161.807 19.3835 162.943 19.3835C162.943 20.1184 162.976 21.1206 163.043 22.39C163.11 23.6594 163.177 24.7116 163.244 25.5468C163.244 25.647 163.102 25.7388 162.818 25.8223C162.534 25.9059 162.308 25.9476 162.141 25.9476C161.907 25.9476 161.674 25.9142 161.44 25.8474C161.206 25.7806 161.072 25.6804 161.039 25.5468C160.671 24.0101 159.995 22.7992 159.01 21.9139C158.024 21.0287 156.997 20.5861 155.928 20.5861C154.926 20.5861 154.157 20.7865 153.623 21.1874C153.088 21.5882 152.821 22.2229 152.821 23.0915C152.821 24.2272 153.489 25.1125 154.826 25.7472C156.162 26.3819 157.465 26.9665 158.734 27.501C160.137 28.1023 161.465 28.8956 162.718 29.8811C163.97 30.8666 164.597 32.2445 164.597 34.015C164.597 36.3868 163.653 38.3243 161.765 39.8275C159.878 41.3308 157.431 42.0824 154.425 42.0824C152.287 42.0824 150.75 41.8485 149.815 41.3809C148.879 40.9132 147.543 40.6794 145.806 40.6794C145.706 39.8442 145.572 38.65 145.405 37.0966C145.238 35.5433 145.088 34.4326 144.954 33.7645C144.921 33.6642 145.046 33.5724 145.33 33.4889C145.614 33.4054 145.839 33.3636 146.007 33.3636C146.24 33.3636 146.483 33.4054 146.733 33.4889C146.984 33.5724 147.126 33.6642 147.159 33.7645C147.86 35.535 148.846 36.963 150.115 38.0487C151.385 39.1344 152.671 39.6772 153.974 39.6772C154.976 39.6772 155.727 39.41 156.229 38.8755C156.73 38.341 156.98 37.6061 156.98 36.6707C156.98 35.5684 156.345 34.7082 155.076 34.0902C153.807 33.4722 152.521 32.8625 151.218 32.2612C149.781 31.6265 148.453 30.7914 147.234 29.7558C146.015 28.7203 145.405 27.3005 145.405 25.4967C145.405 23.4255 146.449 21.6884 148.537 20.2854C150.625 18.8824 152.905 18.1809 155.377 18.1809ZM179.178 18.1809C180.781 18.1809 182.159 18.3813 183.312 18.7822C184.464 19.1831 185.608 19.3835 186.744 19.3835C186.744 20.1184 186.778 21.1206 186.844 22.39C186.911 23.6594 186.978 24.7116 187.045 25.5468C187.045 25.647 186.903 25.7388 186.619 25.8223C186.335 25.9059 186.11 25.9476 185.943 25.9476C185.709 25.9476 185.475 25.9142 185.241 25.8474C185.007 25.7806 184.874 25.6804 184.84 25.5468C184.473 24.0101 183.796 22.7992 182.811 21.9139C181.825 21.0287 180.798 20.5861 179.729 20.5861C178.727 20.5861 177.959 20.7865 177.424 21.1874C176.89 21.5882 176.622 22.2229 176.622 23.0915C176.622 24.2272 177.291 25.1125 178.627 25.7472C179.963 26.3819 181.266 26.9665 182.535 27.501C183.938 28.1023 185.266 28.8956 186.519 29.8811C187.771 30.8666 188.398 32.2445 188.398 34.015C188.398 36.3868 187.454 38.3243 185.567 39.8275C183.679 41.3308 181.232 42.0824 178.226 42.0824C176.088 42.0824 174.551 41.8485 173.616 41.3809C172.681 40.9132 171.344 40.6794 169.607 40.6794C169.507 39.8442 169.374 38.65 169.206 37.0966C169.039 35.5433 168.889 34.4326 168.756 33.7645C168.722 33.6642 168.847 33.5724 169.131 33.4889C169.415 33.4054 169.641 33.3636 169.808 33.3636C170.042 33.3636 170.284 33.4054 170.534 33.4889C170.785 33.5724 170.927 33.6642 170.96 33.7645C171.662 35.535 172.647 36.963 173.917 38.0487C175.186 39.1344 176.472 39.6772 177.775 39.6772C178.777 39.6772 179.529 39.41 180.03 38.8755C180.531 38.341 180.781 37.6061 180.781 36.6707C180.781 35.5684 180.147 34.7082 178.877 34.0902C177.608 33.4722 176.322 32.8625 175.019 32.2612C173.583 31.6265 172.255 30.7914 171.035 29.7558C169.816 28.7203 169.206 27.3005 169.206 25.4967C169.206 23.4255 170.25 21.6884 172.338 20.2854C174.426 18.8824 176.706 18.1809 179.178 18.1809ZM189.4 18.9826C190.436 18.9826 191.638 19.0327 193.008 19.1329C194.377 19.2331 195.647 19.2833 196.816 19.2833C197.985 19.2833 199.296 19.2331 200.749 19.1329C202.203 19.0327 203.447 18.9826 204.482 18.9826C204.583 18.9826 204.675 19.1162 204.758 19.3835C204.842 19.6507 204.883 19.8846 204.883 20.085C204.883 20.252 204.842 20.4775 204.758 20.7615C204.675 21.0454 204.583 21.1874 204.482 21.1874C203.714 21.2542 203.105 21.4045 202.654 21.6383C202.203 21.8722 201.977 22.2396 201.977 22.7407C201.977 23.1082 202.036 23.4422 202.152 23.7429C202.269 24.0435 202.395 24.3442 202.528 24.6448L206.537 33.1131L210.295 24.6448C210.429 24.3108 210.521 24.0602 210.571 23.8932C210.621 23.7262 210.646 23.4923 210.646 23.1917C210.646 22.6572 210.462 22.2229 210.095 21.8889C209.727 21.5548 209.059 21.321 208.09 21.1874C207.99 21.154 207.898 21.0203 207.815 20.7865C207.731 20.5527 207.689 20.3188 207.689 20.085C207.689 19.8512 207.731 19.609 207.815 19.3584C207.898 19.1079 207.99 18.9826 208.09 18.9826C209.126 18.9826 210.036 19.0327 210.821 19.1329C211.606 19.2331 212.483 19.2833 213.452 19.2833C214.02 19.2833 214.705 19.2331 215.506 19.1329C216.308 19.0327 217.126 18.9826 217.962 18.9826C218.062 18.9826 218.154 19.1079 218.237 19.3584C218.321 19.609 218.362 19.8512 218.362 20.085C218.362 20.3188 218.321 20.561 218.237 20.8115C218.154 21.0621 218.062 21.1874 217.962 21.1874C216.826 21.2876 215.89 21.63 215.156 22.2146C214.421 22.7992 213.819 23.6092 213.352 24.6448L203.931 44.8884C202.127 48.6966 200.658 51.344 199.522 52.8306C198.386 54.3171 196.883 55.0603 195.012 55.0603C193.709 55.0603 192.69 54.743 191.956 54.1083C191.221 53.4736 190.853 52.6218 190.853 51.5528C190.853 50.5172 191.221 49.6404 191.956 48.9221C192.69 48.2039 193.609 47.8448 194.711 47.8448C195.58 47.8448 196.273 48.0035 196.791 48.3208C197.309 48.6382 197.785 48.7969 198.219 48.7969C198.62 48.7969 199.079 48.4879 199.597 47.8699C200.115 47.2519 200.858 45.8071 201.827 43.5355L202.528 41.9321L193.81 24.6448C193.275 23.5424 192.732 22.7324 192.181 22.2146C191.63 21.6968 190.703 21.3544 189.4 21.1874C189.3 21.154 189.208 21.0203 189.124 20.7865C189.041 20.5527 188.999 20.3188 188.999 20.085C188.999 19.8512 189.041 19.609 189.124 19.3584C189.208 19.1079 189.3 18.9826 189.4 18.9826ZM111.833 57.3761C112.234 57.3761 112.526 57.4513 112.71 57.6016C112.893 57.7519 112.969 57.8939 112.935 58.0275C112.868 59.1967 112.785 60.6331 112.685 62.3368C112.584 64.0405 112.534 65.4268 112.534 66.4958V87.5912C112.534 89.1613 112.802 90.2302 113.336 90.7981C113.871 91.366 114.739 91.7001 115.942 91.8003C116.042 91.8003 116.134 91.9423 116.217 92.2262C116.301 92.5102 116.343 92.7356 116.343 92.9027C116.343 93.1031 116.301 93.3369 116.217 93.6042C116.134 93.8714 116.042 94.0051 115.942 94.0051C114.906 94.0051 113.612 93.9549 112.058 93.8547C110.505 93.7545 109.144 93.7044 107.975 93.7044C106.839 93.7044 105.586 93.7545 104.216 93.8547C102.847 93.9549 101.661 94.0051 100.659 94.0051C100.559 94.0051 100.467 93.8714 100.383 93.6042C100.3 93.3369 100.258 93.1031 100.258 92.9027C100.258 92.7356 100.3 92.5185 100.383 92.2513C100.467 91.984 100.559 91.8337 100.659 91.8003C101.895 91.6667 102.772 91.3326 103.289 90.7981C103.807 90.2636 104.066 89.1947 104.066 87.5912V66.8966C104.066 65.5604 103.816 64.6835 103.315 64.266C102.813 63.8484 101.928 63.5728 100.659 63.4392C100.559 63.4058 100.467 63.2638 100.383 63.0133C100.3 62.7627 100.258 62.5539 100.258 62.3869C100.258 62.2199 100.3 62.0111 100.383 61.7606C100.467 61.51 100.559 61.3848 100.659 61.3848C102.262 61.0173 104.024 60.4745 105.945 59.7562C107.866 59.038 109.461 58.3783 110.73 57.777C110.831 57.7102 110.998 57.6267 111.232 57.5265C111.465 57.4262 111.666 57.3761 111.833 57.3761ZM157.682 64.8923C157.916 64.8923 158.158 64.9341 158.408 65.0176C158.659 65.1011 158.784 65.193 158.784 65.2932L158.584 71.8573H166C166.2 71.8573 166.359 72.0745 166.476 72.5087C166.593 72.943 166.651 73.3104 166.651 73.6111C166.651 73.9786 166.593 74.3711 166.476 74.7886C166.359 75.2062 166.2 75.415 166 75.415L158.533 75.2145V88.1925C158.533 89.1279 158.726 89.821 159.11 90.272C159.494 90.723 160.154 90.9485 161.089 90.9485C161.824 90.9485 162.517 90.7564 163.168 90.3722C163.82 89.9881 164.379 89.512 164.847 88.9441C164.981 88.7437 165.148 88.6769 165.348 88.7437C165.549 88.8105 165.732 88.9274 165.899 89.0945C166.033 89.2615 166.158 89.4703 166.275 89.7208C166.392 89.9713 166.451 90.1801 166.451 90.3472C166.451 90.414 166.451 90.4808 166.451 90.5476C166.451 90.6144 166.417 90.6645 166.35 90.6979C165.649 91.5999 164.58 92.46 163.143 93.2785C161.707 94.0969 160.02 94.5061 158.083 94.5061C155.343 94.5061 153.272 93.7796 151.869 92.3264C150.466 90.8733 149.781 88.5099 149.815 85.2361L149.915 75.8158C149.915 75.6154 149.865 75.4484 149.765 75.3148C149.664 75.1812 149.514 75.1143 149.314 75.1143H146.207C146.073 75.1143 145.956 74.964 145.856 74.6634C145.756 74.3627 145.706 74.1456 145.706 74.012C145.706 73.8783 145.756 73.6695 145.856 73.3856C145.956 73.1017 146.057 72.9263 146.157 72.8595C148.028 71.8573 149.907 70.6798 151.794 69.3269C153.681 67.9739 155.276 66.6294 156.579 65.2932C156.646 65.193 156.805 65.1011 157.055 65.0176C157.306 64.9341 157.515 64.8923 157.682 64.8923ZM179.829 70.805C181.433 70.805 182.811 71.0055 183.963 71.4063C185.116 71.8072 186.26 72.0077 187.396 72.0077C187.396 72.7426 187.429 73.7447 187.496 75.0141C187.563 76.2835 187.63 77.3358 187.696 78.1709C187.696 78.2711 187.554 78.363 187.27 78.4465C186.986 78.53 186.761 78.5718 186.594 78.5718C186.36 78.5718 186.126 78.5384 185.892 78.4716C185.659 78.4048 185.525 78.3046 185.492 78.1709C185.124 76.6343 184.448 75.4233 183.462 74.5381C182.477 73.6528 181.45 73.2102 180.381 73.2102C179.378 73.2102 178.61 73.4107 178.076 73.8115C177.541 74.2124 177.274 74.8471 177.274 75.7156C177.274 76.8514 177.942 77.7366 179.278 78.3714C180.614 79.006 181.917 79.5907 183.187 80.1251C184.59 80.7264 185.918 81.5198 187.17 82.5053C188.423 83.4907 189.049 84.8687 189.049 86.6392C189.049 89.0109 188.106 90.9485 186.218 92.4517C184.331 93.9549 181.884 94.7065 178.877 94.7065C176.739 94.7065 175.203 94.4727 174.267 94.0051C173.332 93.5374 171.996 93.3035 170.259 93.3035C170.159 92.4684 170.025 91.2742 169.858 89.7208C169.691 88.1675 169.541 87.0567 169.407 86.3886C169.374 86.2884 169.499 86.1965 169.783 86.113C170.067 86.0295 170.292 85.9878 170.459 85.9878C170.693 85.9878 170.935 86.0295 171.186 86.113C171.436 86.1965 171.578 86.2884 171.612 86.3886C172.313 88.1591 173.299 89.5872 174.568 90.6729C175.837 91.7585 177.124 92.3014 178.426 92.3014C179.429 92.3014 180.18 92.0341 180.681 91.4996C181.182 90.9652 181.433 90.2302 181.433 89.2949C181.433 88.1925 180.798 87.3323 179.529 86.7143C178.259 86.0963 176.973 85.4867 175.67 84.8854C174.234 84.2507 172.906 83.4155 171.687 82.38C170.468 81.3444 169.858 79.9247 169.858 78.1208C169.858 76.0497 170.902 74.3126 172.99 72.9096C175.077 71.5066 177.357 70.805 179.829 70.805ZM130.924 70.8552C135.166 70.8552 138.44 72.0661 140.745 74.488C143.05 76.9099 144.203 79.741 144.203 82.9813C144.203 86.1548 143.075 88.9191 140.82 91.2742C138.565 93.6292 135.267 94.8068 130.924 94.8068C126.615 94.8068 123.316 93.6376 121.028 91.2992C118.739 88.9608 117.595 86.1882 117.595 82.9813C117.595 79.8078 118.731 76.9934 121.003 74.5381C123.274 72.0828 126.581 70.8552 130.924 70.8552ZM130.924 92.4016C132.594 92.4016 133.705 91.6249 134.256 90.0716C134.807 88.5182 135.083 86.1381 135.083 82.9312C135.083 79.7243 134.816 77.3107 134.281 75.6906C133.747 74.0704 132.628 73.2603 130.924 73.2603C129.22 73.2603 128.093 74.0871 127.542 75.7407C126.991 77.3942 126.715 79.7911 126.715 82.9312C126.715 86.1715 126.991 88.56 127.542 90.0966C128.093 91.6333 129.22 92.4016 130.924 92.4016Z" fill="url(#paint1_linear_1_1335)"/>
  </g>
  <g style="mix-blend-mode:color">
    <path d="M116.343 40.2785C116.343 40.4789 116.301 40.7128 116.217 40.98C116.134 41.2473 116.042 41.3809 115.942 41.3809C114.906 41.3809 113.612 41.3308 112.058 41.2306C110.505 41.1303 109.144 41.0802 107.975 41.0802C106.839 41.0802 105.586 41.1303 104.216 41.2306C102.847 41.3308 101.661 41.3809 100.659 41.3809C100.559 41.3809 100.467 41.2473 100.383 40.98C100.3 40.7128 100.258 40.4789 100.258 40.2785C100.258 40.1115 100.3 39.8943 100.383 39.6271C100.467 39.3599 100.559 39.2095 100.659 39.1761C101.895 39.0425 102.772 38.7085 103.289 38.174C103.807 37.6395 104.066 36.5705 104.066 34.9671V14.2725C104.066 12.9363 103.816 12.0594 103.315 11.6418C102.813 11.2242 101.928 10.9486 100.659 10.815C100.559 10.7816 100.467 10.6396 100.383 10.3891C100.3 10.1386 100.258 9.92978 100.258 9.76276C100.258 9.59573 100.3 9.38695 100.383 9.1364C100.467 8.88586 100.559 8.76059 100.659 8.76059C102.262 8.39314 104.024 7.8503 105.945 7.13208C107.866 6.41386 109.461 5.75412 110.731 5.15282C110.831 5.08601 110.998 5.00249 111.232 4.90228C111.465 4.80206 111.666 4.75195 111.833 4.75195C112.234 4.75195 112.526 4.82712 112.71 4.97743C112.893 5.12776 112.969 5.26973 112.935 5.40337C112.868 6.57254 112.785 8.00897 112.685 9.71265C112.584 11.4163 112.534 12.8026 112.534 13.8716V34.9671C112.534 36.5371 112.802 37.6061 113.336 38.174C113.871 38.7419 114.739 39.0759 115.942 39.1761C116.042 39.1761 116.134 39.3181 116.217 39.6021C116.301 39.886 116.343 40.1115 116.343 40.2785ZM143.401 38.9757C143.367 39.0759 143.351 39.1594 143.351 39.2262C143.351 39.293 143.301 39.3599 143.2 39.4267C142.566 40.1616 141.58 40.7629 140.244 41.2306C138.908 41.6982 137.538 41.9321 136.135 41.9321C134.766 41.9321 133.655 41.6231 132.803 41.0051C131.951 40.3871 131.392 39.5603 131.124 38.5247C130.356 39.6939 129.379 40.5541 128.193 41.1053C127.007 41.6565 125.546 41.9321 123.809 41.9321C121.905 41.9321 120.293 41.4978 118.973 40.6293C117.654 39.7607 116.994 38.4412 116.994 36.6707C116.994 34.6998 118.08 33.0964 120.251 31.8604C122.422 30.6244 126.064 29.4385 131.175 28.3027L131.325 23.3921C131.325 22.3566 131.175 21.6718 130.874 21.3377C130.573 21.0036 130.072 20.8366 129.371 20.8366C128.669 20.8366 128.026 20.9702 127.442 21.2375C126.857 21.5047 126.531 22.0559 126.464 22.891C126.297 24.9622 125.863 26.3986 125.162 27.2003C124.46 28.0021 123.425 28.4029 122.055 28.4029C120.819 28.4029 119.875 28.0438 119.224 27.3256C118.572 26.6074 118.247 25.7472 118.247 24.745C118.247 23.0748 119.608 21.5381 122.33 20.1351C125.053 18.7321 128.101 18.0306 131.475 18.0306C134.548 18.0306 136.645 18.7989 137.764 20.3355C138.883 21.8722 139.392 23.96 139.292 26.599L139.042 35.3178C138.975 36.487 139.142 37.247 139.543 37.5977C139.943 37.9485 140.328 38.1239 140.695 38.1239C140.996 38.1239 141.28 38.0738 141.547 37.9735C141.814 37.8733 142.048 37.7397 142.248 37.5727C142.382 37.4725 142.608 37.5977 142.925 37.9485C143.242 38.2992 143.401 38.6416 143.401 38.9757ZM131.074 30.1567C129.103 30.6244 127.684 31.2591 126.815 32.0608C125.947 32.8625 125.512 34.015 125.512 35.5182C125.512 36.3534 125.738 37.0215 126.189 37.5226C126.64 38.0236 127.266 38.2742 128.068 38.2742C128.736 38.2742 129.346 38.0654 129.897 37.6478C130.448 37.2303 130.79 36.4369 130.924 35.2677L131.074 30.1567ZM158.734 27.501C160.137 28.1023 161.465 28.8956 162.718 29.8811C163.97 30.8666 164.597 32.2445 164.597 34.015C164.597 36.3868 163.653 38.3243 161.765 39.8275C159.878 41.3308 157.431 42.0824 154.425 42.0824C152.287 42.0824 150.75 41.8486 149.815 41.3809C148.879 40.9132 147.543 40.6794 145.806 40.6794C145.706 39.8442 145.572 38.65 145.405 37.0966C145.238 35.5433 145.088 34.4326 144.954 33.7645C144.921 33.6643 145.046 33.5724 145.33 33.4889C145.614 33.4054 145.839 33.3636 146.007 33.3636C146.24 33.3636 146.483 33.4054 146.733 33.4889C146.984 33.5724 147.126 33.6643 147.159 33.7645C147.861 35.535 148.846 36.963 150.115 38.0487C151.385 39.1344 152.671 39.6772 153.974 39.6772C154.976 39.6772 155.727 39.41 156.229 38.8755C156.73 38.341 156.98 37.6061 156.98 36.6707C156.98 35.5684 156.345 34.7082 155.076 34.0902C153.807 33.4722 152.521 32.8625 151.218 32.2612C149.781 31.6265 148.453 30.7914 147.234 29.7558C146.015 28.7203 145.405 27.3005 145.405 25.4967C145.405 23.4255 146.449 21.6884 148.537 20.2854C150.625 18.8824 152.905 18.1809 155.377 18.1809C156.98 18.1809 158.358 18.3813 159.511 18.7822C160.663 19.183 161.807 19.3835 162.943 19.3835C162.943 20.1184 162.976 21.1206 163.043 22.39C163.11 23.6594 163.177 24.7116 163.244 25.5468C163.244 25.647 163.102 25.7388 162.818 25.8224C162.534 25.9059 162.308 25.9476 162.141 25.9476C161.907 25.9476 161.674 25.9142 161.44 25.8474C161.206 25.7806 161.072 25.6804 161.039 25.5468C160.671 24.0101 159.995 22.7992 159.01 21.9139C158.024 21.0287 156.997 20.5861 155.928 20.5861C154.926 20.5861 154.157 20.7865 153.623 21.1874C153.088 21.5882 152.821 22.2229 152.821 23.0915C152.821 24.2272 153.489 25.1125 154.826 25.7472C156.162 26.3819 157.465 26.9665 158.734 27.501ZM182.535 27.501C183.938 28.1023 185.266 28.8956 186.519 29.8811C187.772 30.8666 188.398 32.2445 188.398 34.015C188.398 36.3868 187.454 38.3243 185.567 39.8275C183.679 41.3308 181.232 42.0824 178.226 42.0824C176.088 42.0824 174.551 41.8486 173.616 41.3809C172.681 40.9132 171.344 40.6794 169.607 40.6794C169.507 39.8442 169.374 38.65 169.207 37.0966C169.039 35.5433 168.889 34.4326 168.756 33.7645C168.722 33.6643 168.847 33.5724 169.131 33.4889C169.415 33.4054 169.641 33.3636 169.808 33.3636C170.042 33.3636 170.284 33.4054 170.534 33.4889C170.785 33.5724 170.927 33.6643 170.96 33.7645C171.662 35.535 172.647 36.963 173.917 38.0487C175.186 39.1344 176.472 39.6772 177.775 39.6772C178.777 39.6772 179.529 39.41 180.03 38.8755C180.531 38.341 180.781 37.6061 180.781 36.6707C180.781 35.5684 180.147 34.7082 178.877 34.0902C177.608 33.4722 176.322 32.8625 175.019 32.2612C173.583 31.6265 172.255 30.7914 171.035 29.7558C169.816 28.7203 169.207 27.3005 169.207 25.4967C169.207 23.4255 170.25 21.6884 172.338 20.2854C174.426 18.8824 176.706 18.1809 179.178 18.1809C180.781 18.1809 182.159 18.3813 183.312 18.7822C184.464 19.183 185.609 19.3835 186.744 19.3835C186.744 20.1184 186.778 21.1206 186.845 22.39C186.911 23.6594 186.978 24.7116 187.045 25.5468C187.045 25.647 186.903 25.7388 186.619 25.8224C186.335 25.9059 186.11 25.9476 185.943 25.9476C185.709 25.9476 185.475 25.9142 185.241 25.8474C185.007 25.7806 184.874 25.6804 184.84 25.5468C184.473 24.0101 183.796 22.7992 182.811 21.9139C181.825 21.0287 180.798 20.5861 179.729 20.5861C178.727 20.5861 177.959 20.7865 177.424 21.1874C176.89 21.5882 176.622 22.2229 176.622 23.0915C176.622 24.2272 177.291 25.1125 178.627 25.7472C179.963 26.3819 181.266 26.9665 182.535 27.501ZM218.362 20.085C218.362 20.3188 218.321 20.561 218.237 20.8116C218.154 21.0621 218.062 21.1874 217.962 21.1874C216.826 21.2876 215.89 21.63 215.156 22.2146C214.421 22.7992 213.819 23.6093 213.352 24.6448L203.931 44.8884C202.127 48.6966 200.658 51.344 199.522 52.8306C198.386 54.3171 196.883 55.0604 195.012 55.0604C193.709 55.0604 192.69 54.743 191.956 54.1083C191.221 53.4736 190.853 52.6218 190.853 51.5528C190.853 50.5172 191.221 49.6403 191.956 48.9221C192.69 48.2039 193.609 47.8448 194.711 47.8448C195.58 47.8448 196.273 48.0035 196.791 48.3208C197.309 48.6382 197.785 48.7969 198.219 48.7969C198.62 48.7969 199.079 48.4879 199.597 47.8699C200.115 47.2519 200.858 45.8071 201.827 43.5355L202.528 41.9321L193.81 24.6448C193.275 23.5424 192.732 22.7324 192.181 22.2146C191.63 21.6968 190.703 21.3544 189.4 21.1874C189.3 21.154 189.208 21.0203 189.124 20.7865C189.041 20.5527 188.999 20.3188 188.999 20.085C188.999 19.8512 189.041 19.609 189.124 19.3584C189.208 19.1079 189.3 18.9826 189.4 18.9826C190.436 18.9826 191.638 19.0327 193.008 19.1329C194.377 19.2332 195.647 19.2833 196.816 19.2833C197.985 19.2833 199.296 19.2332 200.749 19.1329C202.203 19.0327 203.447 18.9826 204.483 18.9826C204.583 18.9826 204.675 19.1162 204.758 19.3835C204.842 19.6507 204.883 19.8846 204.883 20.085C204.883 20.252 204.842 20.4775 204.758 20.7615C204.675 21.0454 204.583 21.1874 204.483 21.1874C203.714 21.2542 203.105 21.4045 202.654 21.6383C202.203 21.8722 201.977 22.2396 201.977 22.7407C201.977 23.1082 202.036 23.4422 202.152 23.7429C202.269 24.0435 202.395 24.3442 202.528 24.6448L206.537 33.1131L210.295 24.6448C210.429 24.3108 210.521 24.0602 210.571 23.8932C210.621 23.7262 210.646 23.4923 210.646 23.1917C210.646 22.6572 210.462 22.2229 210.095 21.8889C209.727 21.5548 209.059 21.321 208.09 21.1874C207.99 21.154 207.898 21.0203 207.815 20.7865C207.731 20.5527 207.689 20.3188 207.689 20.085C207.689 19.8512 207.731 19.609 207.815 19.3584C207.898 19.1079 207.99 18.9826 208.09 18.9826C209.126 18.9826 210.036 19.0327 210.821 19.1329C211.606 19.2332 212.483 19.2833 213.452 19.2833C214.02 19.2833 214.705 19.2332 215.506 19.1329C216.308 19.0327 217.126 18.9826 217.962 18.9826C218.062 18.9826 218.154 19.1079 218.237 19.3584C218.321 19.609 218.362 19.8512 218.362 20.085ZM116.343 92.9027C116.343 93.1031 116.301 93.3369 116.217 93.6042C116.134 93.8714 116.042 94.005 115.942 94.005C114.906 94.005 113.612 93.9549 112.058 93.8547C110.505 93.7545 109.144 93.7044 107.975 93.7044C106.839 93.7044 105.586 93.7545 104.216 93.8547C102.847 93.9549 101.661 94.005 100.659 94.005C100.559 94.005 100.467 93.8714 100.383 93.6042C100.3 93.3369 100.258 93.1031 100.258 92.9027C100.258 92.7356 100.3 92.5185 100.383 92.2513C100.467 91.984 100.559 91.8337 100.659 91.8003C101.895 91.6667 102.772 91.3326 103.289 90.7981C103.807 90.2636 104.066 89.1947 104.066 87.5912V66.8966C104.066 65.5604 103.816 64.6835 103.315 64.266C102.813 63.8484 101.928 63.5728 100.659 63.4392C100.559 63.4058 100.467 63.2638 100.383 63.0133C100.3 62.7627 100.258 62.5539 100.258 62.3869C100.258 62.2199 100.3 62.0111 100.383 61.7606C100.467 61.51 100.559 61.3848 100.659 61.3848C102.262 61.0173 104.024 60.4745 105.945 59.7562C107.866 59.038 109.461 58.3783 110.731 57.777C110.831 57.7102 110.998 57.6267 111.232 57.5264C111.465 57.4262 111.666 57.3761 111.833 57.3761C112.234 57.3761 112.526 57.4513 112.71 57.6016C112.893 57.7519 112.969 57.8939 112.935 58.0275C112.868 59.1967 112.785 60.6331 112.685 62.3368C112.584 64.0405 112.534 65.4268 112.534 66.4958V87.5912C112.534 89.1613 112.802 90.2302 113.336 90.7981C113.871 91.366 114.739 91.7001 115.942 91.8003C116.042 91.8003 116.134 91.9423 116.217 92.2262C116.301 92.5102 116.343 92.7356 116.343 92.9027ZM144.203 82.9813C144.203 86.1548 143.075 88.9191 140.82 91.2742C138.565 93.6292 135.267 94.8068 130.924 94.8068C126.615 94.8068 123.316 93.6376 121.028 91.2992C118.739 88.9608 117.595 86.1882 117.595 82.9813C117.595 79.8078 118.731 76.9934 121.003 74.5381C123.274 72.0828 126.581 70.8552 130.924 70.8552C135.166 70.8552 138.44 72.0661 140.745 74.488C143.05 76.9099 144.203 79.741 144.203 82.9813ZM135.083 82.9312C135.083 79.7243 134.816 77.3107 134.281 75.6906C133.747 74.0704 132.628 73.2603 130.924 73.2603C129.22 73.2603 128.093 74.0871 127.542 75.7407C126.991 77.3943 126.715 79.7911 126.715 82.9312C126.715 86.1715 126.991 88.56 127.542 90.0966C128.093 91.6333 129.22 92.4016 130.924 92.4016C132.594 92.4016 133.705 91.6249 134.256 90.0716C134.807 88.5182 135.083 86.1381 135.083 82.9312ZM166.651 73.6111C166.651 73.9786 166.593 74.3711 166.476 74.7886C166.359 75.2062 166.2 75.415 166 75.415L158.534 75.2146V88.1925C158.534 89.1279 158.726 89.821 159.11 90.272C159.494 90.723 160.154 90.9485 161.089 90.9485C161.824 90.9485 162.517 90.7564 163.168 90.3722C163.82 89.9881 164.379 89.512 164.847 88.9441C164.981 88.7437 165.148 88.6769 165.348 88.7437C165.549 88.8105 165.732 88.9274 165.899 89.0945C166.033 89.2615 166.158 89.4703 166.275 89.7208C166.392 89.9714 166.451 90.1801 166.451 90.3472C166.451 90.414 166.451 90.4808 166.451 90.5476C166.451 90.6144 166.417 90.6645 166.35 90.6979C165.649 91.5999 164.58 92.46 163.143 93.2785C161.707 94.0969 160.02 94.5061 158.083 94.5061C155.343 94.5061 153.272 93.7796 151.869 92.3264C150.466 90.8733 149.781 88.5099 149.815 85.2361L149.915 75.8158C149.915 75.6154 149.865 75.4484 149.765 75.3148C149.664 75.1812 149.514 75.1143 149.314 75.1143H146.207C146.073 75.1143 145.956 74.964 145.856 74.6634C145.756 74.3627 145.706 74.1456 145.706 74.012C145.706 73.8783 145.756 73.6696 145.856 73.3856C145.956 73.1017 146.057 72.9263 146.157 72.8595C148.028 71.8573 149.907 70.6798 151.794 69.3269C153.681 67.974 155.276 66.6294 156.579 65.2932C156.646 65.193 156.805 65.1011 157.055 65.0176C157.306 64.9341 157.515 64.8923 157.682 64.8923C157.916 64.8923 158.158 64.9341 158.408 65.0176C158.659 65.1011 158.784 65.193 158.784 65.2932L158.584 71.8573H166C166.2 71.8573 166.359 72.0745 166.476 72.5087C166.593 72.943 166.651 73.3105 166.651 73.6111ZM183.187 80.1251C184.59 80.7264 185.918 81.5198 187.17 82.5053C188.423 83.4907 189.049 84.8687 189.049 86.6392C189.049 89.0109 188.106 90.9485 186.218 92.4517C184.331 93.9549 181.884 94.7066 178.877 94.7066C176.739 94.7066 175.203 94.4727 174.267 94.005C173.332 93.5374 171.996 93.3035 170.259 93.3035C170.159 92.4684 170.025 91.2742 169.858 89.7208C169.691 88.1675 169.541 87.0567 169.407 86.3886C169.374 86.2884 169.499 86.1965 169.783 86.113C170.067 86.0295 170.292 85.9878 170.459 85.9878C170.693 85.9878 170.935 86.0295 171.186 86.113C171.436 86.1965 171.578 86.2884 171.612 86.3886C172.313 88.1591 173.299 89.5872 174.568 90.6729C175.837 91.7585 177.124 92.3014 178.426 92.3014C179.429 92.3014 180.18 92.0341 180.681 91.4996C181.182 90.9652 181.433 90.2302 181.433 89.2949C181.433 88.1925 180.798 87.3323 179.529 86.7143C178.259 86.0963 176.973 85.4867 175.67 84.8854C174.234 84.2507 172.906 83.4156 171.687 82.38C170.468 81.3444 169.858 79.9247 169.858 78.1208C169.858 76.0497 170.902 74.3126 172.99 72.9096C175.077 71.5066 177.357 70.8051 179.829 70.8051C181.433 70.8051 182.811 71.0055 183.963 71.4063C185.116 71.8072 186.26 72.0076 187.396 72.0076C187.396 72.7426 187.429 73.7447 187.496 75.0141C187.563 76.2835 187.63 77.3358 187.696 78.1709C187.696 78.2711 187.554 78.363 187.27 78.4465C186.986 78.53 186.761 78.5718 186.594 78.5718C186.36 78.5718 186.126 78.5384 185.892 78.4716C185.659 78.4048 185.525 78.3046 185.492 78.1709C185.124 76.6343 184.448 75.4233 183.462 74.5381C182.477 73.6529 181.45 73.2102 180.381 73.2102C179.378 73.2102 178.61 73.4107 178.076 73.8115C177.541 74.2124 177.274 74.8471 177.274 75.7156C177.274 76.8514 177.942 77.7367 179.278 78.3714C180.614 79.0061 181.917 79.5907 183.187 80.1251Z" fill="#C49C66"/>
  </g>
  <g filter="url(#filter1_d_1_1335)">
    <path d="M27.9982 93.1104C20.9507 89.4009 14.8525 83.2563 10.5157 75.5688C6.1781 67.8809 3.63757 59.2046 3.63757 49.7969C3.63757 40.5244 5.92969 31.9766 10.5157 24.1504C15.1009 16.3247 21.8069 9.78369 29.8491 5.42236C37.8903 1.06299 46.1243 0 56.1988 0C60.4453 0 66.5206 0.65332 73.6584 1.57178C89.3088 3.84619 88.269 3.13037 89.5421 3.88184C90.8152 4.63379 90.0167 10.417 89.9484 13.6958C89.8776 17.1006 90.0109 19.2441 90.1071 24.082C89.7721 25.4131 89.3111 25.2329 87.8658 25.2329C86.9625 25.2329 86.4196 24.8657 86.239 24.1304C84.613 17.8896 83.6956 14.9922 78.3191 10.9536C73.0295 6.979 67.9839 4.46729 56.1988 4.72217C44.4139 4.97754 36.5607 8.18994 29.355 17.0942C22.1486 25.9985 19.3618 36.8989 19.3618 49.7969C19.3618 62.3257 23.2305 71.1567 30.3693 79.9458C35.9125 86.7725 46.8036 94.7324 58.6823 94.6782C70.561 94.6245 80.1063 90.7476 79.8791 81.9473C79.6518 73.1479 66.5745 68.0249 55.6149 63.939C44.6553 59.8525 40.4673 54.853 37.9449 51.5259C35.4226 48.1973 32.8076 42.1519 32.8076 38.0977C32.8076 31.8633 35.3751 25.251 39.9117 20.9478C44.449 16.645 50.5812 13.9824 57.7055 14.0342C64.8297 14.0859 68.3101 16.1074 71.0104 17.7563C73.5729 19.3228 79.8936 23.811 79.9383 30.7114C79.9831 37.6113 76.1015 40.3477 71.7343 40.3477C67.368 40.3477 63.8286 36.751 63.8286 32.3154C63.8286 27.8794 67.1218 24.5215 71.0104 24.082C71.3969 24.082 71.3668 23.8057 70.5201 22.958C67.9978 20.4326 61.3016 18.7803 56.8588 18.7803C52.6428 18.7803 43.3619 21.0962 42.293 30.1616C41.2242 39.2275 47.4905 42.582 63.4815 49.7969C79.4725 57.0117 89.5676 61.4204 89.5192 75.5688C89.4623 92.1143 74.6211 99.5591 59.0146 99.5591C43.4081 99.5591 35.0458 96.8203 27.9982 93.1104Z" fill="#FFCF83"/>
  </g>
  <path d="M27.9982 93.1104C20.9507 89.4009 14.8525 83.2563 10.5157 75.5688C6.1781 67.8809 3.63757 59.2046 3.63757 49.7969C3.63757 40.5244 5.92969 31.9766 10.5157 24.1504C15.1009 16.3247 21.8069 9.78369 29.8491 5.42236C37.8903 1.06299 46.1243 0 56.1988 0C60.4453 0 66.5206 0.65332 73.6584 1.57178C89.3088 3.84619 88.269 3.13037 89.5421 3.88184C90.8152 4.63379 90.0167 10.417 89.9484 13.6958C89.8776 17.1006 90.0109 19.2441 90.1071 24.082C89.7721 25.4131 89.3111 25.2329 87.8658 25.2329C86.9625 25.2329 86.4196 24.8657 86.239 24.1304C84.613 17.8896 83.6956 14.9922 78.3191 10.9536C73.0295 6.979 67.9839 4.46729 56.1988 4.72217C44.4139 4.97754 36.5607 8.18994 29.355 17.0942C22.1486 25.9985 19.3618 36.8989 19.3618 49.7969C19.3618 62.3257 23.2305 71.1567 30.3693 79.9458C35.9125 86.7725 46.8036 94.7324 58.6823 94.6782C70.561 94.6245 80.1063 90.7476 79.8791 81.9473C79.6518 73.1479 66.5745 68.0249 55.6149 63.939C44.6553 59.8525 40.4673 54.853 37.9449 51.5259C35.4226 48.1973 32.8076 42.1519 32.8076 38.0977C32.8076 31.8633 35.3751 25.251 39.9117 20.9478C44.449 16.645 50.5812 13.9824 57.7055 14.0342C64.8297 14.0859 68.3101 16.1074 71.0104 17.7563C73.5729 19.3228 79.8936 23.811 79.9383 30.7114C79.9831 37.6113 76.1015 40.3477 71.7343 40.3477C67.368 40.3477 63.8286 36.751 63.8286 32.3154C63.8286 27.8794 67.1218 24.5215 71.0104 24.082C71.3969 24.082 71.3668 23.8057 70.5201 22.958C67.9978 20.4326 61.3016 18.7803 56.8588 18.7803C52.6428 18.7803 43.3619 21.0962 42.293 30.1616C41.2242 39.2275 47.4905 42.582 63.4815 49.7969C79.4725 57.0117 89.5676 61.4204 89.5192 75.5688C89.4623 92.1143 74.6211 99.5591 59.0146 99.5591C43.4081 99.5591 35.0458 96.8203 27.9982 93.1104Z" fill="#FFCF83"/>
  <mask id="mask0_1_1335" style="mask-type:alpha" maskUnits="userSpaceOnUse" x="3" y="0" width="88" height="100">
    <path d="M27.9982 93.1104C20.9507 89.4009 14.8525 83.2563 10.5157 75.5688C6.1781 67.8809 3.63757 59.2046 3.63757 49.7969C3.63757 40.5244 5.92969 31.9766 10.5157 24.1504C15.1009 16.3247 21.8069 9.78369 29.8491 5.42236C37.8903 1.06299 46.1243 0 56.1988 0C60.4453 0 66.5206 0.65332 73.6584 1.57178C89.3088 3.84619 88.269 3.13037 89.5421 3.88184C90.8152 4.63379 90.0167 10.417 89.9484 13.6958C89.8776 17.1006 90.0109 19.2441 90.1071 24.082C89.7721 25.4131 89.3111 25.2329 87.8658 25.2329C86.9625 25.2329 86.4196 24.8657 86.239 24.1304C84.613 17.8896 83.6956 14.9922 78.3191 10.9536C73.0295 6.979 67.9839 4.46729 56.1988 4.72217C44.4139 4.97754 36.5607 8.18994 29.355 17.0942C22.1486 25.9985 19.3618 36.8989 19.3618 49.7969C19.3618 62.3257 23.2305 71.1567 30.3693 79.9458C35.9125 86.7725 46.8036 94.7324 58.6823 94.6782C70.561 94.6245 80.1063 90.7476 79.8791 81.9473C79.6518 73.1479 66.5745 68.0249 55.6149 63.939C44.6553 59.8525 40.4673 54.853 37.9449 51.5259C35.4226 48.1973 32.8076 42.1519 32.8076 38.0977C32.8076 31.8633 35.3751 25.251 39.9117 20.9478C44.449 16.645 50.5812 13.9824 57.7055 14.0342C64.8297 14.0859 68.3101 16.1074 71.0104 17.7563C73.5729 19.3228 79.8936 23.811 79.9383 30.7114C79.9831 37.6113 76.1015 40.3477 71.7343 40.3477C67.368 40.3477 63.8286 36.751 63.8286 32.3154C63.8286 27.8794 67.1218 24.5215 71.0104 24.082C71.3969 24.082 71.3668 23.8057 70.5201 22.958C67.9978 20.4326 61.3016 18.7803 56.8588 18.7803C52.6428 18.7803 43.3619 21.0962 42.293 30.1616C41.2242 39.2275 47.4905 42.582 63.4815 49.7969C79.4725 57.0117 89.5676 61.4204 89.5192 75.5688C89.4623 92.1143 74.6211 99.5591 59.0146 99.5591C43.4081 99.5591 35.0458 96.8203 27.9982 93.1104Z" fill="#FFCF83"/>
  </mask>
  <g mask="url(#mask0_1_1335)">
    <ellipse cx="72.9346" cy="57.7639" rx="17.6105" ry="17.0925" fill="url(#paint2_radial_1_1335)"/>
    <circle cx="43.9289" cy="35.492" r="14.5027" fill="url(#paint3_radial_1_1335)"/>
    <circle cx="85.8833" cy="9.07653" r="11.913" fill="url(#paint4_radial_1_1335)"/>
    <circle cx="70.9515" cy="33.3315" r="9.23438" fill="url(#paint5_radial_1_1335)"/>
    <ellipse opacity="0.7" cx="25.6569" cy="3.21461" rx="49.0628" ry="14.5374" transform="rotate(144 25.6569 3.21461)" fill="url(#paint6_radial_1_1335)"/>
    <ellipse opacity="0.7" cx="95.9584" cy="14.2114" rx="23.009" ry="14.5374" transform="rotate(120 95.9584 14.2114)" fill="url(#paint7_radial_1_1335)"/>
    <ellipse opacity="0.7" cx="78.3638" cy="-5.58274" rx="23.009" ry="14.5374" transform="rotate(-173 78.3638 -5.58274)" fill="url(#paint8_radial_1_1335)"/>
    <ellipse opacity="0.5" cx="74.5446" cy="57.0806" rx="23.4463" ry="5.35027" transform="rotate(32 74.5446 57.0806)" fill="url(#paint9_radial_1_1335)"/>
    <ellipse cx="76.2093" cy="50.1862" rx="15.7338" ry="6.59806" transform="rotate(19 76.2093 50.1862)" fill="url(#paint10_radial_1_1335)"/>
  </g>
  <path d="M12.4477 52.6361C9.71691 23.9312 27.7387 11.5736 37.4269 6.26814C47.1151 0.962692 63.5231 2.58429 74.0023 4.77018C84.4813 6.95621 85.373 10.4698 86.8842 13.6844C88.3952 16.899 87.7801 22.8875 88.1874 24.2958C88.3881 24.9898 89.1579 24.9383 89.8871 24.7076C89.5514 25.3488 89.0254 25.2329 87.8659 25.2329C86.9626 25.2329 86.4198 24.8657 86.2392 24.1307C84.6132 17.8894 83.6956 14.9922 78.3192 10.9542C73.0296 6.9792 67.9839 4.46717 56.1989 4.72252C44.4139 4.97786 36.5608 8.1903 29.3552 17.0945C22.1487 25.9988 19.362 36.899 19.362 49.797C19.362 62.326 23.2307 71.1574 30.3694 79.946C35.9127 86.7725 46.8037 94.7327 58.6825 94.6786C70.5611 94.6247 80.1063 90.7478 79.8792 81.9478C79.652 73.1478 66.5746 68.0252 55.615 63.9389C44.6554 59.8526 40.4673 54.8532 37.9451 51.526C35.4227 48.1975 32.8077 42.1522 32.8077 38.0978C32.8077 31.8634 35.3752 25.2514 39.9118 20.9481C44.4491 16.6452 50.5814 13.9827 57.7056 14.0343C64.8298 14.0861 68.3101 16.1075 71.0105 17.7567C73.573 19.3227 79.8936 23.8114 79.9384 30.7115C79.9481 32.2086 79.7729 33.5098 79.4481 34.6295C79.7465 32.0099 79.7862 29.0365 78.8218 27.3416C75.7682 21.9747 69.6955 16.4758 59.8269 16.2407C43.4066 15.8494 37.752 25.7541 38.007 35.5259C38.2622 45.2978 48.9308 53.0854 60.56 57.239C72.1894 61.3926 82.2922 65.7315 84.2581 74.7126C86.424 84.7726 79.7197 97.0664 58.2665 97.8894C57.7781 97.9081 57.2932 97.9174 56.8049 97.9174C35.8418 97.9154 15.1163 80.6875 12.4477 52.6361Z" fill="#C49C66"/>
  <mask id="mask1_1_1335" style="mask-type:alpha" maskUnits="userSpaceOnUse" x="12" y="2" width="78" height="96">
    <path d="M12.4477 52.6361C9.71691 23.9312 27.7387 11.5736 37.4269 6.26814C47.1151 0.962692 63.5231 2.58429 74.0023 4.77018C84.4813 6.95621 85.373 10.4698 86.8842 13.6844C88.3952 16.899 87.7801 22.8875 88.1874 24.2958C88.3881 24.9898 89.1579 24.9383 89.8871 24.7076C89.5514 25.3488 89.0254 25.2329 87.8659 25.2329C86.9626 25.2329 86.4198 24.8657 86.2392 24.1307C84.6132 17.8894 83.6956 14.9922 78.3192 10.9542C73.0296 6.9792 67.9839 4.46717 56.1989 4.72252C44.4139 4.97786 36.5608 8.1903 29.3552 17.0945C22.1487 25.9988 19.362 36.899 19.362 49.797C19.362 62.326 23.2307 71.1574 30.3694 79.946C35.9127 86.7725 46.8037 94.7327 58.6825 94.6786C70.5611 94.6247 80.1063 90.7478 79.8792 81.9478C79.652 73.1478 66.5746 68.0252 55.615 63.9389C44.6554 59.8526 40.4673 54.8532 37.9451 51.526C35.4227 48.1975 32.8077 42.1522 32.8077 38.0978C32.8077 31.8634 35.3752 25.2514 39.9118 20.9481C44.4491 16.6452 50.5814 13.9827 57.7056 14.0343C64.8298 14.0861 68.3101 16.1075 71.0105 17.7567C73.573 19.3227 79.8936 23.8114 79.9384 30.7115C79.9481 32.2086 79.7729 33.5098 79.4481 34.6295C79.7465 32.0099 79.7862 29.0365 78.8218 27.3416C75.7682 21.9747 69.6955 16.4758 59.8269 16.2407C43.4066 15.8494 37.752 25.7541 38.007 35.5259C38.2622 45.2978 48.9308 53.0854 60.56 57.239C72.1894 61.3926 82.2922 65.7315 84.2581 74.7126C86.424 84.7726 79.7197 97.0664 58.2665 97.8894C57.7781 97.9081 57.2932 97.9174 56.8049 97.9174C35.8418 97.9154 15.1163 80.6875 12.4477 52.6361Z" fill="#C49C66"/>
  </mask>
  <g mask="url(#mask1_1_1335)">
    <ellipse cx="50.0561" cy="112.079" rx="22.6623" ry="35.0476" transform="rotate(-56 50.0561 112.079)" fill="url(#paint11_radial_1_1335)"/>
    <ellipse cx="81.0588" cy="50.7946" rx="33.667" ry="12.8577" transform="rotate(16 81.0588 50.7946)" fill="url(#paint12_radial_1_1335)"/>
    <ellipse cx="41.3799" cy="99.6208" rx="19.3955" ry="21.2414" transform="rotate(16 41.3799 99.6208)" fill="url(#paint13_radial_1_1335)"/>
    <ellipse cx="69.9346" cy="19.6118" rx="13.6105" ry="14.0925" fill="url(#paint14_radial_1_1335)"/>
  </g>
  <defs>
    <filter id="filter0_d_1_1335" x="98.7579" y="4.25195" width="121.104" height="93.0548" filterUnits="userSpaceOnUse" color-interpolation-filters="sRGB">
      <feFlood flood-opacity="0" result="BackgroundImageFix"/>
      <feColorMatrix in="SourceAlpha" type="matrix" values="0 0 0 0 0 0 0 0 0 0 0 0 0 0 0 0 0 0 127 0" result="hardAlpha"/>
      <feOffset dy="1"/>
      <feGaussianBlur stdDeviation="0.75"/>
      <feComposite in2="hardAlpha" operator="out"/>
      <feColorMatrix type="matrix" values="0 0 0 0 0 0 0 0 0 0 0 0 0 0 0 0 0 0 0.501961 0"/>
      <feBlend mode="normal" in2="BackgroundImageFix" result="effect1_dropShadow_1_1335"/>
      <feBlend mode="normal" in="SourceGraphic" in2="effect1_dropShadow_1_1335" result="shape"/>
    </filter>
    <filter id="filter1_d_1_1335" x="0.637573" y="0" width="92.6205" height="105.559" filterUnits="userSpaceOnUse" color-interpolation-filters="sRGB">
      <feFlood flood-opacity="0" result="BackgroundImageFix"/>
      <feColorMatrix in="SourceAlpha" type="matrix" values="0 0 0 0 0 0 0 0 0 0 0 0 0 0 0 0 0 0 127 0" result="hardAlpha"/>
      <feOffset dy="3"/>
      <feGaussianBlur stdDeviation="1.5"/>
      <feComposite in2="hardAlpha" operator="out"/>
      <feColorMatrix type="matrix" values="0 0 0 0 0 0 0 0 0 0 0 0 0 0 0 0 0 0 0.501961 0"/>
      <feBlend mode="normal" in2="BackgroundImageFix" result="effect1_dropShadow_1_1335"/>
      <feBlend mode="normal" in="SourceGraphic" in2="effect1_dropShadow_1_1335" result="shape"/>
    </filter>
    <linearGradient id="paint0_linear_1_1335" x1="120.883" y1="1.54588" x2="120.883" y2="106.282" gradientUnits="userSpaceOnUse">
      <stop offset="1" stop-color="#FFE9A0"/>
      <stop offset="0.76471" stop-color="#D08200"/>
      <stop offset="0.3451" stop-color="#FFC335"/>
      <stop stop-color="#843C0C"/>
    </linearGradient>
    <linearGradient id="paint1_linear_1_1335" x1="110.696" y1="-13.5497" x2="110.696" y2="104.955" gradientUnits="userSpaceOnUse">
      <stop offset="1" stop-color="#91702B"/>
      <stop offset="0.970699" stop-color="#9E7C31"/>
      <stop offset="0.915516" stop-color="#C39E41"/>
      <stop offset="0.842745" stop-color="#FCD45A"/>
      <stop offset="0.808041" stop-color="#E6C050"/>
      <stop offset="0.736704" stop-color="#B08D39"/>
      <stop offset="0.698039" stop-color="#91702B"/>
      <stop offset="0.64781" stop-color="#C9B669"/>
      <stop offset="0.604902" stop-color="#FDF5A2"/>
      <stop offset="0.57618" stop-color="#E1D384"/>
      <stop offset="0.513164" stop-color="#9D7F38"/>
      <stop offset="0.501961" stop-color="#91702B"/>
      <stop offset="0.481428" stop-color="#9E7C31"/>
      <stop offset="0.442759" stop-color="#C39E41"/>
      <stop offset="0.391765" stop-color="#FCD45A"/>
      <stop offset="0.332579" stop-color="#C7A242"/>
      <stop offset="0.266667" stop-color="#91702B"/>
      <stop offset="0.248021" stop-color="#A68A42"/>
      <stop offset="0.204001" stop-color="#D4C375"/>
      <stop offset="0.17135" stop-color="#F2E795"/>
      <stop offset="0.153922" stop-color="#FDF5A2"/>
      <stop offset="0.145833" stop-color="#F5EB99"/>
      <stop offset="0.0979076" stop-color="#CDBA6C"/>
      <stop offset="0.0559102" stop-color="#B0964B"/>
      <stop offset="0.0218549" stop-color="#9E8037"/>
      <stop stop-color="#987830"/>
    </linearGradient>
    <radialGradient id="paint2_radial_1_1335" cx="0" cy="0" r="1" gradientUnits="userSpaceOnUse" gradientTransform="translate(55.3241 40.6714) scale(17.6105 17.0925)">
      <stop offset="1" stop-color="#FFF7B9" stop-opacity="0"/>
      <stop stop-color="white"/>
    </radialGradient>
    <radialGradient id="paint3_radial_1_1335" cx="0" cy="0" r="1" gradientUnits="userSpaceOnUse" gradientTransform="translate(29.4261 20.9893) scale(14.5027)">
      <stop offset="1" stop-color="#FFF7B9" stop-opacity="0"/>
      <stop stop-color="#FFF7B9"/>
    </radialGradient>
    <radialGradient id="paint4_radial_1_1335" cx="0" cy="0" r="1" gradientUnits="userSpaceOnUse" gradientTransform="translate(73.9703 -2.83643) scale(11.913)">
      <stop offset="1" stop-color="white" stop-opacity="0"/>
      <stop stop-color="white"/>
    </radialGradient>
    <radialGradient id="paint5_radial_1_1335" cx="0" cy="0" r="1" gradientUnits="userSpaceOnUse" gradientTransform="translate(60.7537 26.6931) scale(9.23438)">
      <stop offset="1" stop-color="#DC8E31"/>
      <stop offset="0.876847" stop-color="#6C4D2D"/>
      <stop offset="0.763547" stop-color="#916230"/>
      <stop offset="0.162562" stop-color="#FFFCB5"/>
      <stop stop-color="white"/>
    </radialGradient>
    <radialGradient id="paint6_radial_1_1335" cx="0" cy="0" r="1" gradientUnits="userSpaceOnUse" gradientTransform="translate(-23.406 -9.8951) scale(49.0628 14.5374)">
      <stop offset="1" stop-color="#2A201A" stop-opacity="0"/>
      <stop stop-color="#2A201A"/>
    </radialGradient>
    <radialGradient id="paint7_radial_1_1335" cx="0" cy="0" r="1" gradientUnits="userSpaceOnUse" gradientTransform="translate(72.9494 1.10165) scale(23.009 14.5374)">
      <stop offset="1" stop-color="#2A201A" stop-opacity="0"/>
      <stop stop-color="#2A201A"/>
    </radialGradient>
    <radialGradient id="paint8_radial_1_1335" cx="0" cy="0" r="1" gradientUnits="userSpaceOnUse" gradientTransform="translate(55.3548 -18.6924) scale(23.009 14.5374)">
      <stop offset="1" stop-color="#2A201A" stop-opacity="0"/>
      <stop stop-color="#2A201A"/>
    </radialGradient>
    <radialGradient id="paint9_radial_1_1335" cx="0" cy="0" r="1" gradientUnits="userSpaceOnUse" gradientTransform="translate(51.0983 52.2558) scale(23.4463 5.35027)">
      <stop offset="1" stop-color="#2A201A" stop-opacity="0"/>
      <stop stop-color="#2A201A"/>
    </radialGradient>
    <radialGradient id="paint10_radial_1_1335" cx="0" cy="0" r="1" gradientUnits="userSpaceOnUse" gradientTransform="translate(60.4755 43.5882) scale(15.7338 6.59806)">
      <stop offset="1" stop-color="#FFD593" stop-opacity="0"/>
      <stop stop-color="#FFCF83"/>
    </radialGradient>
    <radialGradient id="paint11_radial_1_1335" cx="0" cy="0" r="1" gradientUnits="userSpaceOnUse" gradientTransform="translate(27.3938 77.0312) scale(22.6623 35.0476)">
      <stop offset="1" stop-color="#FFB100" stop-opacity="0"/>
      <stop offset="0.630542" stop-color="#FFCD6F" stop-opacity="0.501961"/>
      <stop stop-color="white"/>
    </radialGradient>
    <radialGradient id="paint12_radial_1_1335" cx="0" cy="0" r="1" gradientUnits="userSpaceOnUse" gradientTransform="translate(47.3918 39.1996) scale(33.667 12.8577)">
      <stop offset="1" stop-color="#2A201A" stop-opacity="0"/>
      <stop stop-color="#2A201A"/>
    </radialGradient>
    <radialGradient id="paint13_radial_1_1335" cx="0" cy="0" r="1" gradientUnits="userSpaceOnUse" gradientTransform="translate(21.9844 80.4655) scale(19.3955 21.2414)">
      <stop offset="1" stop-color="#2A201A" stop-opacity="0"/>
      <stop stop-color="#2A201A"/>
    </radialGradient>
    <radialGradient id="paint14_radial_1_1335" cx="0" cy="0" r="1" gradientUnits="userSpaceOnUse" gradientTransform="translate(56.3241 5.51929) scale(13.6105 14.0925)">
      <stop offset="1" stop-color="#FFF7B9" stop-opacity="0"/>
      <stop stop-color="white"/>
    </radialGradient>
  </defs>
</svg>