<svg xmlns="http://www.w3.org/2000/svg" width="24" height="24" viewBox="0 0 24 24" fill="none">
  <path d="M0.000488281 12C0.000488281 5.37256 5.37305 0 12.0005 0C18.6279 0 24.0005 5.37256 24.0005 12C24.0005 18.6274 18.6279 24 12.0005 24C5.37305 24 0.000488281 18.6274 0.000488281 12ZM8.89122 19.6597C9.21205 19.5267 9.42117 19.2135 9.42103 18.8663V16.2902H11.1384C11.6127 16.2902 11.9971 15.9057 11.9971 15.4314C11.9971 14.9572 11.6127 14.5727 11.1384 14.5727H8.56233C8.08808 14.5727 7.70363 14.9572 7.70363 15.4314V16.7933L4.62434 13.714L7.70363 10.6355V11.9966C7.70363 12.4709 8.08808 12.8553 8.56233 12.8553H13.7145V15.4315C13.7143 15.6368 13.7877 15.8354 13.9214 15.9913C14.2301 16.3512 14.7723 16.3928 15.1323 16.0841L21.1432 10.9319C21.1767 10.9031 21.208 10.8718 21.2367 10.8383C21.5452 10.4781 21.5033 9.936 21.1431 9.62749L15.1322 4.47532C14.9766 4.34183 14.7783 4.26842 14.5732 4.26842C14.099 4.26838 13.7145 4.65274 13.7145 5.12703V7.70314H11.9971C11.5228 7.70314 11.1384 8.08759 11.1384 8.56184C11.1384 9.03609 11.5228 9.42054 11.9971 9.42054H14.5732C15.0474 9.42054 15.4319 9.03609 15.4319 8.56184V6.99469L19.2644 10.2794L15.4319 13.5656V11.9967C15.4319 11.5225 15.0475 11.138 14.5732 11.138H9.42103V8.56193C9.42099 8.33425 9.3306 8.11598 9.16962 7.955C8.83434 7.61959 8.29063 7.6195 7.95522 7.95478L2.80305 13.107C2.80283 13.1072 2.80328 13.1068 2.80305 13.107C2.46787 13.4425 2.46751 13.9869 2.80305 14.322L7.95522 19.4742C8.11638 19.6349 8.33469 19.7251 8.56233 19.725C8.67522 19.7253 8.78702 19.7031 8.89122 19.6597Z" fill="#B58362"/>
</svg>