<svg xmlns="http://www.w3.org/2000/svg" xmlns:xlink="http://www.w3.org/1999/xlink" width="223.725" height="117.559" viewBox="0 0 223.725 117.559">
  <defs>
    <linearGradient id="linear-gradient" x1="0.175" y1="-0.036" x2="0.578" y2="1.127" gradientUnits="objectBoundingBox">
      <stop offset="0" stop-color="#843c0c"/>
      <stop offset="0.345" stop-color="#ffc335"/>
      <stop offset="0.765" stop-color="#d08200"/>
      <stop offset="1" stop-color="#ffe9a0"/>
    </linearGradient>
    <filter id="패스_410675" x="105.621" y="10.752" width="118.104" height="90.055" filterUnits="userSpaceOnUse">
      <feOffset dx="1" dy="-0.5" input="SourceAlpha"/>
      <feGaussianBlur result="blur"/>
      <feFlood flood-color="#ca8738" result="color"/>
      <feComposite operator="out" in="SourceGraphic" in2="blur"/>
      <feComposite operator="in" in="color"/>
      <feComposite operator="in" in2="SourceGraphic"/>
    </filter>
    <linearGradient id="linear-gradient-2" x1="0.088" y1="-0.203" x2="0.681" y2="1.113" gradientUnits="objectBoundingBox">
      <stop offset="0" stop-color="#987830"/>
      <stop offset="0.022" stop-color="#9e8037"/>
      <stop offset="0.056" stop-color="#b0964b"/>
      <stop offset="0.098" stop-color="#cdba6c"/>
      <stop offset="0.146" stop-color="#f5eb99"/>
      <stop offset="0.154" stop-color="#fdf5a2"/>
      <stop offset="0.171" stop-color="#f2e795"/>
      <stop offset="0.204" stop-color="#d4c375"/>
      <stop offset="0.248" stop-color="#a68a42"/>
      <stop offset="0.267" stop-color="#91702b"/>
      <stop offset="0.333" stop-color="#c7a242"/>
      <stop offset="0.392" stop-color="#fcd45a"/>
      <stop offset="0.443" stop-color="#c39e41"/>
      <stop offset="0.481" stop-color="#9e7c31"/>
      <stop offset="0.502" stop-color="#91702b"/>
      <stop offset="0.513" stop-color="#9d7f38"/>
      <stop offset="0.576" stop-color="#e1d384"/>
      <stop offset="0.605" stop-color="#fdf5a2"/>
      <stop offset="0.648" stop-color="#c9b669"/>
      <stop offset="0.698" stop-color="#91702b"/>
      <stop offset="0.737" stop-color="#b08d39"/>
      <stop offset="0.808" stop-color="#e6c050"/>
      <stop offset="0.843" stop-color="#fcd45a"/>
      <stop offset="0.916" stop-color="#c39e41"/>
      <stop offset="0.971" stop-color="#9e7c31"/>
      <stop offset="1" stop-color="#91702b"/>
    </linearGradient>
    <filter id="패스_414972" x="0" y="0" width="104.621" height="117.559" filterUnits="userSpaceOnUse">
      <feOffset dy="3" input="SourceAlpha"/>
      <feGaussianBlur stdDeviation="3" result="blur-2"/>
      <feFlood flood-opacity="0.502"/>
      <feComposite operator="in" in2="blur-2"/>
      <feComposite in="SourceGraphic"/>
    </filter>
    <clipPath id="clip-path">
      <path id="패스_414968" data-name="패스 414968" d="M762.361,4562.063a44.1,44.1,0,0,1-17.482-17.542A52.033,52.033,0,0,1,738,4518.749a50.182,50.182,0,0,1,26.211-44.375c8.041-4.359,16.275-5.422,26.35-5.422a153.886,153.886,0,0,1,17.46,1.572c15.65,2.274,14.611,1.559,15.884,2.31s.475,6.535.406,9.814c-.071,3.4.062,5.548.159,10.386-.335,1.331-.8,1.151-2.241,1.151a1.455,1.455,0,0,1-1.627-1.1c-1.626-6.241-2.543-9.138-7.92-13.177-5.29-3.975-10.335-6.486-22.12-6.231s-19.638,3.468-26.844,12.372-9.993,19.8-9.993,32.7c0,12.529,3.869,21.36,11.008,30.149,5.543,6.827,16.434,14.787,28.313,14.732s21.424-3.931,21.2-12.731-13.3-13.922-24.264-18.008-15.148-9.086-17.67-12.413-5.137-9.374-5.137-13.428a24.222,24.222,0,0,1,7.1-17.15,25.228,25.228,0,0,1,17.794-6.914c7.124.052,10.6,2.073,13.3,3.722,2.563,1.566,8.883,6.055,8.928,12.955s-3.837,9.636-8.2,9.636a7.97,7.97,0,0,1-7.906-8.032,8.2,8.2,0,0,1,7.182-8.233c.386,0,.356-.276-.49-1.124-2.522-2.525-9.218-4.178-13.661-4.178-4.216,0-13.5,2.316-14.566,11.381s5.2,12.42,21.188,19.635,26.086,11.624,26.038,25.772c-.057,16.545-14.9,23.99-30.5,23.99S769.409,4565.772,762.361,4562.063Z" transform="translate(-738 -4468.952)" fill="#ffcf83"/>
    </clipPath>
    <radialGradient id="radial-gradient" cx="0.5" cy="0.5" r="0.5" gradientUnits="objectBoundingBox">
      <stop offset="0" stop-color="#fff"/>
      <stop offset="1" stop-color="#fff7b9" stop-opacity="0"/>
    </radialGradient>
    <radialGradient id="radial-gradient-2" cx="0.5" cy="0.5" r="0.5" gradientUnits="objectBoundingBox">
      <stop offset="0" stop-color="#fff7b9"/>
      <stop offset="1" stop-color="#fff7b9" stop-opacity="0"/>
    </radialGradient>
    <radialGradient id="radial-gradient-3" cx="0.5" cy="0.5" r="0.5" gradientUnits="objectBoundingBox">
      <stop offset="0" stop-color="#fff"/>
      <stop offset="1" stop-color="#fff" stop-opacity="0"/>
    </radialGradient>
    <radialGradient id="radial-gradient-4" cx="0.552" cy="0.359" r="0.543" gradientTransform="translate(0 -0.013) scale(1 1.036)" gradientUnits="objectBoundingBox">
      <stop offset="0" stop-color="#fff"/>
      <stop offset="0.163" stop-color="#fffcb5"/>
      <stop offset="0.764" stop-color="#916230"/>
      <stop offset="0.877" stop-color="#6c4d2d"/>
      <stop offset="1" stop-color="#dc8e31"/>
    </radialGradient>
    <radialGradient id="radial-gradient-5" cx="0.5" cy="0.451" r="0.458" gradientTransform="translate(0 0.04) scale(1 0.912)" gradientUnits="objectBoundingBox">
      <stop offset="0" stop-color="#2a201a"/>
      <stop offset="1" stop-color="#2a201a" stop-opacity="0"/>
    </radialGradient>
    <radialGradient id="radial-gradient-10" cy="0.451" r="0.5" gradientTransform="matrix(1, 0, 0, 1, 0, 0)" xlink:href="#radial-gradient-5"/>
    <radialGradient id="radial-gradient-11" cx="0.5" cy="0.5" r="0.386" gradientTransform="translate(0 -0.021) scale(1 1.043)" gradientUnits="objectBoundingBox">
      <stop offset="0" stop-color="#ffcf83"/>
      <stop offset="1" stop-color="#ffd593" stop-opacity="0"/>
    </radialGradient>
    <clipPath id="clip-path-2">
      <path id="교차_33" data-name="교차 33" d="M.278,49.926C-2.452,21.222,15.569,8.864,25.258,3.558s26.1-3.684,36.575-1.5S73.2,7.76,74.715,10.975s.9,9.2,1.3,10.611c.2.694.971.643,1.7.412-.336.641-.862.525-2.021.525a1.455,1.455,0,0,1-1.627-1.1c-1.626-6.241-2.544-9.139-7.92-13.177C60.86,4.269,55.815,1.757,44.03,2.013S24.392,5.481,17.186,14.385s-9.993,19.8-9.993,32.7c0,12.529,3.869,21.36,11.007,30.149,5.543,6.827,16.434,14.787,28.313,14.733s21.424-3.931,21.2-12.731-13.3-13.923-24.264-18.009S28.3,52.144,25.776,48.816s-5.137-9.374-5.137-13.428a24.221,24.221,0,0,1,7.1-17.15,25.227,25.227,0,0,1,17.794-6.914c7.124.052,10.6,2.073,13.3,3.722C61.4,16.613,67.724,21.1,67.769,28a13.736,13.736,0,0,1-.49,3.918c.3-2.62.338-5.593-.626-7.288a21.755,21.755,0,0,0-18.995-11.1c-16.42-.391-22.075,9.513-21.82,19.285s10.924,17.56,22.553,21.713S70.123,63.022,72.089,72C74.255,82.063,67.55,94.357,46.1,95.18c-.488.019-.973.028-1.462.028C23.672,95.206,2.947,77.978.278,49.926Z" transform="translate(0 0)" fill="#c49c66"/>
    </clipPath>
    <radialGradient id="radial-gradient-12" cx="0.5" cy="0.5" r="0.5" gradientUnits="objectBoundingBox">
      <stop offset="0" stop-color="#fff"/>
      <stop offset="0.631" stop-color="#ffcd6f" stop-opacity="0.502"/>
      <stop offset="1" stop-color="#ffb100" stop-opacity="0"/>
    </radialGradient>
    <radialGradient id="radial-gradient-14" cy="0.451" r="0.446" gradientTransform="translate(0 -0.013) scale(1 1.028)" xlink:href="#radial-gradient-5"/>
  </defs>
  <g id="그룹_249335" data-name="그룹 249335" transform="translate(-9.543 -32.619)">
    <g data-type="innerShadowGroup">
      <path id="패스_410675-2" data-name="패스 410675" d="M16.285-104.673a2.4,2.4,0,0,1-.125.7q-.125.4-.276.4-1.553,0-3.883-.15t-4.084-.15q-1.7,0-3.758.15t-3.558.15q-.15,0-.276-.4a2.4,2.4,0,0,1-.125-.7,2.3,2.3,0,0,1,.125-.651q.125-.4.276-.451a4.231,4.231,0,0,0,2.631-1q.777-.8.777-3.207v-20.695a3.406,3.406,0,0,0-.752-2.631A5.1,5.1,0,0,0,.6-134.137q-.15-.05-.276-.426a2.061,2.061,0,0,1-.125-.626,2.061,2.061,0,0,1,.125-.626q.125-.376.276-.376a42.1,42.1,0,0,0,5.286-1.629q2.881-1.077,4.785-1.979a3.394,3.394,0,0,1,.5-.251,1.578,1.578,0,0,1,.6-.15,1.38,1.38,0,0,1,.877.225q.276.225.225.426-.1,1.754-.251,4.309t-.15,4.159v21.1a4.761,4.761,0,0,0,.8,3.207,3.914,3.914,0,0,0,2.606,1q.15,0,.276.426A2.553,2.553,0,0,1,16.285-104.673Zm27.058-1.3a.824.824,0,0,0-.05.251q0,.1-.15.2a6.783,6.783,0,0,1-2.956,1.8,12.352,12.352,0,0,1-4.109.7,5.542,5.542,0,0,1-3.332-.927,4.3,4.3,0,0,1-1.679-2.48,7.009,7.009,0,0,1-2.931,2.581,10.373,10.373,0,0,1-4.384.827,8.6,8.6,0,0,1-4.835-1.3,4.415,4.415,0,0,1-1.979-3.959q0-2.956,3.257-4.81t10.924-3.558l.15-4.911a3.25,3.25,0,0,0-.451-2.054,1.94,1.94,0,0,0-1.5-.5,4.585,4.585,0,0,0-1.929.4,1.8,1.8,0,0,0-.977,1.654,7.621,7.621,0,0,1-1.3,4.309,3.907,3.907,0,0,1-3.107,1.2,3.627,3.627,0,0,1-2.831-1.077,3.709,3.709,0,0,1-.977-2.581q0-2.505,4.084-4.61a19.666,19.666,0,0,1,9.145-2.1q4.61,0,6.289,2.3a9.779,9.779,0,0,1,1.528,6.264l-.251,8.719q-.1,1.754.5,2.28a1.792,1.792,0,0,0,1.152.526,2.406,2.406,0,0,0,.852-.15,2.4,2.4,0,0,0,.7-.4q.2-.15.676.376A1.56,1.56,0,0,1,43.343-105.976ZM31.016-114.8a9.57,9.57,0,0,0-4.259,1.9,4.471,4.471,0,0,0-1.3,3.457,2.883,2.883,0,0,0,.676,2,2.4,2.4,0,0,0,1.879.752,2.958,2.958,0,0,0,1.829-.626,3.346,3.346,0,0,0,1.027-2.38Zm27.66-2.656a17.715,17.715,0,0,1,3.984,2.38,4.961,4.961,0,0,1,1.879,4.134,7.1,7.1,0,0,1-2.831,5.813,11.425,11.425,0,0,1-7.341,2.255,11.031,11.031,0,0,1-4.61-.7,9.177,9.177,0,0,0-4.009-.7q-.15-1.253-.4-3.583t-.451-3.332q-.05-.15.376-.276a2.553,2.553,0,0,1,.676-.125,2.293,2.293,0,0,1,.727.125q.376.125.426.276a10.7,10.7,0,0,0,2.956,4.284,5.933,5.933,0,0,0,3.858,1.629,2.947,2.947,0,0,0,2.255-.8,3.1,3.1,0,0,0,.752-2.2,2.849,2.849,0,0,0-1.9-2.581q-1.9-.927-3.858-1.829a16.312,16.312,0,0,1-3.984-2.505,5.292,5.292,0,0,1-1.829-4.259,6.156,6.156,0,0,1,3.132-5.211,12.013,12.013,0,0,1,6.84-2.1,12.628,12.628,0,0,1,4.134.6,10.4,10.4,0,0,0,3.432.6q0,1.1.1,3.006t.2,3.157q0,.15-.426.276a2.553,2.553,0,0,1-.676.125,2.543,2.543,0,0,1-.7-.1q-.351-.1-.4-.3a6.879,6.879,0,0,0-2.029-3.633,4.579,4.579,0,0,0-3.082-1.328,3.79,3.79,0,0,0-2.3.6,2.225,2.225,0,0,0-.8,1.9,2.935,2.935,0,0,0,2,2.656Q56.772-118.253,58.676-117.451Zm23.8,0a17.715,17.715,0,0,1,3.984,2.38,4.961,4.961,0,0,1,1.879,4.134,7.1,7.1,0,0,1-2.831,5.813,11.425,11.425,0,0,1-7.341,2.255,11.031,11.031,0,0,1-4.61-.7,9.177,9.177,0,0,0-4.009-.7q-.15-1.253-.4-3.583t-.451-3.332q-.05-.15.376-.276a2.553,2.553,0,0,1,.676-.125,2.293,2.293,0,0,1,.727.125q.376.125.426.276a10.7,10.7,0,0,0,2.956,4.284,5.933,5.933,0,0,0,3.858,1.629,2.947,2.947,0,0,0,2.255-.8,3.1,3.1,0,0,0,.752-2.2,2.849,2.849,0,0,0-1.9-2.581q-1.9-.927-3.858-1.829a16.312,16.312,0,0,1-3.984-2.505,5.292,5.292,0,0,1-1.829-4.259,6.156,6.156,0,0,1,3.132-5.211,12.013,12.013,0,0,1,6.84-2.1,12.628,12.628,0,0,1,4.134.6,10.4,10.4,0,0,0,3.432.6q0,1.1.1,3.006t.2,3.157q0,.15-.426.276a2.553,2.553,0,0,1-.676.125,2.543,2.543,0,0,1-.7-.1q-.351-.1-.4-.3a6.879,6.879,0,0,0-2.029-3.633,4.579,4.579,0,0,0-3.082-1.328,3.79,3.79,0,0,0-2.3.6,2.225,2.225,0,0,0-.8,1.9,2.935,2.935,0,0,0,2,2.656Q80.573-118.253,82.477-117.451Zm35.827-7.416a2.293,2.293,0,0,1-.125.727q-.125.376-.276.376a5.12,5.12,0,0,0-2.806,1.027,6.392,6.392,0,0,0-1.8,2.43l-9.42,20.244a48.868,48.868,0,0,1-4.41,7.942,5.4,5.4,0,0,1-4.51,2.23,4.526,4.526,0,0,1-3.057-.952A3.205,3.205,0,0,1,90.8-93.4a3.538,3.538,0,0,1,1.1-2.631,3.785,3.785,0,0,1,2.756-1.077,3.952,3.952,0,0,1,2.079.476,2.78,2.78,0,0,0,1.428.476q.6,0,1.378-.927a20.875,20.875,0,0,0,2.23-4.334l.7-1.6-8.719-17.287a8.348,8.348,0,0,0-1.629-2.43,4.977,4.977,0,0,0-2.781-1.027q-.15-.05-.276-.4a2.074,2.074,0,0,1-.125-.7,2.293,2.293,0,0,1,.125-.727q.125-.376.276-.376,1.553,0,3.608.15t3.808.15q1.754,0,3.933-.15t3.733-.15q.15,0,.276.4a2.4,2.4,0,0,1,.125.7,2.553,2.553,0,0,1-.125.676q-.125.426-.276.426a4.956,4.956,0,0,0-1.829.451,1.162,1.162,0,0,0-.676,1.1,2.744,2.744,0,0,0,.175,1q.175.451.376.9l4.009,8.468,3.758-8.468q.2-.5.276-.752a2.555,2.555,0,0,0,.075-.7,1.679,1.679,0,0,0-.551-1.3,3.832,3.832,0,0,0-2-.7q-.15-.05-.276-.4a2.074,2.074,0,0,1-.125-.7,2.293,2.293,0,0,1,.125-.727q.125-.376.276-.376a21.826,21.826,0,0,1,2.731.15,20.907,20.907,0,0,0,2.631.15,16.952,16.952,0,0,0,2.054-.15,19.778,19.778,0,0,1,2.455-.15q.15,0,.276.376A2.293,2.293,0,0,1,118.3-124.867ZM16.285-52.049a2.4,2.4,0,0,1-.125.7q-.125.4-.276.4-1.553,0-3.883-.15t-4.084-.15q-1.7,0-3.758.15T.6-50.947q-.15,0-.276-.4a2.4,2.4,0,0,1-.125-.7A2.3,2.3,0,0,1,.325-52.7q.125-.4.276-.451a4.231,4.231,0,0,0,2.631-1q.777-.8.777-3.207V-78.055a3.406,3.406,0,0,0-.752-2.631A5.1,5.1,0,0,0,.6-81.513q-.15-.05-.276-.426A2.061,2.061,0,0,1,.2-82.565a2.061,2.061,0,0,1,.125-.626q.125-.376.276-.376A42.1,42.1,0,0,0,5.887-85.2q2.881-1.077,4.785-1.979a3.4,3.4,0,0,1,.5-.251,1.578,1.578,0,0,1,.6-.15,1.379,1.379,0,0,1,.877.225q.276.225.225.426-.1,1.754-.251,4.309t-.15,4.159v21.1a4.761,4.761,0,0,0,.8,3.207,3.914,3.914,0,0,0,2.606,1q.15,0,.276.426A2.553,2.553,0,0,1,16.285-52.049Zm27.86-9.921a11.6,11.6,0,0,1-3.382,8.293q-3.382,3.533-9.9,3.533-6.464,0-9.9-3.508a11.49,11.49,0,0,1-3.432-8.318,12.076,12.076,0,0,1,3.407-8.443Q24.352-74.1,30.866-74.1q6.364,0,9.821,3.633A11.929,11.929,0,0,1,44.145-61.971Zm-9.12-.05a24.587,24.587,0,0,0-.8-7.241,3.24,3.24,0,0,0-3.357-2.43,3.288,3.288,0,0,0-3.382,2.48,23.959,23.959,0,0,0-.827,7.19,22.824,22.824,0,0,0,.827,7.165,3.269,3.269,0,0,0,3.382,2.3A3.238,3.238,0,0,0,34.2-54.88,22.858,22.858,0,0,0,35.025-62.021Zm31.568-9.32a4.377,4.377,0,0,1-.175,1.178q-.175.626-.476.626l-7.466-.2v12.978a3.154,3.154,0,0,0,.576,2.079A2.484,2.484,0,0,0,61.031-54a4.028,4.028,0,0,0,2.079-.576,6.3,6.3,0,0,0,1.679-1.428.406.406,0,0,1,.5-.2,1.406,1.406,0,0,1,.551.351,3.1,3.1,0,0,1,.376.626,1.557,1.557,0,0,1,.175.626v.2a.161.161,0,0,1-.1.15,10.746,10.746,0,0,1-3.207,2.581,10.05,10.05,0,0,1-5.061,1.228q-4.109,0-6.213-2.18t-2.054-7.09l.1-9.42a.812.812,0,0,0-.15-.5.528.528,0,0,0-.451-.2H46.149q-.2,0-.351-.451a2.384,2.384,0,0,1-.15-.651,2.144,2.144,0,0,1,.15-.626,1.1,1.1,0,0,1,.3-.526,51.189,51.189,0,0,0,5.637-3.533,35.831,35.831,0,0,0,4.785-4.034A.929.929,0,0,1,57-79.934a2.061,2.061,0,0,1,.626-.125,2.293,2.293,0,0,1,.727.125q.376.125.376.276l-.2,6.564h7.416q.3,0,.476.651A4.369,4.369,0,0,1,66.593-71.341Zm16.536,6.514a17.716,17.716,0,0,1,3.984,2.38,4.961,4.961,0,0,1,1.879,4.134A7.1,7.1,0,0,1,86.16-52.5a11.425,11.425,0,0,1-7.341,2.255,11.031,11.031,0,0,1-4.61-.7,9.177,9.177,0,0,0-4.009-.7q-.15-1.253-.4-3.583t-.451-3.332q-.05-.15.376-.276a2.553,2.553,0,0,1,.676-.125,2.293,2.293,0,0,1,.727.125q.376.125.426.276a10.7,10.7,0,0,0,2.956,4.284,5.933,5.933,0,0,0,3.858,1.629,2.947,2.947,0,0,0,2.255-.8,3.1,3.1,0,0,0,.752-2.2,2.849,2.849,0,0,0-1.9-2.581q-1.9-.927-3.858-1.829a16.312,16.312,0,0,1-3.984-2.505A5.292,5.292,0,0,1,69.8-66.831a6.156,6.156,0,0,1,3.132-5.211,12.013,12.013,0,0,1,6.84-2.1,12.628,12.628,0,0,1,4.134.6,10.4,10.4,0,0,0,3.432.6q0,1.1.1,3.006t.2,3.157q0,.15-.426.276a2.553,2.553,0,0,1-.676.125,2.543,2.543,0,0,1-.7-.1q-.351-.1-.4-.3A6.879,6.879,0,0,0,83.4-70.414a4.579,4.579,0,0,0-3.082-1.328,3.79,3.79,0,0,0-2.3.6,2.225,2.225,0,0,0-.8,1.9,2.935,2.935,0,0,0,2,2.656Q81.225-65.629,83.129-64.827Z" transform="translate(114.963 183.571)" fill="url(#linear-gradient)"/>
      <g transform="matrix(1, 0, 0, 1, 9.54, 32.62)" filter="url(#패스_410675)">
        <path id="패스_410675-3" data-name="패스 410675" d="M16.285-104.673a2.4,2.4,0,0,1-.125.7q-.125.4-.276.4-1.553,0-3.883-.15t-4.084-.15q-1.7,0-3.758.15t-3.558.15q-.15,0-.276-.4a2.4,2.4,0,0,1-.125-.7,2.3,2.3,0,0,1,.125-.651q.125-.4.276-.451a4.231,4.231,0,0,0,2.631-1q.777-.8.777-3.207v-20.695a3.406,3.406,0,0,0-.752-2.631A5.1,5.1,0,0,0,.6-134.137q-.15-.05-.276-.426a2.061,2.061,0,0,1-.125-.626,2.061,2.061,0,0,1,.125-.626q.125-.376.276-.376a42.1,42.1,0,0,0,5.286-1.629q2.881-1.077,4.785-1.979a3.394,3.394,0,0,1,.5-.251,1.578,1.578,0,0,1,.6-.15,1.38,1.38,0,0,1,.877.225q.276.225.225.426-.1,1.754-.251,4.309t-.15,4.159v21.1a4.761,4.761,0,0,0,.8,3.207,3.914,3.914,0,0,0,2.606,1q.15,0,.276.426A2.553,2.553,0,0,1,16.285-104.673Zm27.058-1.3a.824.824,0,0,0-.05.251q0,.1-.15.2a6.783,6.783,0,0,1-2.956,1.8,12.352,12.352,0,0,1-4.109.7,5.542,5.542,0,0,1-3.332-.927,4.3,4.3,0,0,1-1.679-2.48,7.009,7.009,0,0,1-2.931,2.581,10.373,10.373,0,0,1-4.384.827,8.6,8.6,0,0,1-4.835-1.3,4.415,4.415,0,0,1-1.979-3.959q0-2.956,3.257-4.81t10.924-3.558l.15-4.911a3.25,3.25,0,0,0-.451-2.054,1.94,1.94,0,0,0-1.5-.5,4.585,4.585,0,0,0-1.929.4,1.8,1.8,0,0,0-.977,1.654,7.621,7.621,0,0,1-1.3,4.309,3.907,3.907,0,0,1-3.107,1.2,3.627,3.627,0,0,1-2.831-1.077,3.709,3.709,0,0,1-.977-2.581q0-2.505,4.084-4.61a19.666,19.666,0,0,1,9.145-2.1q4.61,0,6.289,2.3a9.779,9.779,0,0,1,1.528,6.264l-.251,8.719q-.1,1.754.5,2.28a1.792,1.792,0,0,0,1.152.526,2.406,2.406,0,0,0,.852-.15,2.4,2.4,0,0,0,.7-.4q.2-.15.676.376A1.56,1.56,0,0,1,43.343-105.976ZM31.016-114.8a9.57,9.57,0,0,0-4.259,1.9,4.471,4.471,0,0,0-1.3,3.457,2.883,2.883,0,0,0,.676,2,2.4,2.4,0,0,0,1.879.752,2.958,2.958,0,0,0,1.829-.626,3.346,3.346,0,0,0,1.027-2.38Zm27.66-2.656a17.715,17.715,0,0,1,3.984,2.38,4.961,4.961,0,0,1,1.879,4.134,7.1,7.1,0,0,1-2.831,5.813,11.425,11.425,0,0,1-7.341,2.255,11.031,11.031,0,0,1-4.61-.7,9.177,9.177,0,0,0-4.009-.7q-.15-1.253-.4-3.583t-.451-3.332q-.05-.15.376-.276a2.553,2.553,0,0,1,.676-.125,2.293,2.293,0,0,1,.727.125q.376.125.426.276a10.7,10.7,0,0,0,2.956,4.284,5.933,5.933,0,0,0,3.858,1.629,2.947,2.947,0,0,0,2.255-.8,3.1,3.1,0,0,0,.752-2.2,2.849,2.849,0,0,0-1.9-2.581q-1.9-.927-3.858-1.829a16.312,16.312,0,0,1-3.984-2.505,5.292,5.292,0,0,1-1.829-4.259,6.156,6.156,0,0,1,3.132-5.211,12.013,12.013,0,0,1,6.84-2.1,12.628,12.628,0,0,1,4.134.6,10.4,10.4,0,0,0,3.432.6q0,1.1.1,3.006t.2,3.157q0,.15-.426.276a2.553,2.553,0,0,1-.676.125,2.543,2.543,0,0,1-.7-.1q-.351-.1-.4-.3a6.879,6.879,0,0,0-2.029-3.633,4.579,4.579,0,0,0-3.082-1.328,3.79,3.79,0,0,0-2.3.6,2.225,2.225,0,0,0-.8,1.9,2.935,2.935,0,0,0,2,2.656Q56.772-118.253,58.676-117.451Zm23.8,0a17.715,17.715,0,0,1,3.984,2.38,4.961,4.961,0,0,1,1.879,4.134,7.1,7.1,0,0,1-2.831,5.813,11.425,11.425,0,0,1-7.341,2.255,11.031,11.031,0,0,1-4.61-.7,9.177,9.177,0,0,0-4.009-.7q-.15-1.253-.4-3.583t-.451-3.332q-.05-.15.376-.276a2.553,2.553,0,0,1,.676-.125,2.293,2.293,0,0,1,.727.125q.376.125.426.276a10.7,10.7,0,0,0,2.956,4.284,5.933,5.933,0,0,0,3.858,1.629,2.947,2.947,0,0,0,2.255-.8,3.1,3.1,0,0,0,.752-2.2,2.849,2.849,0,0,0-1.9-2.581q-1.9-.927-3.858-1.829a16.312,16.312,0,0,1-3.984-2.505,5.292,5.292,0,0,1-1.829-4.259,6.156,6.156,0,0,1,3.132-5.211,12.013,12.013,0,0,1,6.84-2.1,12.628,12.628,0,0,1,4.134.6,10.4,10.4,0,0,0,3.432.6q0,1.1.1,3.006t.2,3.157q0,.15-.426.276a2.553,2.553,0,0,1-.676.125,2.543,2.543,0,0,1-.7-.1q-.351-.1-.4-.3a6.879,6.879,0,0,0-2.029-3.633,4.579,4.579,0,0,0-3.082-1.328,3.79,3.79,0,0,0-2.3.6,2.225,2.225,0,0,0-.8,1.9,2.935,2.935,0,0,0,2,2.656Q80.573-118.253,82.477-117.451Zm35.827-7.416a2.293,2.293,0,0,1-.125.727q-.125.376-.276.376a5.12,5.12,0,0,0-2.806,1.027,6.392,6.392,0,0,0-1.8,2.43l-9.42,20.244a48.868,48.868,0,0,1-4.41,7.942,5.4,5.4,0,0,1-4.51,2.23,4.526,4.526,0,0,1-3.057-.952A3.205,3.205,0,0,1,90.8-93.4a3.538,3.538,0,0,1,1.1-2.631,3.785,3.785,0,0,1,2.756-1.077,3.952,3.952,0,0,1,2.079.476,2.78,2.78,0,0,0,1.428.476q.6,0,1.378-.927a20.875,20.875,0,0,0,2.23-4.334l.7-1.6-8.719-17.287a8.348,8.348,0,0,0-1.629-2.43,4.977,4.977,0,0,0-2.781-1.027q-.15-.05-.276-.4a2.074,2.074,0,0,1-.125-.7,2.293,2.293,0,0,1,.125-.727q.125-.376.276-.376,1.553,0,3.608.15t3.808.15q1.754,0,3.933-.15t3.733-.15q.15,0,.276.4a2.4,2.4,0,0,1,.125.7,2.553,2.553,0,0,1-.125.676q-.125.426-.276.426a4.956,4.956,0,0,0-1.829.451,1.162,1.162,0,0,0-.676,1.1,2.744,2.744,0,0,0,.175,1q.175.451.376.9l4.009,8.468,3.758-8.468q.2-.5.276-.752a2.555,2.555,0,0,0,.075-.7,1.679,1.679,0,0,0-.551-1.3,3.832,3.832,0,0,0-2-.7q-.15-.05-.276-.4a2.074,2.074,0,0,1-.125-.7,2.293,2.293,0,0,1,.125-.727q.125-.376.276-.376a21.826,21.826,0,0,1,2.731.15,20.907,20.907,0,0,0,2.631.15,16.952,16.952,0,0,0,2.054-.15,19.778,19.778,0,0,1,2.455-.15q.15,0,.276.376A2.293,2.293,0,0,1,118.3-124.867ZM16.285-52.049a2.4,2.4,0,0,1-.125.7q-.125.4-.276.4-1.553,0-3.883-.15t-4.084-.15q-1.7,0-3.758.15T.6-50.947q-.15,0-.276-.4a2.4,2.4,0,0,1-.125-.7A2.3,2.3,0,0,1,.325-52.7q.125-.4.276-.451a4.231,4.231,0,0,0,2.631-1q.777-.8.777-3.207V-78.055a3.406,3.406,0,0,0-.752-2.631A5.1,5.1,0,0,0,.6-81.513q-.15-.05-.276-.426A2.061,2.061,0,0,1,.2-82.565a2.061,2.061,0,0,1,.125-.626q.125-.376.276-.376A42.1,42.1,0,0,0,5.887-85.2q2.881-1.077,4.785-1.979a3.4,3.4,0,0,1,.5-.251,1.578,1.578,0,0,1,.6-.15,1.379,1.379,0,0,1,.877.225q.276.225.225.426-.1,1.754-.251,4.309t-.15,4.159v21.1a4.761,4.761,0,0,0,.8,3.207,3.914,3.914,0,0,0,2.606,1q.15,0,.276.426A2.553,2.553,0,0,1,16.285-52.049Zm27.86-9.921a11.6,11.6,0,0,1-3.382,8.293q-3.382,3.533-9.9,3.533-6.464,0-9.9-3.508a11.49,11.49,0,0,1-3.432-8.318,12.076,12.076,0,0,1,3.407-8.443Q24.352-74.1,30.866-74.1q6.364,0,9.821,3.633A11.929,11.929,0,0,1,44.145-61.971Zm-9.12-.05a24.587,24.587,0,0,0-.8-7.241,3.24,3.24,0,0,0-3.357-2.43,3.288,3.288,0,0,0-3.382,2.48,23.959,23.959,0,0,0-.827,7.19,22.824,22.824,0,0,0,.827,7.165,3.269,3.269,0,0,0,3.382,2.3A3.238,3.238,0,0,0,34.2-54.88,22.858,22.858,0,0,0,35.025-62.021Zm31.568-9.32a4.377,4.377,0,0,1-.175,1.178q-.175.626-.476.626l-7.466-.2v12.978a3.154,3.154,0,0,0,.576,2.079A2.484,2.484,0,0,0,61.031-54a4.028,4.028,0,0,0,2.079-.576,6.3,6.3,0,0,0,1.679-1.428.406.406,0,0,1,.5-.2,1.406,1.406,0,0,1,.551.351,3.1,3.1,0,0,1,.376.626,1.557,1.557,0,0,1,.175.626v.2a.161.161,0,0,1-.1.15,10.746,10.746,0,0,1-3.207,2.581,10.05,10.05,0,0,1-5.061,1.228q-4.109,0-6.213-2.18t-2.054-7.09l.1-9.42a.812.812,0,0,0-.15-.5.528.528,0,0,0-.451-.2H46.149q-.2,0-.351-.451a2.384,2.384,0,0,1-.15-.651,2.144,2.144,0,0,1,.15-.626,1.1,1.1,0,0,1,.3-.526,51.189,51.189,0,0,0,5.637-3.533,35.831,35.831,0,0,0,4.785-4.034A.929.929,0,0,1,57-79.934a2.061,2.061,0,0,1,.626-.125,2.293,2.293,0,0,1,.727.125q.376.125.376.276l-.2,6.564h7.416q.3,0,.476.651A4.369,4.369,0,0,1,66.593-71.341Zm16.536,6.514a17.716,17.716,0,0,1,3.984,2.38,4.961,4.961,0,0,1,1.879,4.134A7.1,7.1,0,0,1,86.16-52.5a11.425,11.425,0,0,1-7.341,2.255,11.031,11.031,0,0,1-4.61-.7,9.177,9.177,0,0,0-4.009-.7q-.15-1.253-.4-3.583t-.451-3.332q-.05-.15.376-.276a2.553,2.553,0,0,1,.676-.125,2.293,2.293,0,0,1,.727.125q.376.125.426.276a10.7,10.7,0,0,0,2.956,4.284,5.933,5.933,0,0,0,3.858,1.629,2.947,2.947,0,0,0,2.255-.8,3.1,3.1,0,0,0,.752-2.2,2.849,2.849,0,0,0-1.9-2.581q-1.9-.927-3.858-1.829a16.312,16.312,0,0,1-3.984-2.505A5.292,5.292,0,0,1,69.8-66.831a6.156,6.156,0,0,1,3.132-5.211,12.013,12.013,0,0,1,6.84-2.1,12.628,12.628,0,0,1,4.134.6,10.4,10.4,0,0,0,3.432.6q0,1.1.1,3.006t.2,3.157q0,.15-.426.276a2.553,2.553,0,0,1-.676.125,2.543,2.543,0,0,1-.7-.1q-.351-.1-.4-.3A6.879,6.879,0,0,0,83.4-70.414a4.579,4.579,0,0,0-3.082-1.328,3.79,3.79,0,0,0-2.3.6,2.225,2.225,0,0,0-.8,1.9,2.935,2.935,0,0,0,2,2.656Q81.225-65.629,83.129-64.827Z" transform="translate(105.42 150.95)" fill="#fff"/>
      </g>
    </g>
    <path id="패스_410675_-_윤곽선" data-name="패스 410675 - 윤곽선" d="M10.764-137.64c-1.175.527-2.575,1.094-4.176,1.693q-1.238.463-2.405.836a4.069,4.069,0,0,1,.354.264c.99.825,1.471,2.188,1.471,4.167v20.695A7.025,7.025,0,0,1,5-105.781c1.04-.06,2.017-.091,2.917-.091,1.054,0,2.268.04,3.616.118a7.027,7.027,0,0,1-1.056-4.231v-21.1c0-1.1.052-2.542.154-4.276.048-.82.093-1.582.134-2.283m21.592,12.748a4.961,4.961,0,0,1,.911,3.331v.061l-.2,6.465-.044.01-.161,5.483-.01.084a8.339,8.339,0,0,1-.208,1.144L33-106.927a2.3,2.3,0,0,0,.917,1.361,3.653,3.653,0,0,0,2.158.546,10.376,10.376,0,0,0,2.716-.362,4.84,4.84,0,0,1-.625-.467c-1.319-1.154-1.222-3.169-1.182-3.871l.25-8.708a7.928,7.928,0,0,0-1.146-5.01c-.729-1-2.292-1.356-3.733-1.452m42.621,1a10.9,10.9,0,0,0-1.581.887c-2.014,1.354-2.247,2.675-2.247,3.551a3.319,3.319,0,0,0,1.124,2.735,14.389,14.389,0,0,0,3.5,2.2l.03.013c1.309.6,2.62,1.226,3.9,1.847a4.91,4.91,0,0,1,3.029,4.379,5.341,5.341,0,0,1-.729,2.833,7.674,7.674,0,0,0,2.268-1.241,5.086,5.086,0,0,0,2.077-4.248,3.048,3.048,0,0,0-1.116-2.562,15.8,15.8,0,0,0-3.531-2.112c-1.288-.543-2.628-1.144-3.983-1.787a5,5,0,0,1-3.146-4.462,4.787,4.787,0,0,1,.413-2.033m-23.8,0a10.9,10.9,0,0,0-1.581.887c-2.014,1.354-2.247,2.675-2.247,3.551a3.319,3.319,0,0,0,1.124,2.735,14.388,14.388,0,0,0,3.5,2.2l.03.013c1.309.6,2.62,1.226,3.9,1.847a4.91,4.91,0,0,1,3.029,4.379,5.341,5.341,0,0,1-.729,2.833,7.674,7.674,0,0,0,2.268-1.241,5.086,5.086,0,0,0,2.077-4.248,3.048,3.048,0,0,0-1.116-2.562,15.8,15.8,0,0,0-3.531-2.112c-1.288-.543-2.628-1.144-3.983-1.787a5,5,0,0,1-3.146-4.462,4.787,4.787,0,0,1,.413-2.033m49.137.1c-1.293.08-2.487.121-3.555.121-.887,0-1.838-.028-2.838-.084a11.365,11.365,0,0,1,1.625,2.559l8.3,16.454,1.876-4.031-5.076-10.725c-.146-.328-.284-.661-.412-.989a4.745,4.745,0,0,1-.311-1.727,3.235,3.235,0,0,1,.394-1.579m-75.523.034a16.013,16.013,0,0,0-1.6.717c-1.907.982-3,2.015-3,2.832a1.715,1.715,0,0,0,.459,1.237c.094.1.382.421,1.35.421,1.147,0,1.489-.391,1.6-.52.145-.165.631-.882.814-3.152a4.579,4.579,0,0,1,.377-1.535m87.284.055a3.572,3.572,0,0,1,.373.875,7.933,7.933,0,0,1,.709-.845q-.557,0-1.082-.031M24.129-112.652a19.124,19.124,0,0,0-2.947,1.3c-2.014,1.146-2.246,2.3-2.246,3.072a2.415,2.415,0,0,0,1.079,2.288,6.6,6.6,0,0,0,3.736.973,10.968,10.968,0,0,0,2.043-.175,4.161,4.161,0,0,1-1.149-.9,4.829,4.829,0,0,1-1.19-3.342,7.282,7.282,0,0,1,.675-3.218m47.162,6,.052.467q.213.022.418.05-.241-.25-.469-.517m-23.8,0,.052.467q.213.022.417.05-.241-.25-.469-.517M94.654-95.107A1.8,1.8,0,0,0,93.3-94.6a1.541,1.541,0,0,0-.5,1.2,1.206,1.206,0,0,0,.41,1.042,2.669,2.669,0,0,0,1.749.466,3.426,3.426,0,0,0,2.92-1.444q.277-.363.588-.835a2.846,2.846,0,0,1-.3.016,4.738,4.738,0,0,1-2.473-.771,2.066,2.066,0,0,0-1.034-.181M10.764-85.015c-1.175.527-2.575,1.094-4.176,1.693q-1.238.463-2.405.836a4.061,4.061,0,0,1,.354.264c.99.825,1.471,2.188,1.471,4.167v20.695A7.025,7.025,0,0,1,5-53.157c1.04-.06,2.017-.091,2.917-.091,1.053,0,2.268.04,3.616.118a7.027,7.027,0,0,1-1.056-4.231v-21.1c0-1.1.052-2.542.154-4.276.048-.82.093-1.583.134-2.283M56.644-77A41.64,41.64,0,0,1,52.9-74c-1.09.781-2.187,1.512-3.281,2.186a2.5,2.5,0,0,1,1.687.976,2.808,2.808,0,0,1,.55,1.7v.021l-.1,9.419c-.028,2.714.475,4.626,1.493,5.681s2.581,1.569,4.775,1.569q.356,0,.7-.022a3.6,3.6,0,0,1-1.194-.915,5.061,5.061,0,0,1-1.054-3.376V-71.095h-.012l.012-.39v-.307h.009L56.644-77M26.4-71.5q-.3.091-.579.2a8.6,8.6,0,0,0-3.412,2.245,10.057,10.057,0,0,0-2.875,7.085A9.48,9.48,0,0,0,22.4-55.052a8.771,8.771,0,0,0,3.429,2.144q.248.088.507.166A6.072,6.072,0,0,1,25.6-54.18a24.366,24.366,0,0,1-.944-7.841,25.558,25.558,0,0,1,.929-7.823A6.362,6.362,0,0,1,26.4-71.5m8.945.021a6.222,6.222,0,0,1,.774,1.588,26.153,26.153,0,0,1,.9,7.867,24.415,24.415,0,0,1-.942,7.809,6.168,6.168,0,0,1-.761,1.5q.309-.091.6-.2a8.549,8.549,0,0,0,3.393-2.149,9.59,9.59,0,0,0,2.827-6.91,9.913,9.913,0,0,0-2.906-7.114,9.042,9.042,0,0,0-3.89-2.391m40.28.207a10.9,10.9,0,0,0-1.581.887c-2.014,1.354-2.247,2.675-2.247,3.551A3.319,3.319,0,0,0,72.924-64.1a14.389,14.389,0,0,0,3.5,2.2l.03.013c1.31.6,2.62,1.226,3.9,1.847a4.91,4.91,0,0,1,3.029,4.379,5.341,5.341,0,0,1-.729,2.833,7.673,7.673,0,0,0,2.268-1.241,5.086,5.086,0,0,0,2.077-4.248,3.048,3.048,0,0,0-1.116-2.562,15.8,15.8,0,0,0-3.53-2.112c-1.289-.543-2.629-1.144-3.984-1.788a5,5,0,0,1-3.146-4.462,4.788,4.788,0,0,1,.413-2.033m-3.686,17.24.052.467q.213.022.417.05-.241-.25-.469-.517M11.775-140.2a1.38,1.38,0,0,1,.877.225q.276.225.225.426-.1,1.754-.251,4.309t-.15,4.159v21.1a4.761,4.761,0,0,0,.8,3.207,3.914,3.914,0,0,0,2.606,1q.15,0,.276.426a2.553,2.553,0,0,1,.125.676,2.4,2.4,0,0,1-.125.7q-.125.4-.276.4-1.553,0-3.883-.15t-4.084-.15q-1.7,0-3.758.15t-3.558.15q-.15,0-.276-.4a2.4,2.4,0,0,1-.125-.7,2.3,2.3,0,0,1,.125-.651q.125-.4.276-.451a4.231,4.231,0,0,0,2.631-1q.777-.8.777-3.207v-20.695a3.406,3.406,0,0,0-.752-2.631A5.1,5.1,0,0,0,.6-134.137q-.15-.05-.276-.426a2.061,2.061,0,0,1-.125-.626,2.061,2.061,0,0,1,.125-.626q.125-.376.276-.376a42.1,42.1,0,0,0,5.286-1.628q2.881-1.077,4.785-1.979a3.4,3.4,0,0,1,.5-.251A1.578,1.578,0,0,1,11.775-140.2Zm19.642,13.279q4.61,0,6.289,2.3a9.779,9.779,0,0,1,1.528,6.264l-.251,8.719q-.1,1.754.5,2.28a1.792,1.792,0,0,0,1.152.526,2.406,2.406,0,0,0,.852-.15,2.4,2.4,0,0,0,.7-.4q.2-.15.676.376a1.56,1.56,0,0,1,.476,1.027.825.825,0,0,0-.05.251q0,.1-.15.2a6.783,6.783,0,0,1-2.956,1.8,12.352,12.352,0,0,1-4.109.7,5.542,5.542,0,0,1-3.332-.927,4.3,4.3,0,0,1-1.679-2.48,7.009,7.009,0,0,1-2.931,2.581,10.373,10.373,0,0,1-4.384.827,8.6,8.6,0,0,1-4.835-1.3,4.415,4.415,0,0,1-1.979-3.959q0-2.956,3.257-4.81t10.924-3.558l.15-4.911a3.25,3.25,0,0,0-.451-2.054,1.94,1.94,0,0,0-1.5-.5,4.585,4.585,0,0,0-1.929.4,1.8,1.8,0,0,0-.977,1.654,7.621,7.621,0,0,1-1.3,4.309,3.907,3.907,0,0,1-3.107,1.2,3.627,3.627,0,0,1-2.831-1.077,3.709,3.709,0,0,1-.977-2.581q0-2.505,4.084-4.61A19.666,19.666,0,0,1,31.417-126.921ZM28.01-106.678a2.959,2.959,0,0,0,1.829-.626,3.346,3.346,0,0,0,1.027-2.38l.15-5.111a9.57,9.57,0,0,0-4.259,1.9,4.471,4.471,0,0,0-1.3,3.457,2.883,2.883,0,0,0,.676,2A2.4,2.4,0,0,0,28.01-106.678Zm27.309-20.093a12.628,12.628,0,0,1,4.134.6,10.4,10.4,0,0,0,3.432.6q0,1.1.1,3.006t.2,3.157q0,.15-.426.276a2.553,2.553,0,0,1-.676.125,2.543,2.543,0,0,1-.7-.1q-.351-.1-.4-.3a6.879,6.879,0,0,0-2.029-3.633,4.579,4.579,0,0,0-3.082-1.328,3.79,3.79,0,0,0-2.3.6,2.225,2.225,0,0,0-.8,1.9,2.935,2.935,0,0,0,2,2.656q2,.952,3.908,1.754a17.715,17.715,0,0,1,3.984,2.38,4.961,4.961,0,0,1,1.879,4.134,7.1,7.1,0,0,1-2.831,5.813,11.425,11.425,0,0,1-7.341,2.255,11.031,11.031,0,0,1-4.61-.7,9.177,9.177,0,0,0-4.009-.7q-.15-1.253-.4-3.583t-.451-3.332q-.05-.15.376-.276a2.553,2.553,0,0,1,.676-.125,2.293,2.293,0,0,1,.727.125q.376.125.426.276a10.7,10.7,0,0,0,2.956,4.284,5.933,5.933,0,0,0,3.858,1.629,2.947,2.947,0,0,0,2.255-.8,3.1,3.1,0,0,0,.752-2.2,2.849,2.849,0,0,0-1.9-2.581q-1.9-.927-3.858-1.829a16.311,16.311,0,0,1-3.984-2.505,5.292,5.292,0,0,1-1.829-4.259,6.156,6.156,0,0,1,3.132-5.211A12.013,12.013,0,0,1,55.319-126.771Zm23.8,0a12.628,12.628,0,0,1,4.134.6,10.4,10.4,0,0,0,3.432.6q0,1.1.1,3.006t.2,3.157q0,.15-.426.276a2.553,2.553,0,0,1-.676.125,2.543,2.543,0,0,1-.7-.1q-.351-.1-.4-.3a6.879,6.879,0,0,0-2.029-3.633,4.579,4.579,0,0,0-3.082-1.328,3.79,3.79,0,0,0-2.3.6,2.225,2.225,0,0,0-.8,1.9,2.935,2.935,0,0,0,2,2.656q2,.952,3.908,1.754a17.715,17.715,0,0,1,3.984,2.38,4.961,4.961,0,0,1,1.879,4.134,7.1,7.1,0,0,1-2.831,5.813,11.425,11.425,0,0,1-7.341,2.255,11.031,11.031,0,0,1-4.61-.7,9.177,9.177,0,0,0-4.009-.7q-.15-1.253-.4-3.583t-.451-3.332q-.05-.15.376-.276a2.553,2.553,0,0,1,.676-.125,2.293,2.293,0,0,1,.727.125q.376.125.426.276a10.7,10.7,0,0,0,2.956,4.284,5.933,5.933,0,0,0,3.858,1.629,2.947,2.947,0,0,0,2.255-.8,3.1,3.1,0,0,0,.752-2.2,2.849,2.849,0,0,0-1.9-2.581q-1.9-.927-3.858-1.829a16.312,16.312,0,0,1-3.984-2.505,5.292,5.292,0,0,1-1.829-4.259,6.156,6.156,0,0,1,3.132-5.211A12.013,12.013,0,0,1,79.12-126.771Zm10.222.8q1.553,0,3.608.15t3.808.15q1.754,0,3.933-.15t3.733-.15q.15,0,.276.4a2.4,2.4,0,0,1,.125.7,2.553,2.553,0,0,1-.125.676q-.125.426-.276.426a4.957,4.957,0,0,0-1.829.451,1.162,1.162,0,0,0-.676,1.1,2.744,2.744,0,0,0,.175,1q.175.451.376.9l4.009,8.468,3.758-8.468q.2-.5.276-.752a2.555,2.555,0,0,0,.075-.7,1.679,1.679,0,0,0-.551-1.3,3.832,3.832,0,0,0-2-.7q-.15-.05-.276-.4a2.074,2.074,0,0,1-.125-.7,2.293,2.293,0,0,1,.125-.727q.125-.376.276-.376a21.827,21.827,0,0,1,2.731.15,20.91,20.91,0,0,0,2.631.15,16.955,16.955,0,0,0,2.054-.15,19.778,19.778,0,0,1,2.455-.15q.15,0,.276.376a2.293,2.293,0,0,1,.125.727,2.293,2.293,0,0,1-.125.727q-.125.376-.276.376a5.12,5.12,0,0,0-2.806,1.027,6.392,6.392,0,0,0-1.8,2.43l-9.42,20.244a48.867,48.867,0,0,1-4.41,7.942,5.4,5.4,0,0,1-4.51,2.23,4.526,4.526,0,0,1-3.057-.952A3.205,3.205,0,0,1,90.8-93.4a3.538,3.538,0,0,1,1.1-2.631,3.785,3.785,0,0,1,2.756-1.077,3.952,3.952,0,0,1,2.079.476,2.78,2.78,0,0,0,1.428.476q.6,0,1.378-.927a20.875,20.875,0,0,0,2.23-4.334l.7-1.6-8.719-17.287a8.348,8.348,0,0,0-1.629-2.43,4.977,4.977,0,0,0-2.781-1.027q-.15-.05-.276-.4a2.074,2.074,0,0,1-.125-.7,2.293,2.293,0,0,1,.125-.727Q89.192-125.969,89.342-125.969ZM11.775-87.576a1.379,1.379,0,0,1,.877.226q.276.225.225.426-.1,1.754-.251,4.309t-.15,4.159v21.1a4.761,4.761,0,0,0,.8,3.207,3.914,3.914,0,0,0,2.606,1q.15,0,.276.426a2.553,2.553,0,0,1,.125.676,2.4,2.4,0,0,1-.125.7q-.125.4-.276.4-1.553,0-3.883-.15t-4.084-.15q-1.7,0-3.758.15T.6-50.947q-.15,0-.276-.4a2.4,2.4,0,0,1-.125-.7A2.3,2.3,0,0,1,.325-52.7q.125-.4.276-.451a4.231,4.231,0,0,0,2.631-1q.777-.8.777-3.207V-78.055a3.406,3.406,0,0,0-.752-2.631A5.1,5.1,0,0,0,.6-81.513q-.15-.05-.276-.426A2.061,2.061,0,0,1,.2-82.565a2.061,2.061,0,0,1,.125-.626q.125-.376.276-.376A42.1,42.1,0,0,0,5.887-85.2q2.881-1.077,4.785-1.979a3.4,3.4,0,0,1,.5-.251A1.578,1.578,0,0,1,11.775-87.576ZM57.624-80.06a2.293,2.293,0,0,1,.727.125q.376.125.376.276l-.2,6.564h7.416q.3,0,.476.651a4.369,4.369,0,0,1,.175,1.1,4.376,4.376,0,0,1-.175,1.178q-.175.626-.476.626l-7.466-.2v12.978a3.154,3.154,0,0,0,.576,2.079A2.484,2.484,0,0,0,61.031-54a4.027,4.027,0,0,0,2.079-.576,6.3,6.3,0,0,0,1.679-1.428.406.406,0,0,1,.5-.2,1.406,1.406,0,0,1,.551.351,3.1,3.1,0,0,1,.376.626,1.557,1.557,0,0,1,.175.626v.2a.161.161,0,0,1-.1.15,10.746,10.746,0,0,1-3.207,2.581,10.051,10.051,0,0,1-5.061,1.228q-4.109,0-6.213-2.18t-2.054-7.09l.1-9.42a.812.812,0,0,0-.15-.5.528.528,0,0,0-.451-.2H46.149q-.2,0-.351-.451a2.385,2.385,0,0,1-.15-.651,2.144,2.144,0,0,1,.15-.626,1.1,1.1,0,0,1,.3-.526,51.187,51.187,0,0,0,5.637-3.533,35.83,35.83,0,0,0,4.785-4.034A.929.929,0,0,1,57-79.934,2.061,2.061,0,0,1,57.624-80.06Zm22.148,5.913a12.628,12.628,0,0,1,4.134.6,10.4,10.4,0,0,0,3.432.6q0,1.1.1,3.006t.2,3.157q0,.15-.426.276a2.553,2.553,0,0,1-.676.125,2.543,2.543,0,0,1-.7-.1q-.351-.1-.4-.3A6.879,6.879,0,0,0,83.4-70.414a4.579,4.579,0,0,0-3.082-1.328,3.79,3.79,0,0,0-2.3.6,2.225,2.225,0,0,0-.8,1.9,2.935,2.935,0,0,0,2,2.656q2,.952,3.908,1.754a17.715,17.715,0,0,1,3.984,2.38,4.961,4.961,0,0,1,1.879,4.134A7.1,7.1,0,0,1,86.16-52.5a11.425,11.425,0,0,1-7.341,2.255,11.031,11.031,0,0,1-4.61-.7,9.177,9.177,0,0,0-4.009-.7q-.15-1.253-.4-3.583t-.451-3.332q-.05-.15.376-.276a2.553,2.553,0,0,1,.676-.125,2.293,2.293,0,0,1,.727.125q.376.125.426.276a10.7,10.7,0,0,0,2.956,4.284,5.933,5.933,0,0,0,3.858,1.629,2.947,2.947,0,0,0,2.255-.8,3.1,3.1,0,0,0,.752-2.2,2.849,2.849,0,0,0-1.9-2.581q-1.9-.927-3.858-1.829a16.312,16.312,0,0,1-3.984-2.505A5.292,5.292,0,0,1,69.8-66.831a6.156,6.156,0,0,1,3.132-5.211A12.013,12.013,0,0,1,79.771-74.147Zm-48.905.05q6.364,0,9.821,3.633a11.929,11.929,0,0,1,3.457,8.493,11.6,11.6,0,0,1-3.382,8.293q-3.382,3.533-9.9,3.533-6.464,0-9.9-3.508a11.49,11.49,0,0,1-3.432-8.318,12.076,12.076,0,0,1,3.407-8.443Q24.352-74.1,30.866-74.1Zm0,21.546A3.238,3.238,0,0,0,34.2-54.88a22.858,22.858,0,0,0,.827-7.14,24.588,24.588,0,0,0-.8-7.241,3.24,3.24,0,0,0-3.357-2.43,3.288,3.288,0,0,0-3.382,2.48,23.959,23.959,0,0,0-.827,7.19,22.824,22.824,0,0,0,.827,7.165A3.269,3.269,0,0,0,30.866-52.55Z" transform="translate(114.963 183.571)" fill="url(#linear-gradient-2)" style="mix-blend-mode: overlay;isolation: isolate"/>
    <path id="패스_410677" data-name="패스 410677" d="M16.285-104.673a2.4,2.4,0,0,1-.125.7q-.125.4-.276.4-1.553,0-3.883-.15t-4.084-.15q-1.7,0-3.758.15t-3.558.15q-.15,0-.276-.4a2.4,2.4,0,0,1-.125-.7,2.3,2.3,0,0,1,.125-.651q.125-.4.276-.451a4.231,4.231,0,0,0,2.631-1q.777-.8.777-3.207v-20.695a3.406,3.406,0,0,0-.752-2.631A5.1,5.1,0,0,0,.6-134.137q-.15-.05-.276-.426a2.061,2.061,0,0,1-.125-.626,2.061,2.061,0,0,1,.125-.626q.125-.376.276-.376a42.1,42.1,0,0,0,5.286-1.629q2.881-1.077,4.785-1.979a3.394,3.394,0,0,1,.5-.251,1.578,1.578,0,0,1,.6-.15,1.38,1.38,0,0,1,.877.225q.276.225.225.426-.1,1.754-.251,4.309t-.15,4.159v21.1a4.761,4.761,0,0,0,.8,3.207,3.914,3.914,0,0,0,2.606,1q.15,0,.276.426A2.553,2.553,0,0,1,16.285-104.673Zm27.058-1.3a.824.824,0,0,0-.05.251q0,.1-.15.2a6.783,6.783,0,0,1-2.956,1.8,12.352,12.352,0,0,1-4.109.7,5.542,5.542,0,0,1-3.332-.927,4.3,4.3,0,0,1-1.679-2.48,7.009,7.009,0,0,1-2.931,2.581,10.373,10.373,0,0,1-4.384.827,8.6,8.6,0,0,1-4.835-1.3,4.415,4.415,0,0,1-1.979-3.959q0-2.956,3.257-4.81t10.924-3.558l.15-4.911a3.25,3.25,0,0,0-.451-2.054,1.94,1.94,0,0,0-1.5-.5,4.585,4.585,0,0,0-1.929.4,1.8,1.8,0,0,0-.977,1.654,7.621,7.621,0,0,1-1.3,4.309,3.907,3.907,0,0,1-3.107,1.2,3.627,3.627,0,0,1-2.831-1.077,3.709,3.709,0,0,1-.977-2.581q0-2.505,4.084-4.61a19.666,19.666,0,0,1,9.145-2.1q4.61,0,6.289,2.3a9.779,9.779,0,0,1,1.528,6.264l-.251,8.719q-.1,1.754.5,2.28a1.792,1.792,0,0,0,1.152.526,2.406,2.406,0,0,0,.852-.15,2.4,2.4,0,0,0,.7-.4q.2-.15.676.376A1.56,1.56,0,0,1,43.343-105.976ZM31.016-114.8a9.57,9.57,0,0,0-4.259,1.9,4.471,4.471,0,0,0-1.3,3.457,2.883,2.883,0,0,0,.676,2,2.4,2.4,0,0,0,1.879.752,2.958,2.958,0,0,0,1.829-.626,3.346,3.346,0,0,0,1.027-2.38Zm27.66-2.656a17.715,17.715,0,0,1,3.984,2.38,4.961,4.961,0,0,1,1.879,4.134,7.1,7.1,0,0,1-2.831,5.813,11.425,11.425,0,0,1-7.341,2.255,11.031,11.031,0,0,1-4.61-.7,9.177,9.177,0,0,0-4.009-.7q-.15-1.253-.4-3.583t-.451-3.332q-.05-.15.376-.276a2.553,2.553,0,0,1,.676-.125,2.293,2.293,0,0,1,.727.125q.376.125.426.276a10.7,10.7,0,0,0,2.956,4.284,5.933,5.933,0,0,0,3.858,1.629,2.947,2.947,0,0,0,2.255-.8,3.1,3.1,0,0,0,.752-2.2,2.849,2.849,0,0,0-1.9-2.581q-1.9-.927-3.858-1.829a16.312,16.312,0,0,1-3.984-2.505,5.292,5.292,0,0,1-1.829-4.259,6.156,6.156,0,0,1,3.132-5.211,12.013,12.013,0,0,1,6.84-2.1,12.628,12.628,0,0,1,4.134.6,10.4,10.4,0,0,0,3.432.6q0,1.1.1,3.006t.2,3.157q0,.15-.426.276a2.553,2.553,0,0,1-.676.125,2.543,2.543,0,0,1-.7-.1q-.351-.1-.4-.3a6.879,6.879,0,0,0-2.029-3.633,4.579,4.579,0,0,0-3.082-1.328,3.79,3.79,0,0,0-2.3.6,2.225,2.225,0,0,0-.8,1.9,2.935,2.935,0,0,0,2,2.656Q56.772-118.253,58.676-117.451Zm23.8,0a17.715,17.715,0,0,1,3.984,2.38,4.961,4.961,0,0,1,1.879,4.134,7.1,7.1,0,0,1-2.831,5.813,11.425,11.425,0,0,1-7.341,2.255,11.031,11.031,0,0,1-4.61-.7,9.177,9.177,0,0,0-4.009-.7q-.15-1.253-.4-3.583t-.451-3.332q-.05-.15.376-.276a2.553,2.553,0,0,1,.676-.125,2.293,2.293,0,0,1,.727.125q.376.125.426.276a10.7,10.7,0,0,0,2.956,4.284,5.933,5.933,0,0,0,3.858,1.629,2.947,2.947,0,0,0,2.255-.8,3.1,3.1,0,0,0,.752-2.2,2.849,2.849,0,0,0-1.9-2.581q-1.9-.927-3.858-1.829a16.312,16.312,0,0,1-3.984-2.505,5.292,5.292,0,0,1-1.829-4.259,6.156,6.156,0,0,1,3.132-5.211,12.013,12.013,0,0,1,6.84-2.1,12.628,12.628,0,0,1,4.134.6,10.4,10.4,0,0,0,3.432.6q0,1.1.1,3.006t.2,3.157q0,.15-.426.276a2.553,2.553,0,0,1-.676.125,2.543,2.543,0,0,1-.7-.1q-.351-.1-.4-.3a6.879,6.879,0,0,0-2.029-3.633,4.579,4.579,0,0,0-3.082-1.328,3.79,3.79,0,0,0-2.3.6,2.225,2.225,0,0,0-.8,1.9,2.935,2.935,0,0,0,2,2.656Q80.573-118.253,82.477-117.451Zm35.827-7.416a2.293,2.293,0,0,1-.125.727q-.125.376-.276.376a5.12,5.12,0,0,0-2.806,1.027,6.392,6.392,0,0,0-1.8,2.43l-9.42,20.244a48.868,48.868,0,0,1-4.41,7.942,5.4,5.4,0,0,1-4.51,2.23,4.526,4.526,0,0,1-3.057-.952A3.205,3.205,0,0,1,90.8-93.4a3.538,3.538,0,0,1,1.1-2.631,3.785,3.785,0,0,1,2.756-1.077,3.952,3.952,0,0,1,2.079.476,2.78,2.78,0,0,0,1.428.476q.6,0,1.378-.927a20.875,20.875,0,0,0,2.23-4.334l.7-1.6-8.719-17.287a8.348,8.348,0,0,0-1.629-2.43,4.977,4.977,0,0,0-2.781-1.027q-.15-.05-.276-.4a2.074,2.074,0,0,1-.125-.7,2.293,2.293,0,0,1,.125-.727q.125-.376.276-.376,1.553,0,3.608.15t3.808.15q1.754,0,3.933-.15t3.733-.15q.15,0,.276.4a2.4,2.4,0,0,1,.125.7,2.553,2.553,0,0,1-.125.676q-.125.426-.276.426a4.956,4.956,0,0,0-1.829.451,1.162,1.162,0,0,0-.676,1.1,2.744,2.744,0,0,0,.175,1q.175.451.376.9l4.009,8.468,3.758-8.468q.2-.5.276-.752a2.555,2.555,0,0,0,.075-.7,1.679,1.679,0,0,0-.551-1.3,3.832,3.832,0,0,0-2-.7q-.15-.05-.276-.4a2.074,2.074,0,0,1-.125-.7,2.293,2.293,0,0,1,.125-.727q.125-.376.276-.376a21.826,21.826,0,0,1,2.731.15,20.907,20.907,0,0,0,2.631.15,16.952,16.952,0,0,0,2.054-.15,19.778,19.778,0,0,1,2.455-.15q.15,0,.276.376A2.293,2.293,0,0,1,118.3-124.867ZM16.285-52.049a2.4,2.4,0,0,1-.125.7q-.125.4-.276.4-1.553,0-3.883-.15t-4.084-.15q-1.7,0-3.758.15T.6-50.947q-.15,0-.276-.4a2.4,2.4,0,0,1-.125-.7A2.3,2.3,0,0,1,.325-52.7q.125-.4.276-.451a4.231,4.231,0,0,0,2.631-1q.777-.8.777-3.207V-78.055a3.406,3.406,0,0,0-.752-2.631A5.1,5.1,0,0,0,.6-81.513q-.15-.05-.276-.426A2.061,2.061,0,0,1,.2-82.565a2.061,2.061,0,0,1,.125-.626q.125-.376.276-.376A42.1,42.1,0,0,0,5.887-85.2q2.881-1.077,4.785-1.979a3.4,3.4,0,0,1,.5-.251,1.578,1.578,0,0,1,.6-.15,1.379,1.379,0,0,1,.877.225q.276.225.225.426-.1,1.754-.251,4.309t-.15,4.159v21.1a4.761,4.761,0,0,0,.8,3.207,3.914,3.914,0,0,0,2.606,1q.15,0,.276.426A2.553,2.553,0,0,1,16.285-52.049Zm27.86-9.921a11.6,11.6,0,0,1-3.382,8.293q-3.382,3.533-9.9,3.533-6.464,0-9.9-3.508a11.49,11.49,0,0,1-3.432-8.318,12.076,12.076,0,0,1,3.407-8.443Q24.352-74.1,30.866-74.1q6.364,0,9.821,3.633A11.929,11.929,0,0,1,44.145-61.971Zm-9.12-.05a24.587,24.587,0,0,0-.8-7.241,3.24,3.24,0,0,0-3.357-2.43,3.288,3.288,0,0,0-3.382,2.48,23.959,23.959,0,0,0-.827,7.19,22.824,22.824,0,0,0,.827,7.165,3.269,3.269,0,0,0,3.382,2.3A3.238,3.238,0,0,0,34.2-54.88,22.858,22.858,0,0,0,35.025-62.021Zm31.568-9.32a4.377,4.377,0,0,1-.175,1.178q-.175.626-.476.626l-7.466-.2v12.978a3.154,3.154,0,0,0,.576,2.079A2.484,2.484,0,0,0,61.031-54a4.028,4.028,0,0,0,2.079-.576,6.3,6.3,0,0,0,1.679-1.428.406.406,0,0,1,.5-.2,1.406,1.406,0,0,1,.551.351,3.1,3.1,0,0,1,.376.626,1.557,1.557,0,0,1,.175.626v.2a.161.161,0,0,1-.1.15,10.746,10.746,0,0,1-3.207,2.581,10.05,10.05,0,0,1-5.061,1.228q-4.109,0-6.213-2.18t-2.054-7.09l.1-9.42a.812.812,0,0,0-.15-.5.528.528,0,0,0-.451-.2H46.149q-.2,0-.351-.451a2.384,2.384,0,0,1-.15-.651,2.144,2.144,0,0,1,.15-.626,1.1,1.1,0,0,1,.3-.526,51.189,51.189,0,0,0,5.637-3.533,35.831,35.831,0,0,0,4.785-4.034A.929.929,0,0,1,57-79.934a2.061,2.061,0,0,1,.626-.125,2.293,2.293,0,0,1,.727.125q.376.125.376.276l-.2,6.564h7.416q.3,0,.476.651A4.369,4.369,0,0,1,66.593-71.341Zm16.536,6.514a17.716,17.716,0,0,1,3.984,2.38,4.961,4.961,0,0,1,1.879,4.134A7.1,7.1,0,0,1,86.16-52.5a11.425,11.425,0,0,1-7.341,2.255,11.031,11.031,0,0,1-4.61-.7,9.177,9.177,0,0,0-4.009-.7q-.15-1.253-.4-3.583t-.451-3.332q-.05-.15.376-.276a2.553,2.553,0,0,1,.676-.125,2.293,2.293,0,0,1,.727.125q.376.125.426.276a10.7,10.7,0,0,0,2.956,4.284,5.933,5.933,0,0,0,3.858,1.629,2.947,2.947,0,0,0,2.255-.8,3.1,3.1,0,0,0,.752-2.2,2.849,2.849,0,0,0-1.9-2.581q-1.9-.927-3.858-1.829a16.312,16.312,0,0,1-3.984-2.505A5.292,5.292,0,0,1,69.8-66.831a6.156,6.156,0,0,1,3.132-5.211,12.013,12.013,0,0,1,6.84-2.1,12.628,12.628,0,0,1,4.134.6,10.4,10.4,0,0,0,3.432.6q0,1.1.1,3.006t.2,3.157q0,.15-.426.276a2.553,2.553,0,0,1-.676.125,2.543,2.543,0,0,1-.7-.1q-.351-.1-.4-.3A6.879,6.879,0,0,0,83.4-70.414a4.579,4.579,0,0,0-3.082-1.328,3.79,3.79,0,0,0-2.3.6,2.225,2.225,0,0,0-.8,1.9,2.935,2.935,0,0,0,2,2.656Q81.225-65.629,83.129-64.827Z" transform="translate(114.963 183.571)" fill="#c49c66" style="mix-blend-mode: color;isolation: isolate"/>
    <g id="그룹_249337" data-name="그룹 249337" transform="translate(-468.181 -537.119)">
      <g transform="matrix(1, 0, 0, 1, 477.72, 569.74)" filter="url(#패스_414972)">
        <path id="패스_414972-2" data-name="패스 414972" d="M762.361,4562.063a44.1,44.1,0,0,1-17.482-17.542A52.033,52.033,0,0,1,738,4518.749a50.182,50.182,0,0,1,26.211-44.375c8.041-4.359,16.275-5.422,26.35-5.422a153.886,153.886,0,0,1,17.46,1.572c15.65,2.274,14.611,1.559,15.884,2.31s.475,6.535.406,9.814c-.071,3.4.062,5.548.159,10.386-.335,1.331-.8,1.151-2.241,1.151a1.455,1.455,0,0,1-1.627-1.1c-1.626-6.241-2.543-9.138-7.92-13.177-5.29-3.975-10.335-6.486-22.12-6.231s-19.638,3.468-26.844,12.372-9.993,19.8-9.993,32.7c0,12.529,3.869,21.36,11.008,30.149,5.543,6.827,16.434,14.787,28.313,14.732s21.424-3.931,21.2-12.731-13.3-13.922-24.264-18.008-15.148-9.086-17.67-12.413-5.137-9.374-5.137-13.428a24.222,24.222,0,0,1,7.1-17.15,25.228,25.228,0,0,1,17.794-6.914c7.124.052,10.6,2.073,13.3,3.722,2.563,1.566,8.883,6.055,8.928,12.955s-3.837,9.636-8.2,9.636a7.97,7.97,0,0,1-7.906-8.032,8.2,8.2,0,0,1,7.182-8.233c.386,0,.356-.276-.49-1.124-2.522-2.525-9.218-4.178-13.661-4.178-4.216,0-13.5,2.316-14.566,11.381s5.2,12.42,21.188,19.635,26.086,11.624,26.038,25.772c-.057,16.545-14.9,23.99-30.5,23.99S769.409,4565.772,762.361,4562.063Z" transform="translate(-729 -4462.95)" fill="#ffcf83"/>
      </g>
      <path id="패스_410678" data-name="패스 410678" d="M762.361,4562.063a44.1,44.1,0,0,1-17.482-17.542A52.033,52.033,0,0,1,738,4518.749a50.182,50.182,0,0,1,26.211-44.375c8.041-4.359,16.275-5.422,26.35-5.422a153.886,153.886,0,0,1,17.46,1.572c15.65,2.274,14.611,1.559,15.884,2.31s.475,6.535.406,9.814c-.071,3.4.062,5.548.159,10.386-.335,1.331-.8,1.151-2.241,1.151a1.455,1.455,0,0,1-1.627-1.1c-1.626-6.241-2.543-9.138-7.92-13.177-5.29-3.975-10.335-6.486-22.12-6.231s-19.638,3.468-26.844,12.372-9.993,19.8-9.993,32.7c0,12.529,3.869,21.36,11.008,30.149,5.543,6.827,16.434,14.787,28.313,14.732s21.424-3.931,21.2-12.731-13.3-13.922-24.264-18.008-15.148-9.086-17.67-12.413-5.137-9.374-5.137-13.428a24.222,24.222,0,0,1,7.1-17.15,25.228,25.228,0,0,1,17.794-6.914c7.124.052,10.6,2.073,13.3,3.722,2.563,1.566,8.883,6.055,8.928,12.955s-3.837,9.636-8.2,9.636a7.97,7.97,0,0,1-7.906-8.032,8.2,8.2,0,0,1,7.182-8.233c.386,0,.356-.276-.49-1.124-2.522-2.525-9.218-4.178-13.661-4.178-4.216,0-13.5,2.316-14.566,11.381s5.2,12.42,21.188,19.635,26.086,11.624,26.038,25.772c-.057,16.545-14.9,23.99-30.5,23.99S769.409,4565.772,762.361,4562.063Z" transform="translate(-251.277 -3893.214)" fill="#ffcf83"/>
      <g id="마스크_그룹_1451" data-name="마스크 그룹 1451" transform="translate(486.724 575.738)" clip-path="url(#clip-path)">
        <ellipse id="타원_18408" data-name="타원 18408" cx="17.61" cy="17.093" rx="17.61" ry="17.093" transform="translate(51.686 40.672)" fill="url(#radial-gradient)"/>
        <circle id="타원_18414" data-name="타원 18414" cx="14.503" cy="14.503" r="14.503" transform="translate(25.789 20.989)" fill="url(#radial-gradient-2)"/>
        <circle id="타원_18409" data-name="타원 18409" cx="11.913" cy="11.913" r="11.913" transform="translate(70.333 -2.837)" fill="url(#radial-gradient-3)"/>
        <circle id="타원_18410" data-name="타원 18410" cx="9.234" cy="9.234" r="9.234" transform="translate(58.08 24.097)" fill="url(#radial-gradient-4)"/>
        <ellipse id="타원_18415" data-name="타원 18415" cx="59.355" cy="22.622" rx="59.355" ry="22.622" transform="translate(-17.222 57.831) rotate(14)" fill="url(#radial-gradient-5)"/>
        <ellipse id="타원_18416" data-name="타원 18416" cx="45.567" cy="30.956" rx="45.567" ry="30.956" transform="translate(37.605 -3.001) rotate(90)" opacity="0.7" fill="url(#radial-gradient-5)"/>
        <ellipse id="타원_18418" data-name="타원 18418" cx="49.063" cy="14.537" rx="49.063" ry="14.537" transform="matrix(-0.809, 0.588, -0.588, -0.809, 70.257, -13.863)" opacity="0.7" fill="url(#radial-gradient-5)"/>
        <ellipse id="타원_18419" data-name="타원 18419" cx="23.009" cy="14.537" rx="23.009" ry="14.537" transform="translate(116.415 1.554) rotate(120)" opacity="0.7" fill="url(#radial-gradient-5)"/>
        <ellipse id="타원_18420" data-name="타원 18420" cx="23.009" cy="14.537" rx="23.009" ry="14.537" transform="translate(95.792 11.65) rotate(-173)" opacity="0.7" fill="url(#radial-gradient-5)"/>
        <ellipse id="타원_18421" data-name="타원 18421" cx="23.446" cy="5.35" rx="23.446" ry="5.35" transform="matrix(0.848, 0.53, -0.53, 0.848, 46.733, 4.569)" opacity="0.5" fill="url(#radial-gradient-10)"/>
        <ellipse id="타원_18417" data-name="타원 18417" cx="15.734" cy="6.598" rx="15.734" ry="6.598" transform="translate(58.129 15.384) rotate(19)" fill="url(#radial-gradient-11)"/>
      </g>
      <path id="교차_32" data-name="교차 32" d="M.278,49.926C-2.452,21.222,15.569,8.864,25.258,3.558s26.1-3.684,36.575-1.5S73.2,7.76,74.715,10.975s.9,9.2,1.3,10.611c.2.694.971.643,1.7.412-.336.641-.862.525-2.021.525a1.455,1.455,0,0,1-1.627-1.1c-1.626-6.241-2.544-9.139-7.92-13.177C60.86,4.269,55.815,1.757,44.03,2.013S24.392,5.481,17.186,14.385s-9.993,19.8-9.993,32.7c0,12.529,3.869,21.36,11.007,30.149,5.543,6.827,16.434,14.787,28.313,14.733s21.424-3.931,21.2-12.731-13.3-13.923-24.264-18.009S28.3,52.144,25.776,48.816s-5.137-9.374-5.137-13.428a24.221,24.221,0,0,1,7.1-17.15,25.227,25.227,0,0,1,17.794-6.914c7.124.052,10.6,2.073,13.3,3.722C61.4,16.613,67.724,21.1,67.769,28a13.736,13.736,0,0,1-.49,3.918c.3-2.62.338-5.593-.626-7.288a21.755,21.755,0,0,0-18.995-11.1c-16.42-.391-22.075,9.513-21.82,19.285s10.924,17.56,22.553,21.713S70.123,63.022,72.089,72C74.255,82.063,67.55,94.357,46.1,95.18c-.488.019-.973.028-1.462.028C23.672,95.206,2.947,77.978.278,49.926Z" transform="translate(495.255 578.448)" fill="#c49c66"/>
      <g id="마스크_그룹_1452" data-name="마스크 그룹 1452" transform="translate(495.255 578.448)" clip-path="url(#clip-path-2)">
        <ellipse id="타원_18411" data-name="타원 18411" cx="22.662" cy="35.048" rx="22.662" ry="35.048" transform="translate(-23.821 76.039) rotate(-56)" fill="url(#radial-gradient-12)"/>
        <ellipse id="타원_18412" data-name="타원 18412" cx="33.667" cy="12.858" rx="33.667" ry="12.858" transform="translate(37.462 -17.83) rotate(16)" fill="url(#radial-gradient-10)"/>
        <ellipse id="타원_18413" data-name="타원 18413" cx="19.395" cy="21.241" rx="19.395" ry="21.241" transform="translate(14.919 17.971) rotate(16)" fill="url(#radial-gradient-14)"/>
        <ellipse id="타원_18422" data-name="타원 18422" cx="13.61" cy="14.093" rx="13.61" ry="14.093" transform="translate(44.155 2.81)" fill="url(#radial-gradient)"/>
      </g>
    </g>
  </g>
</svg>
