<svg width="32" height="32" viewBox="0 0 32 32" fill="none" xmlns="http://www.w3.org/2000/svg">
<path d="M25.072 30.237H23.1574L21.8055 26.7024C27.7891 23.9714 31.0603 17.4392 29.6629 11.012C28.2655 4.58478 22.5774 0.000488281 16.0001 0.000488281C9.42267 0.000488281 3.73458 4.58478 2.33719 11.012C0.939795 17.4392 4.21097 23.9714 10.1946 26.7024L8.84779 30.237H6.93313C6.44615 30.237 6.05138 30.6318 6.05138 31.1187C6.05138 31.6057 6.44615 32.0005 6.93313 32.0005L25.072 32.0005C25.559 32.0005 25.9538 31.6057 25.9538 31.1187C25.9538 30.6318 25.559 30.237 25.072 30.237ZM3.78401 13.9876C3.7824 7.9246 8.22697 2.77749 14.2254 1.89566C20.2239 1.01383 25.9618 4.66405 27.7051 10.4709C29.4485 16.2778 26.67 22.4848 21.1777 25.0528L17.9974 16.7361C19.1915 15.8713 19.6925 14.3356 19.238 12.933C18.7835 11.5304 17.477 10.5804 16.0026 10.5804C14.5282 10.5804 13.2217 11.5304 12.7672 12.933C12.3127 14.3356 12.8136 15.8713 14.0078 16.7361L10.8274 25.0528C6.53345 23.0413 3.78876 18.7294 3.78401 13.9876ZM15.6529 17.3705C15.8854 17.3946 16.1198 17.3946 16.3523 17.3705L19.5296 25.6846C17.2286 26.38 14.7735 26.38 12.4725 25.6846L15.6529 17.3705ZM14.365 13.9876C14.365 13.0832 15.0982 12.35 16.0026 12.35C16.907 12.35 17.6401 13.0832 17.6401 13.9876C17.6401 14.8919 16.907 15.6251 16.0026 15.6251C15.0986 15.624 14.3661 14.8915 14.365 13.9876ZM10.7337 30.237L11.8422 27.3378C14.5518 28.1802 17.4533 28.1802 20.1629 27.3378L21.2714 30.237H10.7337Z" fill="#B58362"/>
<path d="M9.23876 12.7275C10.6997 12.7275 11.884 11.5432 11.884 10.0823C11.884 8.62133 10.6997 7.43701 9.23876 7.43701C7.77783 7.43701 6.59351 8.62133 6.59351 10.0823C6.59517 11.5425 7.77852 12.7259 9.23876 12.7275ZM9.23876 9.20052C9.72574 9.20052 10.1205 9.59529 10.1205 10.0823C10.1205 10.5692 9.72574 10.964 9.23876 10.964C8.75178 10.964 8.35701 10.5692 8.35701 10.0823C8.35756 9.59552 8.75201 9.20107 9.23876 9.20052Z" fill="#B58362"/>
<path d="M22.7663 20.5376C24.2273 20.5376 25.4116 19.3533 25.4116 17.8923C25.4116 16.4314 24.2273 15.2471 22.7663 15.2471C21.3054 15.2471 20.1211 16.4314 20.1211 17.8923C20.1228 19.3526 21.3061 20.5359 22.7663 20.5376ZM22.7663 17.0106C23.2533 17.0106 23.6481 17.4053 23.6481 17.8923C23.6481 18.3793 23.2533 18.7741 22.7663 18.7741C22.2794 18.7741 21.8846 18.3793 21.8846 17.8923C21.8852 17.4056 22.2796 17.0111 22.7663 17.0106Z" fill="#B58362"/>
<path d="M11.884 17.8923C11.884 16.4314 10.6997 15.2471 9.23876 15.2471C7.77783 15.2471 6.59351 16.4314 6.59351 17.8923C6.59351 19.3533 7.77783 20.5376 9.23876 20.5376C10.699 20.5359 11.8824 19.3526 11.884 17.8923ZM9.23876 18.7741C8.75178 18.7741 8.35701 18.3793 8.35701 17.8923C8.35701 17.4053 8.75178 17.0106 9.23876 17.0106C9.72574 17.0106 10.1205 17.4053 10.1205 17.8923C10.12 18.3791 9.72551 18.7735 9.23876 18.7741Z" fill="#B58362"/>
<path d="M22.7663 12.7275C24.2273 12.7275 25.4116 11.5432 25.4116 10.0823C25.4116 8.62133 24.2273 7.43701 22.7663 7.43701C21.3054 7.43701 20.1211 8.62133 20.1211 10.0823C20.1228 11.5425 21.3061 12.7259 22.7663 12.7275ZM22.7663 9.20052C23.2533 9.20052 23.6481 9.59529 23.6481 10.0823C23.6481 10.5692 23.2533 10.964 22.7663 10.964C22.2794 10.964 21.8846 10.5692 21.8846 10.0823C21.8852 9.59552 22.2796 9.20107 22.7663 9.20052Z" fill="#B58362"/>
<path d="M16.0027 8.82274C17.4636 8.82274 18.6479 7.63842 18.6479 6.17748C18.6479 4.71655 17.4636 3.53223 16.0027 3.53223C14.5417 3.53223 13.3574 4.71655 13.3574 6.17748C13.3591 7.63773 14.5424 8.82107 16.0027 8.82274ZM16.0027 5.29573C16.4897 5.29573 16.8844 5.69051 16.8844 6.17748C16.8844 6.66446 16.4897 7.05923 16.0027 7.05923C15.5157 7.05923 15.1209 6.66446 15.1209 6.17748C15.1215 5.69073 15.5159 5.29629 16.0027 5.29573Z" fill="#B58362"/>
</svg>
