<svg width="32" height="32" viewBox="0 0 32 32" fill="none" xmlns="http://www.w3.org/2000/svg">
<path d="M0 29.8989V7.93796C0.00183105 6.38547 1.26001 5.12681 2.8125 5.12485H9.96436L10.7771 2.0853C11.179 0.584814 12.7211 -0.305689 14.2214 0.0966551L29.9175 4.30222C31.4155 4.70688 32.3042 6.24729 31.9042 7.74656L26.2188 28.9601C25.9569 29.8813 25.1101 30.5127 24.1519 30.5005C23.9536 30.5 23.7563 30.4735 23.5647 30.4217L21.875 29.9691C21.8098 31.1224 20.845 32.0184 19.6898 31.9985H2.1897C2.17517 31.9989 2.16089 31.999 2.14648 31.999C0.982178 31.9989 0.0258789 31.0683 0 29.8989ZM19.6865 30.1249C19.8347 30.1432 19.9724 30.045 20.0024 29.8989L20.0017 7.93601C20.0007 7.41916 19.5818 6.99998 19.0643 6.99924H2.8125C2.29688 7.00193 1.87976 7.42087 1.87927 7.93699V29.8989C1.90942 30.0429 2.04346 30.1405 2.1897 30.1249H19.6865ZM12.5869 2.57065L11.9031 5.12449H19.0662C20.6187 5.12632 21.8772 6.3845 21.8787 7.93699V28.0313L24.0544 28.6123C24.1921 28.6671 24.3486 28.6074 24.4153 28.4751L30.0961 7.2634C30.2297 6.76291 29.9319 6.24802 29.4319 6.11362L13.7349 1.90842C13.6536 1.88645 13.5717 1.87595 13.4912 1.87595C13.0776 1.87595 12.6992 2.1522 12.5869 2.57065ZM10.2803 24.7931L5.05615 19.6421L5.05127 19.6375C3.39087 17.9756 3.31299 15.3071 4.87402 13.5512C6.43555 11.7958 9.0946 11.5609 10.939 13.0161C12.7058 11.622 15.2357 11.7705 16.8274 13.3613L16.826 13.3603C18.5594 15.0935 18.5594 17.9037 16.826 19.6367L16.821 19.6416L11.597 24.7931C11.4143 24.973 11.1765 25.0628 10.9387 25.0628C10.7007 25.0628 10.4629 24.973 10.2803 24.7931ZM6.37695 14.6844C5.37537 15.6848 5.37488 17.307 6.37476 18.3086L10.9399 22.8095L15.5039 18.3086C16.5043 17.3065 16.5033 15.6838 15.5017 14.683C14.5 13.6826 12.8768 13.6841 11.8765 14.6858L11.6006 14.9612C11.425 15.1371 11.1865 15.2357 10.9382 15.2361C10.6898 15.2361 10.4512 15.1371 10.2758 14.9612L10.0009 14.686C9.50037 14.185 8.84424 13.9345 8.18799 13.9345C7.53271 13.9345 6.87732 14.1845 6.37695 14.6844Z" fill="#B58362"/>
</svg>
