<svg width="32" height="32" viewBox="0 0 32 32" fill="none" xmlns="http://www.w3.org/2000/svg">
<path fill-rule="evenodd" clip-rule="evenodd" d="M30.6198 23.7833H1.3802C0.619272 23.7833 0 23.1643 0 22.4031V4.38045C0 3.61952 0.618977 3.00024 1.3802 3.00024H30.6198C31.381 3.00024 32 3.61922 32 4.38045V22.4031C32 23.1643 31.381 23.7833 30.6198 23.7833ZM1.50002 22.2833H30.5V4.50026H1.50002V22.2833Z" fill="#B58362"/>
<path fill-rule="evenodd" clip-rule="evenodd" d="M31.25 20.6272H0.750007C0.335953 20.6272 0 20.2915 0 19.8772C0 19.4629 0.335953 19.1272 0.750007 19.1272H31.25C31.6643 19.1272 32 19.4629 32 19.8772C32 20.2915 31.6643 20.6272 31.25 20.6272Z" fill="#B58362"/>
<path fill-rule="evenodd" clip-rule="evenodd" d="M19.9124 29.627C19.9113 29.627 19.9092 29.6273 19.9072 29.627H12.0931C11.8843 29.627 11.6848 29.5399 11.5428 29.3866C11.4009 29.2333 11.3293 29.0278 11.3452 28.8194L11.794 22.9759C11.8239 22.5852 12.1499 22.2834 12.5419 22.2834H19.4588C19.8507 22.2834 20.1765 22.5853 20.2064 22.9759L20.6483 28.7311C20.6575 28.7782 20.6627 28.827 20.6627 28.8772C20.6626 29.2912 20.3267 29.627 19.9124 29.627ZM12.9028 28.1269H19.0975L18.7642 23.7832H13.2363L12.9028 28.1269Z" fill="#B58362"/>
<path fill-rule="evenodd" clip-rule="evenodd" d="M22.515 29.6272H9.48511C9.07077 29.6272 8.73511 29.2915 8.73511 28.8772C8.73511 28.4629 9.07077 28.1272 9.48511 28.1272H22.515C22.9294 28.1272 23.2649 28.4629 23.2649 28.8772C23.2649 29.2915 22.9294 29.6272 22.515 29.6272Z" fill="#B58362"/>
<path fill-rule="evenodd" clip-rule="evenodd" d="M16.6759 18.7494C16.586 18.7494 16.4952 18.733 16.4064 18.6991C16.0199 18.5499 15.8274 18.1158 15.9765 17.7293C16.6598 15.9579 17.0207 13.9088 17.0207 11.8025C17.0207 9.70609 16.6627 7.66416 15.9853 5.89802C15.8369 5.51135 16.0301 5.07752 16.4171 4.92928C16.8038 4.78054 17.2377 4.97402 17.3861 5.36106C18.1285 7.29697 18.5207 9.52463 18.5207 11.8026C18.5207 14.0914 18.1247 16.3273 17.3759 18.2691C17.261 18.5669 16.9769 18.7494 16.6759 18.7494Z" fill="#B58362"/>
<path fill-rule="evenodd" clip-rule="evenodd" d="M12.1939 17.4849C11.9361 17.4849 11.6851 17.3518 11.5458 17.1131C11.3367 16.7555 11.4572 16.2961 11.8148 16.0873C13.3286 15.2023 14.2692 13.5647 14.2692 11.8136C14.2692 10.0625 13.3289 8.42482 11.8148 7.53964C11.4572 7.33051 11.3369 6.87113 11.5458 6.51355C11.7547 6.15582 12.214 6.03542 12.5719 6.24455C14.544 7.39768 15.769 9.53159 15.769 11.8134C15.769 14.0951 14.5437 16.229 12.5719 17.3822C12.4528 17.4516 12.3226 17.4849 12.1939 17.4849Z" fill="#B58362"/>
<path fill-rule="evenodd" clip-rule="evenodd" d="M16.0058 14.1968C13.6964 14.1968 11.4526 13.7838 9.51694 13.002C9.13286 12.8468 8.9472 12.4098 9.10244 12.0258C9.25732 11.6419 9.69463 11.456 10.0787 11.6112C11.8375 12.3216 13.8872 12.6968 16.0058 12.6968C18.1198 12.6968 20.1653 12.3229 21.9222 11.6155C22.3063 11.4603 22.7432 11.6468 22.8982 12.0312C23.0529 12.4155 22.8667 12.8522 22.4826 13.007C20.5494 13.7854 18.3099 14.1968 16.0058 14.1968Z" fill="#B58362"/>
<path fill-rule="evenodd" clip-rule="evenodd" d="M16.0001 18.7857C12.1558 18.7857 9.02832 15.6582 9.02832 11.8139C9.02832 7.96955 12.1558 4.84204 16.0001 4.84204C19.8445 4.84204 22.972 7.96955 22.972 11.8139C22.972 15.6582 19.8445 18.7857 16.0001 18.7857ZM16.0001 6.34162C12.9829 6.34162 10.5283 8.79634 10.5283 11.8138C10.5283 14.8312 12.9831 17.2859 16.0001 17.2859C19.0174 17.2859 21.4719 14.8312 21.4719 11.8138C21.4719 8.79634 19.0174 6.34162 16.0001 6.34162Z" fill="#B58362"/>
</svg>
