<svg width="32" height="32" viewBox="0 0 32 32" fill="none" xmlns="http://www.w3.org/2000/svg">
<path d="M19.49 31.9999H12.5114H5.18401C4.51936 31.9999 3.98071 31.4667 3.98071 30.8083V14.7799L2.05381 16.6882C1.584 17.1539 0.822152 17.1539 0.352351 16.6886C-0.11745 16.2233 -0.11745 15.4687 0.352351 15.0034L4.29705 11.0959C4.32053 11.0705 4.34507 11.0462 4.37067 11.0229L15.1466 0.34864C15.6164 -0.116213 16.3778 -0.116213 16.848 0.34864L27.6104 11.0053C27.6497 11.0395 27.6868 11.0762 27.7214 11.1152L31.6481 15.0034C31.9919 15.3445 32.0945 15.8566 31.9082 16.3016C31.7219 16.7467 31.2836 17.0369 30.7972 17.0369C30.4781 17.0374 30.1717 16.9118 29.9462 16.6882L28.0202 14.7808V30.8083C28.0202 31.4667 27.4816 31.9999 26.8169 31.9999H19.49ZM25.6136 29.6167V12.3975L15.9998 2.87675L6.38687 12.3969V29.6167H11.3081V20.519C11.3081 19.8611 11.8467 19.3274 12.5114 19.3274H19.49C20.1546 19.3274 20.6933 19.8611 20.6933 20.519V29.6167H25.6136ZM18.2867 29.6167V21.7106H13.7147V29.6167H18.2867Z" fill="white"/>
</svg>
