<svg width="34" height="32" viewBox="0 0 34 32" fill="none" xmlns="http://www.w3.org/2000/svg">
<path d="M3.48978 25.914C2.6558 25.6697 2.01713 25.0724 1.57572 24.1153C1.14018 23.0836 0.93705 21.6039 1.01713 19.5744C1.10111 17.7417 1.41947 15.7054 1.89603 13.7981C2.33549 11.9655 2.97416 10.2482 3.68705 8.93139C6.48393 3.99002 9.50932 4.79095 13.1343 5.70728C14.2867 5.98557 15.5249 6.30459 16.8003 6.41998H17.2007C18.4781 6.30459 19.7124 5.98557 20.8648 5.70728C24.4976 4.75022 27.523 3.99002 30.314 8.89067C31.0328 10.2075 31.6245 11.9247 32.107 13.7574C32.5874 15.6715 32.8999 17.701 32.982 19.5337C33.064 21.6039 32.8667 23.0836 32.4234 24.0814C31.9839 25.1131 31.312 25.6697 30.5093 25.914C29.7574 26.1109 28.8745 25.9887 27.9585 25.6357C26.4038 24.9977 24.6128 23.6402 22.8628 22.0043C21.6245 20.8097 19.3101 20.2124 17.0035 20.2124C14.689 20.2124 12.3824 20.8097 11.1402 22.0043C9.38627 23.6402 7.59525 24.9977 6.04057 25.6357C5.44096 25.8931 4.86088 26.017 4.31791 26.017C4.0308 26.017 3.7515 25.9822 3.48978 25.914ZM23.8589 21.0066C25.4488 22.527 27.0835 23.7623 28.482 24.3189C29.1187 24.5565 29.6773 24.6379 30.1167 24.5158C30.5093 24.4004 30.8296 24.0814 31.0679 23.518C31.4273 22.6831 31.5913 21.4478 31.5093 19.6151C31.4273 17.8639 31.1089 15.9498 30.6734 14.1171C30.2339 12.3591 29.6773 10.8048 28.9976 9.61016C26.8042 5.66655 24.2535 6.34533 21.2261 7.09874C19.9898 7.41777 18.7144 7.73678 17.2828 7.85895C17.2398 7.85895 17.2398 7.85895 17.2007 7.85895H16.7593C16.7242 7.85895 16.7242 7.85895 16.6851 7.85895C15.2867 7.73678 14.0113 7.41777 12.7749 7.09874C9.74955 6.30459 7.19682 5.66655 5.00346 9.61016C4.32572 10.8048 3.76713 12.3999 3.33353 14.1171C2.85111 15.9498 2.57182 17.8978 2.49174 19.6151C2.41166 21.4478 2.57182 22.6831 2.89213 23.4433C3.13041 23.9999 3.45072 24.3189 3.84916 24.4343C4.29057 24.5972 4.84721 24.475 5.48588 24.2375C6.83549 23.7216 8.47221 22.4455 10.1089 20.9319C11.6636 19.4929 14.3296 18.7395 17.0035 18.7395C19.6734 18.7395 22.3394 19.4929 23.8589 21.0066ZM7.95463 17.1444C7.55619 16.7847 7.31596 16.2688 7.27689 15.7122C6.67924 15.6715 6.19682 15.4272 5.80424 15.0335C5.40189 14.633 5.1265 14.0357 5.1265 13.3977C5.1265 12.7596 5.36283 12.203 5.80424 11.7618L5.83744 11.7211C6.23783 11.3682 6.72025 11.1238 7.27689 11.0831C7.31596 10.5265 7.59525 10.0106 7.95463 9.65089C8.35502 9.25042 8.94682 8.97213 9.58549 8.97213C10.2222 8.97213 10.7808 9.20969 11.2203 9.65089L11.2613 9.69162C11.6206 10.0514 11.8589 10.5672 11.8999 11.0831C12.4566 11.1238 12.939 11.4021 13.3316 11.7618C13.732 12.1623 14.0113 12.7596 14.0113 13.3977C14.0113 14.0357 13.771 14.5923 13.3316 15.0335C12.9722 15.4272 12.4566 15.6715 11.8999 15.7122C11.8589 16.2688 11.5796 16.744 11.2203 17.1444C10.8277 17.5449 10.2222 17.8232 9.58549 17.8232C8.94682 17.8232 8.39018 17.5788 7.95463 17.1444ZM6.8765 12.7596C6.83549 12.8003 6.83549 12.8003 6.83549 12.8003C6.67924 12.9565 6.59721 13.1601 6.59721 13.3977C6.59721 13.6352 6.72025 13.8388 6.83549 13.9542C6.99955 14.1171 7.19682 14.1918 7.43314 14.1918H7.99564C8.43119 14.1918 8.74955 14.5515 8.74955 14.952V15.5086C8.74955 15.7462 8.83158 15.9498 8.98783 16.1059C9.14994 16.2688 9.34721 16.3435 9.58549 16.3435C9.82963 16.3435 10.0269 16.2688 10.189 16.1059C10.3453 15.9498 10.4253 15.7462 10.4253 15.5086V14.9927C10.4253 14.5515 10.7808 14.2325 11.1812 14.2325H11.7437C11.98 14.2325 12.1792 14.1579 12.3355 13.995C12.4956 13.8388 12.5796 13.6352 12.5796 13.3977C12.5796 13.1601 12.4956 12.9565 12.3355 12.8003C12.1792 12.6374 11.98 12.5628 11.7437 12.5628H11.1812C10.7456 12.5628 10.4253 12.203 10.4253 11.8026V11.246C10.4253 11.0491 10.3453 10.8455 10.2222 10.6894C10.189 10.6487 10.189 10.6487 10.189 10.6487C10.0269 10.4858 9.82963 10.4111 9.58549 10.4111C9.34721 10.4111 9.14994 10.4858 8.98783 10.6487C8.83158 10.8048 8.74955 11.0084 8.74955 11.246V11.8026C8.74955 12.2438 8.39018 12.5628 7.99564 12.5628H7.43314C7.23588 12.5628 7.04057 12.6374 6.8765 12.7596ZM22.5425 16.2281C22.5425 15.4543 23.1675 14.8298 23.941 14.8298C24.7085 14.8298 25.3335 15.4543 25.3335 16.2281C25.3335 16.9951 24.7085 17.6195 23.941 17.6195C23.1675 17.6195 22.5425 16.9951 22.5425 16.2281ZM25.3726 13.3977C25.3726 12.6239 25.9976 11.9994 26.7652 11.9994C27.5386 11.9994 28.1558 12.6239 28.1558 13.3977C28.1558 14.1647 27.5386 14.7891 26.7652 14.7891C25.9976 14.7891 25.3726 14.1647 25.3726 13.3977ZM19.7124 13.3977C19.7124 12.6239 20.3374 11.9994 21.1089 11.9994C21.8785 11.9994 22.5035 12.6239 22.5035 13.3977C22.5035 14.1647 21.8785 14.7891 21.1089 14.7891C20.3374 14.7891 19.7124 14.1647 19.7124 13.3977ZM22.5425 10.5672C22.5425 9.80021 23.1675 9.17575 23.941 9.17575C24.7085 9.17575 25.3335 9.80021 25.3335 10.5672C25.3335 11.341 24.7085 11.9655 23.941 11.9655C23.1675 11.9655 22.5425 11.341 22.5425 10.5672Z" fill="#B58362" stroke="#B58362" stroke-width="0.5"/>
</svg>
