<svg width="32" height="32" viewBox="0 0 32 32" fill="none" xmlns="http://www.w3.org/2000/svg">
<path d="M0.937378 32C0.419922 32 0 31.5801 0 31.0621V3.44788C0 1.54041 1.54395 0 3.44788 0H22.527C24.4346 0 25.9755 1.54346 25.9755 3.44788V15.0624H27.5482C28.1403 15.0624 28.6187 14.5826 28.6187 13.9913V6.70813C27.7354 6.33997 27.1127 5.46741 27.1127 4.45178C27.1127 3.10449 28.2089 2.0083 29.556 2.0083C30.9038 2.0083 32 3.10449 32 4.45178C32 5.46741 31.3773 6.33997 30.494 6.70813V13.9913C30.494 15.621 29.1753 16.9375 27.5482 16.9375H25.9755V31.0621C25.9755 31.5801 25.5551 32 25.0376 32H0.937378ZM1.87512 30.1249H24.1002V23.9666H1.87512V30.1249ZM1.87512 22.0918H24.1002V20.9537H1.87512V22.0918ZM17.9415 19.0791H24.1002V6.89587H17.9415V19.0791ZM9.90808 19.0791H16.0669V6.89587H9.90808V19.0791ZM1.87512 19.0791H8.03333V6.89587H1.87512V19.0791ZM28.9877 4.45178C28.9877 4.76599 29.2428 5.02063 29.556 5.02063C29.8701 5.02063 30.1254 4.76599 30.1254 4.45178C30.1254 4.13818 29.8701 3.88293 29.556 3.88293C29.2428 3.88293 28.9877 4.13818 28.9877 4.45178ZM1.87512 3.44788V5.02063H24.1002V3.44788C24.1002 2.578 23.396 1.87463 22.527 1.87463H3.44788C2.57812 1.87463 1.87512 2.57898 1.87512 3.44788ZM19.0126 27.9833C18.4946 27.9833 18.0752 27.5634 18.0752 27.0459C18.0752 26.528 18.4946 26.108 19.0126 26.108H22.0249C22.5428 26.108 22.9628 26.528 22.9628 27.0459C22.9628 27.5634 22.5428 27.9833 22.0249 27.9833H19.0126ZM11.799 14.9957C11.799 13.9297 12.0497 12.8705 12.5186 11.9164H11.7324C11.2145 11.9164 10.7946 11.4966 10.7946 10.979C10.7946 10.4611 11.2145 10.0417 11.7324 10.0417H14.243C14.598 10.0417 14.9225 10.2424 15.0814 10.5597C15.2402 10.8773 15.2061 11.2577 14.9927 11.5416L14.6918 11.943C14.0355 12.8182 13.6742 13.9022 13.6742 14.9957C13.6742 15.5137 13.2543 15.9331 12.7368 15.9331C12.2189 15.9331 11.799 15.5137 11.799 14.9957ZM3.76562 14.9957C3.76562 13.9297 4.01672 12.8705 4.48572 11.9164H3.6991C3.18103 11.9164 2.76172 11.4966 2.76172 10.979C2.76172 10.4611 3.18103 10.0417 3.6991 10.0417H6.20959C6.56458 10.0417 6.88904 10.2424 7.04785 10.5597C7.20691 10.8773 7.17249 11.2577 6.95984 11.5416L6.6582 11.943C6.00208 12.8177 5.64075 13.9022 5.64075 14.9957C5.64075 15.5137 5.22083 15.9331 4.70349 15.9331C4.18542 15.9331 3.76562 15.5137 3.76562 14.9957ZM19.8324 12.9874C19.8324 11.9214 20.083 10.8622 20.5521 9.90808H19.766C19.2479 9.90808 18.828 9.48816 18.828 8.9707C18.828 8.45276 19.2479 8.03284 19.766 8.03284H22.2764C22.631 8.03284 22.9559 8.23364 23.1147 8.55127C23.2736 8.86902 23.2389 9.24939 23.0262 9.5332L22.7246 9.93506C22.0685 10.8099 21.7075 11.8934 21.7075 12.9869C21.7075 13.5049 21.2877 13.9248 20.7699 13.9248C20.2518 13.9248 19.8324 13.5054 19.8324 12.9874Z" fill="#B58362"/>
</svg>
