<svg width="32" height="32" viewBox="0 0 32 32" fill="none" xmlns="http://www.w3.org/2000/svg">
<path d="M15.9644 32.0002C13.8238 32.0002 11.7405 31.577 9.77257 30.7425C7.86372 29.9366 6.15235 28.783 4.68621 27.3138C3.21833 25.8493 2.06469 24.138 1.2574 22.2274C0.419725 20.2468 -0.00345102 18.1517 2.11944e-05 16.0002C-0.00345102 13.8492 0.419725 11.7536 1.2574 9.77149C2.06469 7.86188 3.21833 6.15106 4.68621 4.68665C6.15149 3.21801 7.86285 2.06437 9.77257 1.25784C11.7444 0.423312 13.8316 0.000244141 15.9766 0.000244141H16H16.0234C18.1675 0.000244141 20.2552 0.423312 22.2287 1.25784C24.1376 2.06458 25.8485 3.21823 27.3133 4.68665C28.7817 6.14997 29.9353 7.86134 30.7422 9.77312C31.5816 11.7528 32.0047 13.848 32 16.0002C32.0047 18.1494 31.5816 20.2446 30.7422 22.2274C29.9344 24.1402 28.7808 25.8515 27.3133 27.3138C25.8511 28.7811 24.1402 29.9346 22.2287 30.7425C20.2552 31.577 18.1719 32.0001 16.0365 32.0001H16L15.9644 32.0002ZM16 30.0785L16.0234 30.0786C17.9075 30.0786 19.7435 29.7066 21.48 28.973C23.1636 28.2616 24.6688 27.2464 25.9548 25.9555C27.2474 24.6665 28.2626 23.1608 28.9726 21.4802C29.7109 19.7323 30.0829 17.8887 30.0781 16.0002C30.0829 14.1102 29.7109 12.2666 28.9726 10.5203C28.2613 8.83692 27.2461 7.33118 25.9548 6.04505C24.6688 4.75403 23.1636 3.73884 21.48 3.02747C19.7461 2.29277 17.9101 1.92016 16.0234 1.92016L16 1.92027L15.9766 1.92016C14.0894 1.92016 12.2535 2.29277 10.52 3.02747C8.83638 3.73895 7.33074 4.75414 6.04471 6.04505C4.75392 7.33118 3.7383 8.83682 3.02693 10.5203C2.28908 12.2624 1.91668 14.1061 1.91972 16.0002C1.91668 17.8944 2.28908 19.7382 3.02693 21.4802C3.73526 23.1606 4.75088 24.6663 6.04471 25.9555C7.33074 27.2463 8.83638 28.2615 10.52 28.973C12.2548 29.7066 14.0907 30.0786 15.9766 30.0786L16 30.0785ZM16.0239 25.6386H16H15.9757C14.6901 25.6386 13.4358 25.384 12.2478 24.8818C11.0981 24.397 10.0673 23.7015 9.18403 22.8147C8.30079 21.9349 7.60591 20.9046 7.11806 19.7523C6.61242 18.5577 6.35808 17.2959 6.36155 16.0018C6.35808 14.7057 6.61242 13.4428 7.11806 12.2483C7.60591 11.0974 8.30079 10.0672 9.18403 9.18588C10.0677 8.30003 11.0985 7.60505 12.2478 7.12024C13.4345 6.61807 14.6884 6.36351 15.9757 6.36351H16H16.0243C17.3112 6.36351 18.5651 6.61807 19.7517 7.12024C20.9028 7.60635 21.9331 8.30134 22.8142 9.18588C23.7005 10.0703 24.3954 11.1011 24.8797 12.2499C25.3845 13.4403 25.6397 14.7027 25.6384 16.0018C25.6397 17.2983 25.3845 18.5602 24.8797 19.7523C24.3945 20.9031 23.6992 21.9339 22.8142 22.8163C21.9331 23.7006 20.9028 24.3956 19.7517 24.8818C18.5655 25.384 17.3112 25.6386 16.0239 25.6386ZM16.6693 9.77562C15.0599 9.77573 13.6493 10.8452 13.24 12.3763C12.954 13.4431 13.1341 14.5431 13.7344 15.3939C12.77 15.8546 12.0838 16.6878 11.8017 17.7426C11.3134 19.5646 12.5078 21.5982 14.3581 22.0946C14.6411 22.1594 14.9319 22.1923 15.2222 22.1923C16.9019 22.1923 18.3594 21.1297 18.766 19.6083C19.0482 18.556 18.8706 17.4906 18.2669 16.6083C19.2109 16.1718 19.9171 15.3102 20.2048 14.2419C20.6367 12.2099 19.5759 10.4255 17.6254 9.90268C17.3108 9.81837 16.9891 9.77562 16.6693 9.77562ZM15.2266 20.4338C15.0868 20.4338 14.9479 20.4198 14.8142 20.3922C13.839 20.0335 13.2834 19.0926 13.5213 18.2034C13.7431 17.3733 14.4818 16.7923 15.3181 16.7907C15.4696 16.7907 15.6198 16.8105 15.7647 16.8498C16.7526 17.1319 17.316 18.1412 17.0464 19.1475C16.809 20.0361 15.9614 20.4338 15.2266 20.4338ZM16.7435 15.2092C16.5942 15.2092 16.4431 15.189 16.2943 15.1491L16.2253 15.1299L16.1727 15.1155C15.7313 14.9978 15.3637 14.7167 15.1367 14.3238C14.8867 13.8915 14.8225 13.3496 14.9601 12.837C15.1988 11.9407 16.0256 11.5395 16.7391 11.5395C16.8858 11.5395 17.0321 11.5557 17.1745 11.5875C18.1649 11.9298 18.7278 12.8728 18.4848 13.781C18.2591 14.622 17.5434 15.2092 16.7435 15.2092Z" fill="#B58362"/>
</svg>
