<svg xmlns="http://www.w3.org/2000/svg" width="24" height="25" viewBox="0 0 24 25" fill="none">
  <path opacity="0.5" fill-rule="evenodd" clip-rule="evenodd" d="M23.829 0.542482C23.8485 0.566481 23.862 0.587479 23.877 0.612978C23.949 0.72847 24 0.855963 24 0.999954V20.4987C24 20.6427 23.949 20.7702 23.877 20.8857L23.8753 20.8883C23.8596 20.9126 23.8464 20.933 23.829 20.9562C23.7465 21.0627 23.643 21.1467 23.5155 21.1962C23.5133 21.197 23.5114 21.1989 23.5095 21.2007C23.5076 21.2026 23.5057 21.2045 23.5035 21.2052C23.4195 21.2337 23.3355 21.2487 23.25 21.2487C23.1405 21.2487 23.0385 21.2232 22.944 21.1827C22.9313 21.1767 22.9199 21.1679 22.9084 21.1589C22.8996 21.152 22.8908 21.145 22.881 21.1392C22.812 21.1002 22.7475 21.0537 22.695 20.9952C22.6911 20.9906 22.6865 20.9875 22.682 20.9846C22.6778 20.9819 22.6739 20.9793 22.671 20.9757C20.3325 18.1364 17.0715 16.239 13.5 15.543V5.95714C17.0715 5.26119 20.3325 3.36231 22.671 0.522983C22.674 0.519983 22.6777 0.518108 22.6815 0.516234C22.6852 0.514358 22.689 0.512484 22.692 0.509483C22.7805 0.41049 22.8915 0.338495 23.0205 0.296497C23.0384 0.290827 23.0558 0.288134 23.0733 0.285417C23.0837 0.283821 23.0939 0.282218 23.1045 0.279998C23.1206 0.276572 23.1363 0.272187 23.1519 0.267835C23.184 0.258849 23.2157 0.25 23.25 0.25C23.3169 0.25 23.3778 0.26789 23.438 0.28559C23.4454 0.287739 23.4527 0.289886 23.46 0.291997C23.4675 0.294247 23.4746 0.293497 23.4818 0.292747C23.4889 0.291997 23.496 0.291247 23.5035 0.293497C23.5057 0.294247 23.5076 0.296122 23.5095 0.297997C23.5114 0.299872 23.5133 0.301747 23.5155 0.302497C23.643 0.351993 23.7465 0.437488 23.829 0.542482ZM12 6.17309V15.3255C11.906 15.3168 11.8123 15.3057 11.7185 15.2947C11.5563 15.2757 11.394 15.2566 11.2305 15.249H9.2385L11.7555 20.2842C12.0495 20.8407 11.94 21.5592 11.4795 22.0196L9.678 23.806C9.405 24.091 9.024 24.25 8.6235 24.25C8.5245 24.25 8.424 24.2395 8.3235 24.2185C7.8165 24.1165 7.404 23.767 7.2195 23.2855L4.2045 15.249H3.75C3.336 15.249 3 14.913 3 14.4991V13.7491H0.75C0.336 13.7491 0 13.4132 0 12.9992V8.49948C0 8.08547 0.336 7.7495 0.75 7.7495H3V6.99954C3 6.58557 3.336 6.24959 3.75 6.24959H11.223C11.3882 6.242 11.5515 6.223 11.7149 6.20399C11.8098 6.19295 11.9047 6.18191 12 6.17309Z" fill="black"/>
</svg>