<svg width="32" height="32" viewBox="0 0 32 32" fill="none" xmlns="http://www.w3.org/2000/svg">
<path d="M3.88069 5.59769C2.50314 7.21082 1.47827 9.04242 0.806209 11.0925C0.134212 13.1425 -0.117833 15.2263 0.050136 17.3435C0.218212 19.4607 0.772655 21.4772 1.71351 23.3926C2.68785 25.3084 3.98161 26.9551 5.5944 28.333C9.05534 31.156 13.0034 32.3489 17.4387 31.9122C21.8404 31.4753 25.4694 29.5428 28.3255 26.115C31.0471 22.7878 32.2569 18.9734 31.9544 14.6717C31.6184 10.3363 29.8376 6.74042 26.6118 3.88367C23.2181 0.993413 19.3036 -0.283503 14.8683 0.0524953C10.4329 0.388616 6.77037 2.237 3.88069 5.59769ZM12.6003 2.7746C13.8098 2.2034 14.9187 1.78333 15.9267 1.51444C16.8003 1.54804 17.7747 1.6825 18.85 1.91776C19.7572 2.15302 20.5637 2.42176 21.2693 2.72431L22.3782 5.04316C22.6469 5.88346 22.8318 6.63953 22.9325 7.31171L18.6988 9.5802C16.4139 8.87433 15.2211 8.50473 15.1202 8.47126C14.0115 8.23591 12.9026 8.08466 11.7938 8.01734L11.6425 7.96699L10.5841 4.74076C11.0881 4.00141 11.7601 3.34595 12.6003 2.7746ZM12.5498 1.91776L12.197 2.1193C11.3234 2.69062 10.5841 3.39643 9.97927 4.23652C9.03842 4.23652 8.13128 4.4383 7.25759 4.84156L6.14877 5.396C7.99682 3.68216 10.1305 2.52265 12.5498 1.91776ZM9.52572 10.4876C10.1791 9.77179 10.7839 9.18372 11.3401 8.7233C11.2946 8.72492 11.2442 8.72492 11.1889 8.7233L11.4914 8.62229C11.4466 8.65729 11.3962 8.69086 11.3401 8.7233C12.3871 8.77231 13.5799 8.94037 14.9187 9.22736C15.8931 9.4289 17.0523 9.78193 18.3963 10.286L20.0092 15.8311L15.2211 21.0739L12.3986 20.6201C11.3906 20.3848 10.4833 20.1161 9.67691 19.8136C9.07212 18.5701 8.63522 17.3939 8.36645 16.2848C8.09762 15.1758 7.87924 13.949 7.71122 12.6047C8.28247 11.8654 8.88735 11.1597 9.52572 10.4876ZM3.6287 8.92481C3.4271 9.86588 3.30949 10.5716 3.27587 11.0421C2.63751 11.8487 2.15023 12.5712 1.81424 13.2098C2.15023 11.3613 2.87272 9.63059 3.98161 8.01734L3.6287 8.92481ZM1.51188 15.9824L2.16714 14.1171C2.63751 13.2098 3.14157 12.4536 3.67912 11.8486L6.95523 13.0081C7.056 13.8483 7.27438 14.9909 7.6105 16.4361C7.98007 17.7803 8.41683 18.9734 8.92086 20.0152L6.90486 23.8968C6.19921 23.7624 5.4768 23.5607 4.73753 23.2919C4.09912 23.1239 3.52792 22.9053 3.02389 22.6366C2.18385 20.889 1.69664 19.0742 1.56225 17.1922L1.51188 15.9824ZM3.67912 23.7456L4.48556 24.048C5.35919 24.3506 6.21601 24.5522 7.056 24.653C7.42562 25.2244 7.96322 25.8629 8.66886 26.5685C9.27368 27.1736 10.0465 27.7281 10.9874 28.2322L10.9369 28.3834V29.7445C7.77848 28.5345 5.35919 26.535 3.67912 23.7456ZM29.9384 11.3445L27.5694 11.4453C27.2335 10.874 26.6287 10.0843 25.755 9.07605C24.8813 8.26947 24.1925 7.69813 23.6885 7.36213C23.5877 6.45478 23.3861 5.59769 23.0838 4.79117L22.2269 2.87549H22.2773C23.5877 3.48047 24.7134 4.20295 25.6542 5.04316C27.603 6.69001 29.0312 8.79035 29.9384 11.3445ZM26.3598 19.9648C26.5951 21.0067 26.7631 22.1493 26.8639 23.3926C26.3262 24.1993 25.7382 24.9218 25.0998 25.5604C24.327 26.3333 23.5877 26.9383 22.8821 27.3751C21.8404 27.5768 20.7652 27.5431 19.6564 27.2744C18.682 27.1398 17.7411 26.8375 16.834 26.367L15.7755 21.5779L20.614 16.2848L25.4022 17.1922C25.7382 17.9316 26.0574 18.8556 26.3598 19.9648ZM30.6944 15.0246C30.8959 17.8475 30.3415 20.4689 29.0312 22.8887H27.6199C27.5527 22.1493 27.3846 21.1242 27.1159 19.8136C26.7463 18.5701 26.3934 17.5955 26.0574 16.8897C26.3262 16.4529 26.6622 15.7638 27.0655 14.8229C27.4014 13.6803 27.6199 12.8065 27.7207 12.2015L30.1399 12.1006C30.4088 12.9073 30.5937 13.8819 30.6944 15.0246ZM22.4285 28.2322L22.5293 29.2404C19.0012 30.9208 15.3891 31.1895 11.693 30.0469V28.3834C12.4658 28.3497 13.2386 28.1985 14.0115 27.9297C14.5155 27.7617 15.3219 27.4591 16.4307 27.0223C17.2707 27.4591 18.2956 27.7952 19.5052 28.0304C20.5804 28.1985 21.4877 28.2658 22.2269 28.2322H22.4285Z" fill="#B58362"/>
</svg>
