<svg width="32" height="32" viewBox="0 0 32 32" fill="none" xmlns="http://www.w3.org/2000/svg">
<path d="M27.1748 32.0005H4.8252C2.16455 32.0005 0 29.8354 0 27.1748V9.9043C0 7.24365 2.16455 5.0791 4.8252 5.0791H13.5724L10.2274 1.73535C9.83203 1.33936 9.83203 0.693848 10.2274 0.297363C10.4218 0.105469 10.6769 0 10.9458 0C11.2161 0 11.4711 0.105469 11.6643 0.297363L16.0005 4.63379L20.3357 0.297363C20.5288 0.105469 20.7839 0 21.0541 0C21.3231 0 21.5781 0.105469 21.7725 0.297363C22.168 0.693848 22.168 1.33936 21.7725 1.73535L18.4276 5.0791H27.1748C29.8354 5.0791 32 7.24365 32 9.9043V27.1748C32 29.8354 29.8354 32.0005 27.1748 32.0005ZM4.8252 7.11182C3.28491 7.11182 2.03174 8.36475 2.03174 9.9043V27.1748C2.03174 28.7153 3.28491 29.9688 4.8252 29.9688H27.1748C28.7151 29.9688 29.9683 28.7153 29.9683 27.1748V9.9043C29.9683 8.36475 28.7151 7.11182 27.1748 7.11182H4.8252ZM13.9722 22.8853C13.7755 22.8853 13.5815 22.8081 13.4398 22.6724C13.2897 22.5303 13.2069 22.335 13.2069 22.1226V14.957C13.2069 14.4858 13.6041 14.1938 13.9722 14.1938C14.1313 14.1938 14.2859 14.2456 14.4188 14.3433L19.3043 17.9253C19.5018 18.0693 19.615 18.2935 19.615 18.54C19.615 18.7861 19.5018 19.0093 19.3043 19.1538L14.4188 22.7358C14.2859 22.834 14.1313 22.8853 13.9722 22.8853Z" fill="#B58362"/>
</svg>
