<svg xmlns="http://www.w3.org/2000/svg" xmlns:xlink="http://www.w3.org/1999/xlink" width="147.515" height="68.396" viewBox="0 0 147.515 68.396">
  <defs>
    <clipPath id="clip-path">
      <path id="패스_414968" data-name="패스 414968" d="M754.736,4532.918a30.3,30.3,0,0,1-12.01-12.051A35.744,35.744,0,0,1,738,4503.162a34.475,34.475,0,0,1,18.007-30.485c5.524-3,11.181-3.725,18.1-3.725a105.738,105.738,0,0,1,11.995,1.08c10.752,1.563,10.037,1.071,10.912,1.587s.326,4.49.279,6.742c-.049,2.339.043,3.812.109,7.135-.23.915-.547.791-1.54.791a1,1,0,0,1-1.118-.758c-1.117-4.287-1.747-6.278-5.441-9.052-3.634-2.73-7.1-4.456-15.2-4.281s-13.491,2.382-18.442,8.5-6.865,13.605-6.865,22.466c0,8.607,2.658,14.674,7.562,20.712,3.808,4.689,11.29,10.158,19.451,10.121s14.718-2.7,14.562-8.746-9.14-9.565-16.669-12.372-10.406-6.242-12.139-8.528-3.529-6.44-3.529-9.225a16.639,16.639,0,0,1,4.88-11.782,17.333,17.333,0,0,1,12.224-4.75,15.7,15.7,0,0,1,9.14,2.557c1.76,1.076,6.1,4.16,6.133,8.9s-2.636,6.62-5.636,6.62a5.475,5.475,0,0,1-5.431-5.518,5.631,5.631,0,0,1,4.934-5.656c.266,0,.245-.189-.337-.772-1.733-1.735-6.333-2.87-9.385-2.87-2.9,0-9.272,1.591-10.007,7.819s3.571,8.533,14.556,13.489,17.921,7.985,17.888,17.705c-.039,11.367-10.235,16.481-20.956,16.481S759.578,4535.467,754.736,4532.918Z" transform="translate(-738 -4468.952)" fill="#d8b99c"/>
    </clipPath>
    <clipPath id="clip-path-2">
      <path id="교차_33" data-name="교차 33" d="M.191,34.3C-1.685,14.579,10.7,6.089,17.352,2.445S35.28-.086,42.479,1.416s7.812,3.916,8.85,6.124.615,6.322.9,7.29c.138.477.667.441,1.168.283-.231.441-.592.361-1.388.361a1,1,0,0,1-1.118-.757c-1.117-4.288-1.747-6.278-5.441-9.052-3.634-2.731-7.1-4.457-15.2-4.281s-13.491,2.382-18.442,8.5S4.941,23.488,4.941,32.349c0,8.607,2.658,14.674,7.562,20.712,3.808,4.69,11.29,10.158,19.451,10.121s14.718-2.7,14.562-8.746-9.14-9.565-16.669-12.372-10.406-6.242-12.139-8.528-3.529-6.44-3.529-9.225a16.64,16.64,0,0,1,4.88-11.782A17.331,17.331,0,0,1,31.283,7.78a15.7,15.7,0,0,1,9.14,2.557c1.76,1.076,6.1,4.16,6.133,8.9a9.436,9.436,0,0,1-.337,2.692c.2-1.8.232-3.842-.43-5.007A14.946,14.946,0,0,0,32.74,9.3C21.46,9.027,17.575,15.831,17.75,22.545s7.5,12.063,15.494,14.917,14.93,5.834,16.28,12c1.488,6.911-3.118,15.357-17.856,15.922-.336.013-.669.019-1,.019C16.263,65.406,2.025,53.57.191,34.3Z" transform="translate(0 0)" fill="#d8b99c"/>
    </clipPath>
  </defs>
  <g id="그룹_249373" data-name="그룹 249373" transform="translate(-18.543 -38.619)">
    <path id="패스_410675" data-name="패스 410675" d="M11.25-115.793a1.648,1.648,0,0,1-.086.482q-.086.275-.189.275-1.067,0-2.668-.1t-2.806-.1q-1.17,0-2.582.1t-2.444.1q-.1,0-.189-.275a1.648,1.648,0,0,1-.086-.482,1.579,1.579,0,0,1,.086-.448q.086-.275.189-.31a2.907,2.907,0,0,0,1.807-.688,3.265,3.265,0,0,0,.534-2.2v-14.217a2.34,2.34,0,0,0-.516-1.807,3.506,3.506,0,0,0-1.824-.568q-.1-.034-.189-.293a1.416,1.416,0,0,1-.086-.43,1.416,1.416,0,0,1,.086-.43q.086-.258.189-.258a28.921,28.921,0,0,0,3.632-1.119q1.979-.74,3.287-1.36a2.332,2.332,0,0,1,.344-.172,1.084,1.084,0,0,1,.413-.1.948.948,0,0,1,.6.155q.189.155.155.293-.069,1.2-.172,2.96t-.1,2.857v14.492a3.271,3.271,0,0,0,.551,2.2,2.689,2.689,0,0,0,1.79.688q.1,0,.189.293A1.754,1.754,0,0,1,11.25-115.793Zm18.589-.9a.566.566,0,0,0-.034.172q0,.069-.1.138a4.66,4.66,0,0,1-2.031,1.239,8.486,8.486,0,0,1-2.823.482,3.807,3.807,0,0,1-2.289-.637,2.953,2.953,0,0,1-1.153-1.7,4.815,4.815,0,0,1-2.014,1.773,7.126,7.126,0,0,1-3.012.568,5.91,5.91,0,0,1-3.322-.9,3.033,3.033,0,0,1-1.36-2.719,3.763,3.763,0,0,1,2.238-3.3,29.213,29.213,0,0,1,7.5-2.444l.1-3.374a2.233,2.233,0,0,0-.31-1.411,1.333,1.333,0,0,0-1.033-.344,3.15,3.15,0,0,0-1.325.275,1.237,1.237,0,0,0-.671,1.136,5.236,5.236,0,0,1-.9,2.96,2.684,2.684,0,0,1-2.134.826,2.492,2.492,0,0,1-1.945-.74,2.548,2.548,0,0,1-.671-1.773q0-1.721,2.806-3.167a13.511,13.511,0,0,1,6.282-1.446q3.167,0,4.32,1.583a6.718,6.718,0,0,1,1.05,4.3l-.172,5.99q-.069,1.2.344,1.566a1.231,1.231,0,0,0,.792.361,1.653,1.653,0,0,0,.585-.1,1.651,1.651,0,0,0,.482-.275q.138-.1.465.258A1.072,1.072,0,0,1,29.839-116.688Zm-8.468-6.059a6.575,6.575,0,0,0-2.926,1.308,3.072,3.072,0,0,0-.9,2.375,1.981,1.981,0,0,0,.465,1.377,1.648,1.648,0,0,0,1.291.516,2.032,2.032,0,0,0,1.256-.43,2.3,2.3,0,0,0,.706-1.635Zm19-1.824a12.17,12.17,0,0,1,2.737,1.635A3.408,3.408,0,0,1,44.4-120.1a4.876,4.876,0,0,1-1.945,3.993,7.849,7.849,0,0,1-5.043,1.549,7.578,7.578,0,0,1-3.167-.482,6.3,6.3,0,0,0-2.754-.482q-.1-.861-.275-2.461t-.31-2.289q-.034-.1.258-.189a1.754,1.754,0,0,1,.465-.086,1.575,1.575,0,0,1,.5.086q.258.086.293.189a7.347,7.347,0,0,0,2.031,2.943,4.076,4.076,0,0,0,2.651,1.119,2.025,2.025,0,0,0,1.549-.551,2.127,2.127,0,0,0,.516-1.515,1.957,1.957,0,0,0-1.308-1.773q-1.308-.637-2.651-1.256a11.206,11.206,0,0,1-2.737-1.721,3.636,3.636,0,0,1-1.256-2.926,4.229,4.229,0,0,1,2.151-3.58,8.253,8.253,0,0,1,4.7-1.446,8.675,8.675,0,0,1,2.84.413,7.142,7.142,0,0,0,2.358.413q0,.757.069,2.065t.138,2.169q0,.1-.293.189a1.754,1.754,0,0,1-.465.086,1.747,1.747,0,0,1-.482-.069q-.241-.069-.275-.207a4.726,4.726,0,0,0-1.394-2.5,3.146,3.146,0,0,0-2.117-.912,2.6,2.6,0,0,0-1.583.413,1.528,1.528,0,0,0-.551,1.308,2.016,2.016,0,0,0,1.377,1.824Q39.065-125.122,40.373-124.572Zm16.351,0a12.17,12.17,0,0,1,2.737,1.635,3.408,3.408,0,0,1,1.291,2.84,4.876,4.876,0,0,1-1.945,3.993,7.849,7.849,0,0,1-5.043,1.549,7.578,7.578,0,0,1-3.167-.482,6.3,6.3,0,0,0-2.754-.482q-.1-.861-.275-2.461t-.31-2.289q-.034-.1.258-.189a1.754,1.754,0,0,1,.465-.086,1.575,1.575,0,0,1,.5.086q.258.086.293.189a7.347,7.347,0,0,0,2.031,2.943,4.076,4.076,0,0,0,2.651,1.119A2.025,2.025,0,0,0,55-116.757a2.127,2.127,0,0,0,.516-1.515,1.957,1.957,0,0,0-1.308-1.773q-1.308-.637-2.651-1.256a11.206,11.206,0,0,1-2.737-1.721,3.636,3.636,0,0,1-1.256-2.926,4.229,4.229,0,0,1,2.151-3.58,8.253,8.253,0,0,1,4.7-1.446,8.675,8.675,0,0,1,2.84.413,7.142,7.142,0,0,0,2.358.413q0,.757.069,2.065t.138,2.169q0,.1-.293.189a1.754,1.754,0,0,1-.465.086,1.747,1.747,0,0,1-.482-.069q-.241-.069-.275-.207a4.726,4.726,0,0,0-1.394-2.5,3.146,3.146,0,0,0-2.117-.912,2.6,2.6,0,0,0-1.583.413,1.528,1.528,0,0,0-.551,1.308,2.016,2.016,0,0,0,1.377,1.824Q55.416-125.122,56.724-124.572Zm24.613-5.095a1.575,1.575,0,0,1-.086.5q-.086.258-.189.258a3.517,3.517,0,0,0-1.928.706,4.391,4.391,0,0,0-1.239,1.67l-6.472,13.907a33.571,33.571,0,0,1-3.029,5.456,3.709,3.709,0,0,1-3.1,1.532,3.109,3.109,0,0,1-2.1-.654,2.2,2.2,0,0,1-.757-1.756,2.431,2.431,0,0,1,.757-1.807,2.6,2.6,0,0,1,1.893-.74,2.715,2.715,0,0,1,1.429.327,1.91,1.91,0,0,0,.981.327q.413,0,.947-.637a14.341,14.341,0,0,0,1.532-2.978l.482-1.1-5.99-11.876a5.735,5.735,0,0,0-1.119-1.67,3.419,3.419,0,0,0-1.911-.706q-.1-.034-.189-.275a1.425,1.425,0,0,1-.086-.482,1.575,1.575,0,0,1,.086-.5q.086-.258.189-.258,1.067,0,2.479.1t2.616.1q1.2,0,2.7-.1t2.565-.1q.1,0,.189.275a1.648,1.648,0,0,1,.086.482,1.754,1.754,0,0,1-.086.465q-.086.293-.189.293a3.4,3.4,0,0,0-1.256.31.8.8,0,0,0-.465.757,1.885,1.885,0,0,0,.12.688q.12.31.258.62l2.754,5.818,2.582-5.818q.138-.344.189-.516a1.755,1.755,0,0,0,.052-.482,1.153,1.153,0,0,0-.379-.9,2.632,2.632,0,0,0-1.377-.482q-.1-.034-.189-.275a1.425,1.425,0,0,1-.086-.482,1.575,1.575,0,0,1,.086-.5q.086-.258.189-.258a14.992,14.992,0,0,1,1.876.1,14.365,14.365,0,0,0,1.807.1,11.647,11.647,0,0,0,1.411-.1,13.585,13.585,0,0,1,1.687-.1q.1,0,.189.258A1.575,1.575,0,0,1,81.337-129.666ZM11.25-79.641a1.648,1.648,0,0,1-.086.482q-.086.275-.189.275-1.067,0-2.668-.1T5.5-79.09q-1.17,0-2.582.1t-2.444.1q-.1,0-.189-.275A1.648,1.648,0,0,1,.2-79.641a1.579,1.579,0,0,1,.086-.448q.086-.275.189-.31a2.907,2.907,0,0,0,1.807-.688,3.265,3.265,0,0,0,.534-2.2V-97.507A2.34,2.34,0,0,0,2.3-99.314a3.506,3.506,0,0,0-1.824-.568q-.1-.034-.189-.293a1.416,1.416,0,0,1-.086-.43,1.416,1.416,0,0,1,.086-.43q.086-.258.189-.258a28.922,28.922,0,0,0,3.632-1.119q1.979-.74,3.287-1.36a2.333,2.333,0,0,1,.344-.172,1.084,1.084,0,0,1,.413-.1.948.948,0,0,1,.6.155q.189.155.155.293-.069,1.2-.172,2.96t-.1,2.857V-83.29a3.271,3.271,0,0,0,.551,2.2,2.689,2.689,0,0,0,1.79.688q.1,0,.189.293A1.754,1.754,0,0,1,11.25-79.641Zm19.14-6.816a7.971,7.971,0,0,1-2.324,5.7q-2.324,2.427-6.8,2.427-4.441,0-6.8-2.41a7.894,7.894,0,0,1-2.358-5.714,8.3,8.3,0,0,1,2.341-5.8q2.341-2.53,6.816-2.53a8.871,8.871,0,0,1,6.747,2.5A8.2,8.2,0,0,1,30.39-86.457Zm-6.265-.034a16.891,16.891,0,0,0-.551-4.974,2.226,2.226,0,0,0-2.306-1.67,2.259,2.259,0,0,0-2.324,1.7,16.46,16.46,0,0,0-.568,4.94,15.68,15.68,0,0,0,.568,4.923,2.246,2.246,0,0,0,2.324,1.583,2.224,2.224,0,0,0,2.289-1.6A15.7,15.7,0,0,0,24.125-86.491Zm21.687-6.4a3.007,3.007,0,0,1-.12.809q-.12.43-.327.43l-5.129-.138v8.916a2.167,2.167,0,0,0,.4,1.429,1.707,1.707,0,0,0,1.36.465,2.767,2.767,0,0,0,1.429-.4,4.328,4.328,0,0,0,1.153-.981.279.279,0,0,1,.344-.138.966.966,0,0,1,.379.241,2.131,2.131,0,0,1,.258.43,1.07,1.07,0,0,1,.12.43v.138a.11.11,0,0,1-.069.1,7.382,7.382,0,0,1-2.2,1.773,6.9,6.9,0,0,1-3.477.843,5.669,5.669,0,0,1-4.269-1.5q-1.446-1.5-1.411-4.871l.069-6.472a.558.558,0,0,0-.1-.344.363.363,0,0,0-.31-.138H31.767q-.138,0-.241-.31a1.638,1.638,0,0,1-.1-.448,1.473,1.473,0,0,1,.1-.43.754.754,0,0,1,.207-.361A35.166,35.166,0,0,0,35.6-95.837a24.615,24.615,0,0,0,3.287-2.771.638.638,0,0,1,.327-.189,1.416,1.416,0,0,1,.43-.086,1.575,1.575,0,0,1,.5.086q.258.086.258.189l-.138,4.51h5.095q.207,0,.327.448A3,3,0,0,1,45.812-92.894Zm11.36,4.475a12.171,12.171,0,0,1,2.737,1.635,3.408,3.408,0,0,1,1.291,2.84,4.876,4.876,0,0,1-1.945,3.993A7.849,7.849,0,0,1,54.211-78.4a7.578,7.578,0,0,1-3.167-.482,6.3,6.3,0,0,0-2.754-.482q-.1-.861-.275-2.461t-.31-2.289q-.034-.1.258-.189a1.754,1.754,0,0,1,.465-.086,1.575,1.575,0,0,1,.5.086q.258.086.293.189a7.347,7.347,0,0,0,2.031,2.943A4.076,4.076,0,0,0,53.9-80.054,2.025,2.025,0,0,0,55.45-80.6a2.127,2.127,0,0,0,.516-1.515,1.957,1.957,0,0,0-1.308-1.773q-1.308-.637-2.651-1.256a11.206,11.206,0,0,1-2.737-1.721A3.636,3.636,0,0,1,48.015-89.8a4.229,4.229,0,0,1,2.151-3.58,8.253,8.253,0,0,1,4.7-1.446,8.675,8.675,0,0,1,2.84.413A7.142,7.142,0,0,0,60.063-94q0,.757.069,2.065t.138,2.169q0,.1-.293.189a1.754,1.754,0,0,1-.465.086,1.747,1.747,0,0,1-.482-.069q-.241-.069-.275-.207a4.726,4.726,0,0,0-1.394-2.5,3.146,3.146,0,0,0-2.117-.912,2.6,2.6,0,0,0-1.583.413,1.528,1.528,0,0,0-.551,1.308,2.016,2.016,0,0,0,1.377,1.824Q55.863-88.97,57.172-88.419Z" transform="translate(84.721 182.084)" fill="#d8b99c"/>
    <g id="그룹_249337" data-name="그룹 249337" transform="translate(18.543 38.619)">
      <path id="패스_414972" data-name="패스 414972" d="M754.736,4532.918a30.3,30.3,0,0,1-12.01-12.051A35.744,35.744,0,0,1,738,4503.162a34.475,34.475,0,0,1,18.007-30.485c5.524-3,11.181-3.725,18.1-3.725a105.738,105.738,0,0,1,11.995,1.08c10.752,1.563,10.037,1.071,10.912,1.587s.326,4.49.279,6.742c-.049,2.339.043,3.812.109,7.135-.23.915-.547.791-1.54.791a1,1,0,0,1-1.118-.758c-1.117-4.287-1.747-6.278-5.441-9.052-3.634-2.73-7.1-4.456-15.2-4.281s-13.491,2.382-18.442,8.5-6.865,13.605-6.865,22.466c0,8.607,2.658,14.674,7.562,20.712,3.808,4.689,11.29,10.158,19.451,10.121s14.718-2.7,14.562-8.746-9.14-9.565-16.669-12.372-10.406-6.242-12.139-8.528-3.529-6.44-3.529-9.225a16.639,16.639,0,0,1,4.88-11.782,17.333,17.333,0,0,1,12.224-4.75,15.7,15.7,0,0,1,9.14,2.557c1.76,1.076,6.1,4.16,6.133,8.9s-2.636,6.62-5.636,6.62a5.475,5.475,0,0,1-5.431-5.518,5.631,5.631,0,0,1,4.934-5.656c.266,0,.245-.189-.337-.772-1.733-1.735-6.333-2.87-9.385-2.87-2.9,0-9.272,1.591-10.007,7.819s3.571,8.533,14.556,13.489,17.921,7.985,17.888,17.705c-.039,11.367-10.235,16.481-20.956,16.481S759.578,4535.467,754.736,4532.918Z" transform="translate(-738 -4468.952)" fill="#d8b99c"/>
      <path id="패스_410678" data-name="패스 410678" d="M754.736,4532.918a30.3,30.3,0,0,1-12.01-12.051A35.744,35.744,0,0,1,738,4503.162a34.475,34.475,0,0,1,18.007-30.485c5.524-3,11.181-3.725,18.1-3.725a105.738,105.738,0,0,1,11.995,1.08c10.752,1.563,10.037,1.071,10.912,1.587s.326,4.49.279,6.742c-.049,2.339.043,3.812.109,7.135-.23.915-.547.791-1.54.791a1,1,0,0,1-1.118-.758c-1.117-4.287-1.747-6.278-5.441-9.052-3.634-2.73-7.1-4.456-15.2-4.281s-13.491,2.382-18.442,8.5-6.865,13.605-6.865,22.466c0,8.607,2.658,14.674,7.562,20.712,3.808,4.689,11.29,10.158,19.451,10.121s14.718-2.7,14.562-8.746-9.14-9.565-16.669-12.372-10.406-6.242-12.139-8.528-3.529-6.44-3.529-9.225a16.639,16.639,0,0,1,4.88-11.782,17.333,17.333,0,0,1,12.224-4.75,15.7,15.7,0,0,1,9.14,2.557c1.76,1.076,6.1,4.16,6.133,8.9s-2.636,6.62-5.636,6.62a5.475,5.475,0,0,1-5.431-5.518,5.631,5.631,0,0,1,4.934-5.656c.266,0,.245-.189-.337-.772-1.733-1.735-6.333-2.87-9.385-2.87-2.9,0-9.272,1.591-10.007,7.819s3.571,8.533,14.556,13.489,17.921,7.985,17.888,17.705c-.039,11.367-10.235,16.481-20.956,16.481S759.578,4535.467,754.736,4532.918Z" transform="translate(-738 -4468.952)" fill="#d8b99c"/>
      <g id="마스크_그룹_1451" data-name="마스크 그룹 1451" transform="translate(0)" clip-path="url(#clip-path)">
        <ellipse id="타원_18408" data-name="타원 18408" cx="12.098" cy="11.742" rx="12.098" ry="11.742" transform="translate(35.508 27.941)" fill="#d8b99c"/>
        <circle id="타원_18414" data-name="타원 18414" cx="9.963" cy="9.963" r="9.963" transform="translate(17.717 14.42)" fill="#d8b99c"/>
        <circle id="타원_18409" data-name="타원 18409" cx="8.184" cy="8.184" r="8.184" transform="translate(48.318 -1.949)" fill="#d8b99c"/>
        <circle id="타원_18410" data-name="타원 18410" cx="6.344" cy="6.344" r="6.344" transform="translate(39.9 16.555)" fill="#d8b99c"/>
        <ellipse id="타원_18415" data-name="타원 18415" cx="40.777" cy="15.541" rx="40.777" ry="15.541" transform="translate(-11.831 39.73) rotate(14)" fill="#d8b99c"/>
        <ellipse id="타원_18416" data-name="타원 18416" cx="31.304" cy="21.267" rx="31.304" ry="21.267" transform="translate(25.834 -2.062) rotate(90)" fill="#d8b99c" opacity="0.7"/>
        <ellipse id="타원_18418" data-name="타원 18418" cx="33.706" cy="9.987" rx="33.706" ry="9.987" transform="matrix(-0.809, 0.588, -0.588, -0.809, 48.266, -9.524)" fill="#d8b99c" opacity="0.7"/>
        <ellipse id="타원_18419" data-name="타원 18419" cx="15.807" cy="9.987" rx="15.807" ry="9.987" transform="translate(79.976 1.067) rotate(120)" fill="#d8b99c" opacity="0.7"/>
        <ellipse id="타원_18420" data-name="타원 18420" cx="15.807" cy="9.987" rx="15.807" ry="9.987" transform="translate(65.808 8.004) rotate(-173)" fill="#d8b99c" opacity="0.7"/>
        <ellipse id="타원_18421" data-name="타원 18421" cx="16.107" cy="3.676" rx="16.107" ry="3.676" transform="matrix(0.848, 0.53, -0.53, 0.848, 32.105, 3.139)" fill="#d8b99c" opacity="0.5"/>
        <ellipse id="타원_18417" data-name="타원 18417" cx="10.809" cy="4.533" rx="10.809" ry="4.533" transform="translate(39.934 10.569) rotate(19)" fill="#d8b99c"/>
      </g>
      <path id="교차_32" data-name="교차 32" d="M.191,34.3C-1.685,14.579,10.7,6.089,17.352,2.445S35.28-.086,42.479,1.416s7.812,3.916,8.85,6.124.615,6.322.9,7.29c.138.477.667.441,1.168.283-.231.441-.592.361-1.388.361a1,1,0,0,1-1.118-.757c-1.117-4.288-1.747-6.278-5.441-9.052-3.634-2.731-7.1-4.457-15.2-4.281s-13.491,2.382-18.442,8.5S4.941,23.488,4.941,32.349c0,8.607,2.658,14.674,7.562,20.712,3.808,4.69,11.29,10.158,19.451,10.121s14.718-2.7,14.562-8.746-9.14-9.565-16.669-12.372-10.406-6.242-12.139-8.528-3.529-6.44-3.529-9.225a16.64,16.64,0,0,1,4.88-11.782A17.331,17.331,0,0,1,31.283,7.78a15.7,15.7,0,0,1,9.14,2.557c1.76,1.076,6.1,4.16,6.133,8.9a9.436,9.436,0,0,1-.337,2.692c.2-1.8.232-3.842-.43-5.007A14.946,14.946,0,0,0,32.74,9.3C21.46,9.027,17.575,15.831,17.75,22.545s7.5,12.063,15.494,14.917,14.93,5.834,16.28,12c1.488,6.911-3.118,15.357-17.856,15.922-.336.013-.669.019-1,.019C16.263,65.406,2.025,53.57.191,34.3Z" transform="translate(5.861 1.862)" fill="#d8b99c"/>
      <g id="마스크_그룹_1452" data-name="마스크 그룹 1452" transform="translate(5.861 1.862)" clip-path="url(#clip-path-2)">
        <ellipse id="타원_18411" data-name="타원 18411" cx="15.569" cy="24.077" rx="15.569" ry="24.077" transform="translate(-16.365 52.238) rotate(-56)" fill="#d8b99c"/>
        <ellipse id="타원_18412" data-name="타원 18412" cx="23.129" cy="8.833" rx="23.129" ry="8.833" transform="translate(25.736 -12.249) rotate(16)" fill="#d8b99c"/>
        <ellipse id="타원_18413" data-name="타원 18413" cx="13.325" cy="14.593" rx="13.325" ry="14.593" transform="translate(10.249 12.346) rotate(16)" fill="#d8b99c"/>
        <ellipse id="타원_18422" data-name="타원 18422" cx="9.35" cy="9.681" rx="9.35" ry="9.681" transform="translate(30.334 1.93)" fill="#d8b99c"/>
      </g>
    </g>
  </g>
</svg>
